<svg width="46" height="46" viewBox="0 0 46 46" fill="none" xmlns="http://www.w3.org/2000/svg">
<path d="M3.85248 45.955C3.07632 45.5971 2.85238 44.9811 2.85451 44.1488C2.87515 36.3692 2.86662 28.5896 2.86674 20.81C2.86674 19.5391 3.32494 19.0766 4.58377 19.0765C7.03299 19.0762 9.48232 19.0883 11.9315 19.0724C13.7212 19.0607 15.0793 19.7624 15.9012 21.3849C16.0278 21.6347 16.1678 21.5901 16.3701 21.5244C17.7303 21.0834 18.8268 20.2437 19.7846 19.2201C21.9041 16.9547 23.2406 14.2755 23.9178 11.2567C24.058 10.6314 24.2152 10.0095 24.3794 9.38997C24.5841 8.61684 25.0654 8.24996 25.8709 8.23593C27.0676 8.21495 28.264 8.19386 29.3719 8.76527C31.3044 9.7619 32.3506 11.3456 32.4284 13.5157C32.5242 16.1892 32.1688 18.8147 31.4452 21.3901C31.4211 21.4762 31.394 21.5616 31.3747 21.6486C31.369 21.6746 31.3851 21.7053 31.3977 21.7644C32.2113 21.7644 33.0313 21.7644 33.8512 21.7644C35.5836 21.7644 37.3161 21.7532 39.0484 21.7676C41.0072 21.7838 42.4975 22.898 43.0293 24.755C43.3748 25.9611 43.1584 27.0944 42.4284 28.1102C42.2352 28.379 42.1909 28.5464 42.4097 28.8351C43.4434 30.1993 43.437 32.1376 42.4169 33.51C42.2531 33.7304 42.1679 33.8837 42.3715 34.1603C43.9854 36.3523 43.0832 39.3627 40.5435 40.318C40.4478 40.354 40.3538 40.3943 40.3518 40.3951C40.3835 41.1268 40.4952 41.8107 40.4263 42.4757C40.2458 44.218 38.8689 45.5959 37.126 45.8845C37.0549 45.8962 36.9876 45.931 36.9186 45.955C32.6472 45.955 28.3759 45.955 24.1044 45.955C23.9749 45.9262 23.8461 45.8943 23.716 45.869C22.8558 45.7015 21.9758 45.6014 21.1391 45.3549C19.5136 44.8759 17.9092 44.3237 16.3034 43.7801C16.003 43.6785 15.8635 43.7259 15.7077 44.0042C15.3511 44.641 14.8353 45.14 14.1774 45.4603C13.7691 45.659 13.3289 45.7924 12.903 45.9552C9.88622 45.955 6.8693 45.955 3.85248 45.955ZM26.7672 10.9527C26.7112 11.1653 26.6549 11.35 26.6144 11.5381C25.9153 14.7882 24.5714 17.7335 22.428 20.2887C20.8546 22.1643 19.0189 23.6758 16.5667 24.2571C16.2877 24.3231 16.3075 24.4853 16.3075 24.6817C16.3083 29.9826 16.3107 35.2836 16.3011 40.5845C16.3005 40.8788 16.4013 40.9949 16.6697 41.0822C18.2151 41.5846 19.7524 42.1119 21.2967 42.6184C22.5232 43.0206 23.782 43.2603 25.0763 43.2625C28.8398 43.2687 32.6034 43.2689 36.3669 43.2648C37.1899 43.2639 37.7768 42.7285 37.81 41.981C37.8432 41.2349 37.2959 40.6574 36.4823 40.5801C35.6565 40.5016 35.1105 39.9452 35.1297 39.2017C35.1494 38.4367 35.7445 37.8999 36.5948 37.893C37.4013 37.8865 38.2077 37.8956 39.0142 37.8902C39.891 37.8844 40.4939 37.3387 40.4994 36.5566C40.5049 35.7728 39.9019 35.212 39.0323 35.2051C38.2258 35.1987 37.4194 35.2078 36.6129 35.2023C35.7369 35.1963 35.1339 34.6489 35.1297 33.8666C35.1254 33.0832 35.7288 32.5239 36.5989 32.5171C37.4053 32.5108 38.2118 32.5199 39.0182 32.5143C39.8934 32.5082 40.4964 31.959 40.4994 31.1766C40.5025 30.3935 39.8991 29.8357 39.0282 29.8291C38.2069 29.8228 37.3854 29.8343 36.5641 29.8255C35.7267 29.8167 35.1315 29.2537 35.1297 28.4867C35.1279 27.7191 35.7226 27.152 36.5581 27.1419C37.3048 27.1328 38.0516 27.14 38.7983 27.1397C39.8753 27.1392 40.4989 26.6468 40.4996 25.7967C40.5002 24.9483 39.8737 24.4519 38.8004 24.4519C34.4843 24.4517 30.1683 24.4537 25.8523 24.4501C24.9797 24.4495 24.3763 23.8901 24.3767 23.1073C24.377 22.3246 24.9804 21.7719 25.8535 21.7653C26.6002 21.7596 27.3473 21.7514 28.0935 21.7705C28.3762 21.7777 28.5121 21.6917 28.6049 21.4162C29.4866 18.7978 29.8685 16.1044 29.7142 13.3535C29.63 11.8523 28.3038 10.826 26.7672 10.9527ZM5.58545 21.7642C5.58545 28.962 5.58545 36.1014 5.58545 43.2672C7.71839 43.2672 9.82104 43.2675 11.9236 43.2671C13.1512 43.2668 13.6197 42.7952 13.6197 41.5592C13.62 35.5301 13.6199 29.5009 13.6199 23.4718C13.6199 23.3674 13.6219 23.2628 13.6187 23.1584C13.5939 22.3354 13.0557 21.788 12.2366 21.7673C11.7741 21.7557 11.3112 21.7643 10.8485 21.7643C9.10423 21.7642 7.35993 21.7642 5.58545 21.7642Z" fill="black"/>
<path d="M27.0636 2.81191C27.0636 2.3491 27.0507 1.88596 27.0665 1.42372C27.0928 0.654955 27.675 0.0838817 28.4087 0.0854525C29.1423 0.0870232 29.7292 0.658882 29.7441 1.42933C29.762 2.35449 29.7625 3.28054 29.7438 4.20571C29.7283 4.97447 29.1368 5.54554 28.4032 5.54397C27.6695 5.5424 27.0916 4.97043 27.0662 4.2001C27.0511 3.73785 27.0636 3.27471 27.0636 2.81191Z" fill="black"/>
<path d="M18.4502 5.03301C18.544 4.47944 18.7951 4.08777 19.2596 3.86293C19.7377 3.63147 20.2507 3.6336 20.6466 3.9988C21.3915 4.68588 22.117 5.39854 22.7988 6.14767C23.2597 6.65401 23.1782 7.41716 22.707 7.89702C22.2249 8.38787 21.444 8.46719 20.9239 7.99216C20.1868 7.3191 19.485 6.60386 18.8097 5.86853C18.616 5.65783 18.566 5.31518 18.4502 5.03301Z" fill="black"/>
<path d="M36.9903 3.65771C37.5438 3.75342 37.933 4.00687 38.158 4.47102C38.3819 4.93304 38.391 5.44106 38.043 5.82129C37.3389 6.5905 36.6041 7.33659 35.8297 8.03422C35.3428 8.47291 34.5815 8.36935 34.1174 7.91013C33.6414 7.43925 33.547 6.66511 34.0014 6.16247C34.6807 5.41121 35.4083 4.70046 36.1536 4.01405C36.3636 3.82062 36.7077 3.77249 36.9903 3.65771Z" fill="black"/>
<path d="M9.6522 37.8962C10.3833 37.9329 10.963 38.5718 10.9263 39.3004C10.8895 40.0314 10.2505 40.611 9.52183 40.5744C8.79077 40.5376 8.21106 39.8987 8.24774 39.1701C8.28454 38.4391 8.92349 37.8596 9.6522 37.8962Z" fill="black"/>
</svg>
