<svg width="50" height="50" viewBox="0 0 50 50" fill="none" xmlns="http://www.w3.org/2000/svg">
<path d="M28.5703 46.4211C28.5703 47.0703 28.5813 47.6282 28.5679 48.1855C28.5427 49.2276 27.8041 49.9732 26.7609 49.9877C25.5894 50.0039 24.4174 50.0036 23.2458 49.988C22.1829 49.9738 21.447 49.2124 21.4306 48.1366C21.4221 47.5833 21.4291 47.0299 21.4291 46.4208C20.8259 46.4208 20.2729 46.428 19.7203 46.4194C18.6152 46.4019 17.8639 45.66 17.8607 44.5553C17.8522 41.7655 17.8508 38.9756 17.866 36.1858C17.868 35.8236 17.7618 35.6319 17.4393 35.4467C11.8359 32.2298 9.05222 26.0257 9.99239 20.1107C11.0395 13.5226 15.7719 8.64721 22.1654 7.39723C30.5247 5.76275 38.6529 11.4847 39.9763 19.9355C40.9548 26.1836 38.0614 32.2514 32.5659 35.4417C32.2518 35.624 32.1309 35.8105 32.1333 36.1789C32.1506 38.9128 32.1441 41.647 32.1419 44.381C32.1407 45.7148 31.443 46.4158 30.1195 46.4208C29.6215 46.4228 29.124 46.4211 28.5703 46.4211ZM19.6432 37.4638C21.1709 37.4638 22.6143 37.4638 24.1073 37.4638C24.1073 36.2679 24.0909 35.1005 24.1165 33.9342C24.125 33.5467 24.0089 33.2763 23.7307 33.013C23.0693 32.3865 22.4307 31.7354 21.7944 31.0831C21.3515 30.6292 21.324 30.136 21.6935 29.7498C22.0774 29.3485 22.5861 29.3778 23.0682 29.8338C23.2303 29.987 23.3882 30.1451 23.5419 30.307C24.0103 30.8005 24.4758 31.2968 24.9799 31.8319C25.6773 31.1173 26.2694 30.5006 26.8729 29.8955C27.3819 29.3851 27.8809 29.3337 28.2857 29.7292C28.6927 30.127 28.6486 30.6374 28.1487 31.1441C27.4956 31.8061 26.832 32.4576 26.1799 33.1205C26.0675 33.2347 25.9104 33.3817 25.9083 33.5156C25.8878 34.8286 25.8959 36.1419 25.8959 37.4514C27.4193 37.4514 28.8759 37.4514 30.3565 37.4514C30.3565 36.8902 30.4059 36.365 30.3457 35.8525C30.2395 34.9485 30.6069 34.4512 31.416 34.0234C36.3551 31.4113 39.1642 25.6731 38.2266 20.2459C36.9177 12.6689 30.1553 7.87462 22.5695 9.14547C15.5011 10.3297 10.4969 17.4542 11.7912 24.4965C12.6 28.8976 14.9936 32.1436 18.9428 34.2358C19.4286 34.4931 19.6685 34.8223 19.6485 35.3772C19.6244 36.0607 19.6432 36.7456 19.6432 37.4638ZM19.6682 41.036C23.2573 41.036 26.7812 41.036 30.322 41.036C30.322 40.4439 30.322 39.8807 30.322 39.317C26.7496 39.317 23.2124 39.317 19.6682 39.317C19.6682 39.9056 19.6682 40.4559 19.6682 41.036ZM19.6682 44.5966C23.2521 44.5966 26.7892 44.5966 30.3111 44.5966C30.3111 43.9928 30.3111 43.4287 30.3111 42.8792C26.7412 42.8792 23.2172 42.8792 19.6682 42.8792C19.6682 43.4583 19.6682 44.0086 19.6682 44.5966ZM23.2406 48.1689C24.4396 48.1689 25.5967 48.1689 26.742 48.1689C26.742 47.5668 26.742 47.0036 26.742 46.4495C25.554 46.4495 24.4102 46.4495 23.2406 46.4495C23.2406 47.0268 23.2406 47.5765 23.2406 48.1689Z" fill="black"/>
<path d="M13.3479 9.80374C13.1754 10.0168 13.0303 10.3554 12.7891 10.4511C12.5253 10.5556 12.0597 10.559 11.8775 10.3927C10.9216 9.51943 10.0084 8.59625 9.12203 7.65132C8.80641 7.31497 8.88051 6.87694 9.20538 6.54462C9.54843 6.19366 9.99734 6.11628 10.3537 6.45158C11.297 7.33972 12.2005 8.27049 13.1036 9.19992C13.2202 9.31994 13.2422 9.53195 13.3479 9.80374Z" fill="black"/>
<path d="M37.5207 10.6658C37.3063 10.4952 36.9667 10.353 36.8689 10.1125C36.7618 9.84953 36.7533 9.38138 36.9185 9.20024C37.791 8.24352 38.7146 7.33079 39.6579 6.44265C39.9943 6.12598 40.4306 6.19382 40.7658 6.51556C41.1194 6.85504 41.2038 7.30574 40.8691 7.66251C39.9829 8.60745 39.052 9.51079 38.1235 10.4149C38.0032 10.5321 37.7928 10.5568 37.5207 10.6658Z" fill="black"/>
<path d="M13.3717 34.895C13.1814 35.2138 13.08 35.482 12.8973 35.672C12.1368 36.4627 11.3575 37.2358 10.5738 38.0036C10.0973 38.4704 9.58544 38.4916 9.19974 38.0896C8.82895 37.7032 8.85564 37.2103 9.30052 36.757C10.0822 35.9607 10.8751 35.1753 11.6661 34.3883C11.9681 34.088 12.3421 33.9207 12.7207 34.1626C12.9755 34.3254 13.1414 34.627 13.3717 34.895Z" fill="black"/>
<path d="M24.1081 2.66741C24.1083 2.09103 24.0955 1.51419 24.1119 0.938107C24.1281 0.369325 24.4982 -0.00369959 25.0054 2.76778e-05C25.5118 0.00375495 25.8802 0.377525 25.8871 0.950481C25.9011 2.10325 25.9017 3.25632 25.8865 4.40909C25.8789 4.97668 25.4981 5.35194 24.993 5.34806C24.4883 5.34404 24.1262 4.96788 24.1114 4.39671C24.0964 3.82063 24.108 3.24394 24.1081 2.66741Z" fill="black"/>
<path d="M5.31479 23.2086C4.77553 23.2086 4.23612 23.2162 3.69701 23.2065C3.08052 23.1955 2.69244 22.8511 2.68468 22.3281C2.67693 21.8016 3.06367 21.4328 3.67182 21.4268C4.78746 21.4158 5.90326 21.4171 7.0189 21.4261C7.63673 21.431 8.02392 21.7788 8.03197 22.303C8.04017 22.8439 7.63793 23.1983 6.98819 23.2071C6.43059 23.2147 5.87269 23.2086 5.31479 23.2086Z" fill="black"/>
<path d="M44.6485 21.4241C45.2249 21.4242 45.8018 21.4114 46.3778 21.4278C46.9462 21.444 47.3201 21.815 47.3162 22.3216C47.3123 22.8258 46.9357 23.1965 46.365 23.2033C45.2123 23.217 44.0592 23.2179 42.9064 23.2027C42.3384 23.1953 41.9648 22.8154 41.9688 22.3089C41.9728 21.8014 42.3455 21.4424 42.9192 21.4275C43.4953 21.4123 44.072 21.4239 44.6485 21.4241Z" fill="black"/>
<path d="M37.5964 33.9443C37.9116 34.1383 38.1759 34.2449 38.3663 34.4281C39.1428 35.1754 39.9018 35.9411 40.6572 36.71C41.1228 37.1839 41.1525 37.701 40.7617 38.0865C40.3719 38.471 39.8633 38.4338 39.3861 37.9632C38.6054 37.1933 37.8333 36.4148 37.061 35.6365C36.7592 35.3324 36.6075 34.9528 36.8526 34.5802C37.0185 34.3281 37.3249 34.1684 37.5964 33.9443Z" fill="black"/>
</svg>
