<svg width="50" height="50" viewBox="0 0 50 50" fill="none" xmlns="http://www.w3.org/2000/svg">
<g clip-path="url(#clip0_296_1015)">
<path d="M10.4824 11.8352C13.9356 9.84198 17.3895 7.84851 20.8515 5.85034C20.3024 3.65975 20.848 1.86933 22.7801 0.641764C24.2505 -0.292467 26.1732 -0.195316 27.5618 0.863783C29.2172 2.1262 29.6667 3.81112 29.1414 5.84173C32.594 7.83492 36.0595 9.83552 39.5224 11.8346C41.0723 10.3223 42.8265 9.84951 44.7858 10.8004C46.4304 11.5986 47.279 13.0055 47.2001 14.8291C47.1029 17.0704 45.8017 18.4041 43.6767 19.0122C43.6767 23.0069 43.6767 26.998 43.6767 30.9883C45.7826 31.5918 47.0802 32.906 47.1979 35.1255C47.2948 36.9511 46.4605 38.3684 44.827 39.1803C42.8603 40.1578 41.0848 39.6958 39.5236 38.1667C36.0675 40.1615 32.6134 42.1552 29.1506 44.1539C29.6971 46.3418 29.1534 48.1326 27.2203 49.3601C25.7484 50.2947 23.8417 50.1955 22.4403 49.1332C20.7785 47.8734 20.3371 46.1874 20.8602 44.157C17.4079 42.1641 13.9428 40.1638 10.482 38.1659C8.92662 39.6763 7.1728 40.1529 5.21365 39.1989C3.57084 38.3989 2.72017 36.9929 2.80063 35.1691C2.8994 32.9292 4.2003 31.5948 6.32469 30.9894C6.32469 26.9918 6.32469 23.001 6.32469 19.0115C4.21671 18.4088 2.92066 17.0923 2.80252 14.8737C2.70537 13.0483 3.54245 11.6313 5.17503 10.8193C7.14239 9.84063 8.91693 10.3096 10.4824 11.8352ZM21.6658 42.7586C21.7449 42.6965 21.7871 42.6689 21.8226 42.6346C23.7062 40.816 26.1775 40.7716 28.0789 42.547C28.3197 42.7717 28.4645 42.691 28.6799 42.5664C31.9016 40.7021 35.1234 38.838 38.3545 36.9901C38.6656 36.8122 38.6989 36.6513 38.6212 36.3173C38.1261 34.187 39.2192 32.0797 41.2155 31.2676C41.4755 31.1619 41.7482 31.0876 42.0224 30.9962C42.0224 26.9887 42.0224 22.9987 42.0224 18.9994C41.8806 18.9539 41.7555 18.9125 41.6295 18.8737C39.3702 18.1785 38.0834 15.9744 38.6263 13.6685C38.7092 13.3162 38.634 13.1739 38.3393 13.0051C35.3857 11.3138 32.4408 9.60731 29.493 7.9057C29.1043 7.68126 28.7134 7.46031 28.3339 7.24368C26.5548 9.12196 23.7317 9.35273 21.6794 7.27086C21.6368 7.28458 21.5856 7.29198 21.5442 7.31593C18.2177 9.23337 14.893 11.1542 11.5633 13.0661C11.3309 13.1996 11.2959 13.3231 11.3582 13.5855C11.8098 15.486 11.1191 17.3064 9.53388 18.3258C9.06373 18.6282 8.51783 18.8124 7.97961 19.0633C7.97961 23.0135 7.97961 27.0035 7.97961 30.993C8.04285 31.0187 8.08618 31.0429 8.1326 31.0541C10.6098 31.6513 12.012 34.1742 11.3577 36.4851C11.3247 36.6014 11.4336 36.8298 11.5443 36.9022C12.0069 37.2044 12.4951 37.4672 12.9744 37.7439C15.8633 39.4109 18.7523 41.0775 21.6658 42.7586ZM9.8922 14.6774C9.88776 13.167 8.63355 11.921 7.12961 11.9331C5.62028 11.9452 4.37859 13.2025 4.39016 14.707C4.40187 16.2238 5.64302 17.4509 7.15894 17.4443C8.67204 17.4379 9.89664 16.1981 9.8922 14.6774ZM40.1096 14.7019C40.114 16.2181 41.3515 17.4493 42.8665 17.4447C44.378 17.4401 45.6191 16.1916 45.612 14.6829C45.6049 13.1721 44.353 11.9275 42.8474 11.9342C41.3371 11.9411 40.1051 13.1865 40.1096 14.7019ZM9.89207 35.3077C9.89072 33.7888 8.65925 32.5563 7.1436 32.5568C5.62889 32.5574 4.38962 33.7958 4.38989 35.3087C4.39016 36.8156 5.6402 38.0672 7.14495 38.0674C8.65212 38.0675 9.89328 36.8206 9.89207 35.3077ZM40.1096 35.3151C40.1113 36.8266 41.3595 38.0738 42.8637 38.0672C44.3726 38.0606 45.6177 36.8074 45.6113 35.3013C45.605 33.7855 44.3663 32.5546 42.85 32.557C41.3359 32.5594 40.1078 33.7954 40.1096 35.3151ZM27.7428 4.36456C27.7345 2.83949 26.506 1.62322 24.982 1.63143C23.4646 1.63964 22.2503 2.87447 22.2581 4.40183C22.2658 5.9156 23.5177 7.15796 25.0194 7.14235C26.5357 7.12661 27.7512 5.8868 27.7428 4.36456ZM27.7428 45.6346C27.7505 44.1125 26.5338 42.8731 25.0178 42.8588C23.5133 42.8445 22.2654 44.0841 22.2581 45.6001C22.2507 47.1267 23.4659 48.3617 24.9835 48.3697C26.5058 48.3778 27.7352 47.1594 27.7428 45.6346Z" fill="black"/>
<path d="M34.7912 17.906C34.6769 18.1377 34.5989 18.3411 34.484 18.5207C34.0862 19.1421 33.6875 19.7636 33.2644 20.3676C33.091 20.6148 33.0192 20.8292 33.2074 21.0895C33.2556 21.1561 33.2989 21.2371 33.3117 21.3167C33.4588 22.2342 34.0779 22.5255 34.9175 22.598C35.3982 22.6395 35.8711 22.7798 36.3453 22.8857C36.9258 23.0153 37.1255 23.2377 37.1358 23.8156C37.1501 24.604 37.1498 25.3931 37.136 26.1816C37.1259 26.7587 36.9251 26.989 36.3491 27.1149C35.5797 27.2828 34.8033 27.4211 34.0394 27.6102C33.8693 27.6523 33.6882 27.8248 33.5997 27.9854C33.4231 28.306 33.2829 28.6526 33.1773 29.0035C33.1287 29.165 33.1379 29.3982 33.2225 29.5363C33.634 30.2081 34.0843 30.8557 34.5124 31.5174C34.8442 32.0305 34.8157 32.3431 34.395 32.7729C33.8552 33.3245 33.3105 33.8719 32.758 34.4109C32.3499 34.8091 32.0224 34.8376 31.5407 34.5263C30.8928 34.1077 30.246 33.687 29.6103 33.2503C29.3814 33.093 29.2007 33.1158 28.9296 33.1785C27.8381 33.431 27.3939 34.1261 27.3401 35.1879C27.3199 35.5852 27.189 35.9765 27.1135 36.3716C27.0228 36.8459 26.749 37.1282 26.259 37.1361C25.4202 37.1497 24.5808 37.1499 23.742 37.1361C23.2528 37.1281 22.9816 36.847 22.8868 36.3724C22.7291 35.5837 22.575 34.7938 22.3862 34.0125C22.3483 33.8554 22.1705 33.7252 22.0401 33.6006C21.9852 33.548 21.8735 33.5589 21.8086 33.5121C21.0106 32.9363 20.3185 33.1528 19.6314 33.7444C19.2785 34.0482 18.8583 34.2757 18.4613 34.5263C17.9684 34.8374 17.6537 34.8103 17.2446 34.4108C16.6803 33.8598 16.1276 33.2971 15.5698 32.7395C15.2075 32.3773 15.1752 31.9866 15.4584 31.5606C15.8948 30.9043 16.342 30.2541 16.7473 29.579C16.8446 29.417 16.8189 29.1652 16.8048 28.9579C16.7963 28.833 16.6683 28.7189 16.6496 28.5919C16.5237 27.7384 15.9385 27.5005 15.1824 27.4173C14.6515 27.3589 14.1299 27.2158 13.6045 27.1088C13.1292 27.0121 12.868 26.7263 12.8648 26.2351C12.8593 25.413 12.8584 24.5907 12.8651 23.7684C12.8693 23.2512 13.1541 22.9805 13.6522 22.8841C14.4254 22.7345 15.199 22.5815 15.9629 22.3919C16.1327 22.3498 16.313 22.1766 16.4012 22.0159C16.5776 21.6953 16.7181 21.3488 16.8238 20.998C16.8725 20.8364 16.8636 20.6034 16.7789 20.465C16.3679 19.7931 15.9178 19.145 15.4902 18.483C15.1535 17.9619 15.1804 17.6636 15.6056 17.2297C16.146 16.6785 16.6913 16.132 17.2436 15.5926C17.6559 15.1899 17.9665 15.1593 18.4588 15.4747C19.1083 15.8908 19.7547 16.3122 20.3898 16.7496C20.6188 16.9073 20.7974 16.8858 21.0692 16.8237C22.1628 16.5736 22.6072 15.8797 22.66 14.8165C22.6797 14.4193 22.8114 14.028 22.8874 13.633C22.9834 13.1344 23.2705 12.8683 23.7896 12.8696C24.5952 12.8714 25.4008 12.8722 26.2064 12.8692C26.7253 12.8671 27.0126 13.1307 27.1137 13.6281C27.2741 14.4162 27.4262 15.2065 27.615 15.9878C27.6525 16.1433 27.8167 16.2982 27.962 16.3929C28.8795 16.9913 29.7293 16.9372 30.5392 16.1497C30.8344 15.8626 31.2304 15.6792 31.5804 15.4485C31.9879 15.1799 32.3728 15.2096 32.7199 15.5528C33.3047 16.1308 33.8929 16.7061 34.4576 17.3034C34.6087 17.4628 34.6796 17.6981 34.7912 17.906ZM31.9536 17.1334C31.2823 17.576 30.6039 18.0076 29.9429 18.465C29.5391 18.7445 29.1718 18.7587 28.7272 18.5301C28.1642 18.2407 27.5749 17.9842 26.9707 17.7987C26.4691 17.6446 26.2087 17.3647 26.1219 16.8652C26.033 16.3535 25.9155 15.8469 25.8141 15.3373C25.6374 14.449 25.6389 14.4592 24.7418 14.4746C24.4573 14.4794 24.3281 14.5573 24.2788 14.8575C24.1673 15.5351 24.0037 16.2039 23.8762 16.879C23.7868 17.3522 23.55 17.6337 23.0644 17.7864C22.4454 17.9811 21.8453 18.2509 21.2619 18.5385C20.8393 18.7466 20.4855 18.7543 20.0911 18.4803C19.4177 18.0125 18.7215 17.5777 18.0391 17.1318C17.7245 17.4393 17.4298 17.7273 17.1213 18.0289C17.5742 18.7178 18.0031 19.3983 18.4619 20.0579C18.7432 20.4625 18.7563 20.8285 18.5313 21.2731C18.2378 21.853 17.9804 22.4582 17.7814 23.0764C17.6332 23.5367 17.3719 23.7795 16.915 23.8673C16.2402 23.9972 15.572 24.1663 14.8934 24.2699C14.5421 24.3236 14.4363 24.4794 14.4709 24.8014C14.4852 24.9342 14.4853 25.0711 14.4709 25.2037C14.4356 25.5288 14.5519 25.6778 14.8976 25.7315C15.5759 25.8367 16.2442 26.0049 16.919 26.1346C17.3771 26.2226 17.6385 26.4668 17.7819 26.9286C17.9648 27.517 18.1907 28.1029 18.4842 28.6432C18.751 29.1342 18.7575 29.5343 18.4341 29.9899C17.9722 30.6407 17.55 31.3195 17.1482 31.9293C17.4684 32.277 17.7386 32.5705 18.0239 32.8802C18.7241 32.4215 19.4195 31.9852 20.0931 31.5176C20.4876 31.2439 20.842 31.2553 21.2641 31.4637C21.8474 31.7517 22.4488 32.017 23.0668 32.2159C23.5254 32.3635 23.7777 32.6158 23.8647 33.0752C23.9834 33.7009 24.1515 34.3196 24.2306 34.9497C24.2928 35.4446 24.5148 35.6171 24.9844 35.5358C25.0659 35.5217 25.153 35.5248 25.2356 35.5353C25.5479 35.5749 25.6741 35.4461 25.7251 35.1284C25.8341 34.4505 26.0015 33.7823 26.128 33.107C26.2176 32.6286 26.4676 32.3575 26.9508 32.2107C27.5402 32.0317 28.1263 31.8027 28.6642 31.5057C29.1625 31.2307 29.5612 31.2599 30.0098 31.5774C30.6511 32.0312 31.3177 32.449 31.925 32.8501C32.2599 32.5325 32.5589 32.249 32.869 31.9549C32.4111 31.2581 31.9696 30.5657 31.506 29.8885C31.2484 29.5124 31.2538 29.1695 31.4529 28.762C31.7459 28.1625 32.0124 27.5446 32.2234 26.9122C32.3686 26.4769 32.6083 26.2295 33.0489 26.1432C33.7233 26.0113 34.3915 25.8421 35.07 25.7378C35.4282 25.6828 35.5774 25.5465 35.5308 25.1873C35.5116 25.0388 35.5156 24.8846 35.5299 24.7348C35.5576 24.4413 35.4323 24.3274 35.1408 24.2785C34.4634 24.1651 33.7944 24.0024 33.119 23.8753C32.6446 23.7859 32.3662 23.5465 32.2143 23.0613C32.0204 22.4421 31.7531 21.8405 31.4628 21.2585C31.2508 20.834 31.2492 20.4805 31.5208 20.0883C31.9874 19.4141 32.4254 18.7202 32.8896 18.013C32.5817 17.7236 32.2906 17.45 31.9536 17.1334Z" fill="black"/>
<path d="M30.3597 25.0115C30.3537 27.9931 27.9484 30.3772 24.965 30.3583C22.0037 30.3396 19.6369 27.9523 19.6426 24.9895C19.6482 22.0072 22.0517 19.6254 25.0373 19.6437C27.9985 19.6616 30.3654 22.0489 30.3597 25.0115ZM28.7477 25.0066C28.7504 22.925 27.0987 21.2629 25.0196 21.2554C22.9356 21.2477 21.2679 22.8928 21.2546 24.9694C21.241 27.0735 22.9061 28.7494 25.0077 28.7466C27.0872 28.7438 28.745 27.086 28.7477 25.0066Z" fill="black"/>
</g>
<defs>
<clipPath id="clip0_296_1015">
<rect width="50" height="50" fill="white" transform="translate(0 0.000488281)"/>
</clipPath>
</defs>
</svg>
