<svg width="50" height="50" viewBox="0 0 50 50" fill="none" xmlns="http://www.w3.org/2000/svg">
<path d="M9.97472 43.3871C9.97472 43.7931 9.97876 44.1313 9.97394 44.4694C9.96366 45.1888 9.76066 45.4022 9.03983 45.4052C7.26887 45.4123 5.4979 45.4079 3.72694 45.408C3.04452 45.408 2.36209 45.4149 1.6798 45.4054C0.986313 45.3958 0.764177 45.1792 0.763786 44.5044C0.761052 39.3548 0.760921 34.2053 0.764046 29.0557C0.764437 28.4076 0.992562 28.18 1.64816 28.1787C4.15024 28.1735 6.65233 28.1735 9.15441 28.1786C9.82876 28.18 10.044 28.4097 10.0495 29.0962C10.0536 29.6153 10.0502 30.1346 10.0502 30.7398C10.2879 30.7398 10.5061 30.7431 10.7242 30.7393C12.7746 30.7036 14.8146 30.7494 16.8098 31.3194C18.5887 31.8274 20.2433 32.588 21.7808 33.6166C21.9802 33.75 22.2531 33.8312 22.4937 33.8351C23.8582 33.8578 25.2237 33.8236 26.5877 33.8572C29.5708 33.9308 31.9108 36.1404 32.1879 39.1091C32.1967 39.2039 32.2217 39.2971 32.2456 39.4256C33.0837 39.4915 33.8837 39.639 34.7387 39.3558C37.8019 38.3411 40.8861 37.3888 43.9663 36.4252C46.5173 35.6272 49.1509 37.4487 49.1521 39.992C49.1522 40.4016 48.9949 40.6677 48.6012 40.8043C42.4737 42.9317 36.3522 45.0765 30.2167 47.1804C28.8661 47.6436 27.4538 48.0425 26.0168 47.8695C24.7548 47.7174 23.5025 47.3964 22.2779 47.0401C18.3071 45.8846 14.3512 44.6785 10.3892 43.4927C10.2833 43.4606 10.1749 43.4376 9.97472 43.3871ZM10.0125 32.3744C10.0004 32.4656 9.97733 32.5591 9.97733 32.6526C9.97525 35.6089 9.9798 38.5653 9.9686 41.5216C9.96743 41.8231 10.1124 41.8946 10.3558 41.9677C14.6427 43.2537 18.9224 44.5641 23.2156 45.8282C24.1889 46.1148 25.1997 46.3457 26.2074 46.4274C27.9596 46.5696 29.6044 45.9799 31.2289 45.4122C36.3105 43.6361 41.3842 41.8371 46.4616 40.0485C46.8397 39.9153 47.2223 39.7946 47.6428 39.6548C47.562 39.4351 47.5137 39.2476 47.4277 39.0792C46.8497 37.9471 45.6281 37.4845 44.3074 37.8985C41.1508 38.8881 37.9991 39.8937 34.8357 40.8614C34.3379 41.0136 33.7838 41.0865 33.2656 41.0511C29.4256 40.789 25.5883 40.4906 21.7501 40.2024C21.2591 40.1656 20.8579 39.7895 20.8764 39.3912C20.8948 38.9941 21.3436 38.6575 21.8402 38.6946C23.9778 38.8548 26.1148 39.0246 28.2523 39.1867C29.0038 39.2437 29.7562 39.2885 30.5441 39.3412C30.5131 39.1001 30.5044 38.9377 30.4703 38.7808C30.0482 36.8352 28.3953 35.4635 26.3984 35.4317C25.0016 35.4095 23.6038 35.4085 22.207 35.435C21.6905 35.4447 21.2758 35.3003 20.8587 35.0013C17.609 32.6707 13.9325 32.0686 10.0125 32.3744ZM2.29855 29.8665C2.29855 34.5869 2.29855 39.2674 2.29855 43.9429C4.37511 43.9429 6.41144 43.9429 8.44556 43.9429C8.44556 39.2322 8.44556 34.5618 8.44556 29.8665C6.39295 29.8665 4.36847 29.8665 2.29855 29.8665Z" fill="black"/>
<path d="M31.0103 17.6569C31.6445 19.7408 32.2715 21.8016 32.899 23.8624C33.0642 24.4051 33.2384 24.9453 33.3956 25.4904C33.5796 26.1285 33.4314 26.6254 32.9861 26.9238C32.5523 27.2145 32.1671 27.1738 31.6026 26.7624C29.4259 25.175 27.251 23.585 25.0497 21.9771C24.89 22.0861 24.7299 22.1891 24.5766 22.3011C22.5046 23.8128 20.4355 25.3285 18.3608 26.8365C17.8779 27.1875 17.4547 27.1977 17.0559 26.9072C16.6618 26.6202 16.5029 26.1215 16.6422 25.6054C16.6676 25.5115 16.6971 25.4188 16.7271 25.3263C17.5057 22.9206 18.276 20.512 19.0728 18.1123C19.1913 17.7556 19.126 17.5797 18.8249 17.363C16.7824 15.8936 14.7557 14.4022 12.7246 12.9171C12.1267 12.4798 11.9298 12.0225 12.0974 11.4712C12.254 10.9556 12.7078 10.6955 13.466 10.6951C15.9835 10.6938 18.501 10.6878 21.0185 10.7022C21.3682 10.7042 21.525 10.6007 21.6329 10.2595C22.4009 7.83335 23.1913 5.41434 23.9762 2.99363C24.1862 2.34585 24.5633 2.01251 25.0872 2.00079C25.6215 1.98881 26.0193 2.32931 26.2417 3.00001C27.0479 5.43074 27.8635 7.85848 28.6452 10.2971C28.7695 10.6852 28.9424 10.7787 29.3253 10.7761C31.8102 10.7585 34.2952 10.7668 36.7802 10.7677C36.9424 10.7677 37.1081 10.7578 37.2661 10.7861C37.7346 10.8698 38.0799 11.124 38.2035 11.5965C38.3228 12.0524 38.1618 12.4275 37.7839 12.7055C37.0253 13.2633 36.2654 13.8192 35.5052 14.3746C34.0124 15.4652 32.5191 16.5552 31.0103 17.6569ZM14.5393 12.2142C14.5332 12.2494 14.5272 12.2845 14.5211 12.3198C16.4006 13.6827 18.2809 15.0448 20.1596 16.4087C20.8639 16.9201 20.9852 17.2948 20.718 18.1263C20.0432 20.2261 19.3664 22.3251 18.6926 24.4251C18.6579 24.5332 18.6428 24.6474 18.5975 24.8559C18.818 24.6975 18.949 24.6052 19.0781 24.5106C20.8208 23.2343 22.5629 21.9573 24.3059 20.6815C25.0138 20.1633 25.2816 20.1607 26.0034 20.6886C27.7599 21.9732 29.5129 23.2628 31.2684 24.549C31.3875 24.6362 31.5147 24.7122 31.7229 24.8494C31.666 24.6464 31.6435 24.5548 31.6147 24.4654C30.9389 22.3659 30.2621 20.2669 29.5865 18.1675C29.2988 17.2737 29.4059 16.9442 30.1749 16.3789C31.8892 15.1189 33.6056 13.8617 35.3199 12.6017C35.4546 12.5027 35.5792 12.3902 35.7936 12.2142C35.515 12.2142 35.356 12.2142 35.197 12.2142C33.0358 12.2142 30.8747 12.2149 28.7135 12.2138C27.8674 12.2134 27.5495 11.9819 27.2901 11.1785C26.6375 9.15678 25.9867 7.13452 25.3336 5.11303C25.2734 4.92684 25.2014 4.74454 25.1044 4.47579C25.0283 4.69715 24.9844 4.81824 24.9448 4.94051C24.2749 7.0077 23.6061 9.07527 22.9355 11.1423C22.6555 12.0059 22.3643 12.2138 21.4421 12.2139C19.2971 12.2143 17.1522 12.2141 15.0073 12.2141C14.8514 12.2142 14.6953 12.2142 14.5393 12.2142Z" fill="black"/>
<path d="M9.1517 24.3131C8.05053 25.1018 6.98816 25.8763 5.90821 26.6255C5.67827 26.785 5.39077 26.9235 5.11863 26.9483C4.42202 27.0114 3.95691 26.4024 4.17084 25.7351C4.55678 24.5311 4.94988 23.329 5.37058 22.1368C5.49337 21.7889 5.4547 21.5954 5.13686 21.378C4.13243 20.6906 3.15353 19.966 2.16472 19.2557C1.66498 18.8967 1.51225 18.5588 1.66512 18.1132C1.83673 17.6132 2.21798 17.4212 2.72189 17.4212C3.97254 17.4213 5.22332 17.4095 6.47371 17.4282C6.79181 17.433 6.9267 17.3254 7.01446 17.0274C7.35795 15.8613 7.72514 14.7022 8.08491 13.5408C8.29181 12.8731 8.5629 12.6093 9.04363 12.6022C9.52332 12.595 9.84923 12.8911 10.0689 13.544C10.4514 14.6811 10.8445 15.8149 11.2021 16.9599C11.3047 17.2884 11.4622 17.3763 11.7897 17.3712C13.0076 17.3523 14.2261 17.3755 15.444 17.3582C15.9576 17.3509 16.3399 17.5333 16.5378 18.0028C16.7289 18.4558 16.5242 18.9765 16.0529 19.3173C15.0926 20.0116 14.1372 20.7135 13.1583 21.3807C12.8414 21.5967 12.803 21.7832 12.9292 22.1337C13.3242 23.2317 13.6762 24.3453 14.0417 25.4539C14.2358 26.0425 14.1387 26.5114 13.7741 26.7854C13.4123 27.0573 12.9242 27.0136 12.4298 26.6603C11.3478 25.8869 10.2669 25.1118 9.1517 24.3131ZM9.131 15.6497C9.09402 15.6475 9.05704 15.6451 9.02006 15.6429C8.83686 16.2066 8.65235 16.7699 8.47045 17.3341C7.95118 18.9442 7.95157 18.9444 6.27566 18.9444C5.6728 18.9444 5.06993 18.9444 4.4672 18.9444C5.11889 19.513 5.77931 19.9819 6.43972 20.451C7.12501 20.9379 7.19246 21.1343 6.94662 21.9217C6.68816 22.7497 6.43022 23.578 6.13269 24.5328C6.95248 23.944 7.65899 23.4304 8.37202 22.9261C8.91537 22.5419 9.24728 22.5472 9.78699 22.9315C10.4957 23.436 11.2029 23.9427 12.0139 24.5222C11.7189 23.6054 11.4603 22.8097 11.2068 22.0123C10.9912 21.3343 11.1132 20.9685 11.6893 20.5393C12.3599 20.0398 13.0309 19.5408 13.7017 19.0418C12.8221 18.9445 11.9708 18.9463 11.1195 18.9438C10.4289 18.9419 10.1512 18.7476 9.93282 18.0966C9.65991 17.2828 9.3978 16.4655 9.131 15.6497Z" fill="black"/>
<path d="M44.8537 21.664C45.2562 22.8782 45.6529 24.0753 46.0501 25.2725C46.091 25.3955 46.1429 25.5156 46.175 25.6408C46.2893 26.0864 46.2181 26.5037 45.8376 26.7795C45.4453 27.0639 45.0177 27.0365 44.6157 26.7475C43.4963 25.9427 42.3753 25.1398 41.223 24.3132C40.1398 25.0889 39.0678 25.8699 37.9783 26.6257C37.7484 26.7852 37.4609 26.924 37.1888 26.9486C36.491 27.0119 36.0248 26.4031 36.2393 25.7354C36.6259 24.5315 37.0216 23.3302 37.4406 22.1372C37.561 21.7942 37.5298 21.5973 37.2088 21.3785C36.1899 20.6837 35.2002 19.9463 34.194 19.2328C33.8182 18.9662 33.5813 18.6496 33.7233 18.1647C33.8515 17.7266 34.2397 17.4318 34.7556 17.4264C35.9735 17.4134 37.192 17.4054 38.4095 17.4298C38.8098 17.4377 39.0029 17.3339 39.1173 16.923C39.4386 15.7679 39.8135 14.6277 40.1703 13.4826C40.3615 12.8687 40.6524 12.6044 41.125 12.6025C41.5752 12.6009 41.9235 12.896 42.1145 13.4617C42.5036 14.6132 42.8983 15.7631 43.2636 16.9222C43.3671 17.2506 43.5067 17.3809 43.8683 17.3735C45.0859 17.3488 46.3044 17.3756 47.5222 17.3588C48.0371 17.3518 48.4145 17.5411 48.6108 18.0109C48.7934 18.4483 48.6019 18.968 48.1552 19.2924C47.0664 20.083 45.9699 20.8632 44.8537 21.664ZM45.7682 19.0438C45.7559 19.0108 45.7437 18.9777 45.7315 18.9446C44.9546 18.9446 44.1779 18.9447 43.4011 18.9446C42.45 18.9443 42.2171 18.7742 41.9244 17.873C41.6828 17.1288 41.4384 16.3855 41.1871 15.6167C41.1093 15.6812 41.0733 15.6958 41.0653 15.7197C40.8582 16.3511 40.6536 16.9835 40.4492 17.6158C40.0346 18.8982 39.9714 18.9447 38.6375 18.9447C37.935 18.9447 37.2326 18.9447 36.3871 18.9447C37.1569 19.5346 37.7996 20.0249 38.4401 20.5183C39.1466 21.0626 39.1918 21.208 38.9226 22.0429C38.7635 22.5365 38.6003 23.0288 38.4441 23.5234C38.3554 23.8042 38.277 24.0885 38.194 24.3713C38.9657 23.9302 39.6416 23.429 40.3355 22.9542C40.5423 22.8128 40.7997 22.6653 41.0339 22.6654C41.3027 22.6656 41.6053 22.7756 41.8337 22.9274C42.5635 23.4128 43.2658 23.9397 44.0904 24.5305C43.7973 23.6303 43.551 22.8775 43.3072 22.1242C43.049 21.3264 43.1582 20.9861 43.8235 20.4917C44.4724 20.0096 45.1201 19.5264 45.7682 19.0438Z" fill="black"/>
</svg>
