<svg width="50" height="50" viewBox="0 0 50 50" fill="none" xmlns="http://www.w3.org/2000/svg">
<g clip-path="url(#clip0_296_1106)">
<path d="M0.000130137 42.0082C0.208594 41.1895 0.472656 40.4006 1.06302 39.7587C1.9125 38.835 2.96549 38.3705 4.21068 38.3765C4.46966 38.3777 4.73216 38.5315 4.98581 38.6328C6.5918 39.2742 8.23333 39.3509 9.81758 38.678C11.1486 38.1126 12.2566 38.4673 13.3111 39.2244C14.4098 40.0134 14.9345 41.1505 14.9599 42.4867C14.9921 44.173 15.001 45.8614 14.9555 47.5471C14.9232 48.7434 14.2747 49.5384 13.124 49.9065C13.0661 49.925 13.0164 49.9684 12.9629 50.0002C9.32422 50.0002 5.68542 50.0002 2.04675 50.0002C0.990365 49.6921 0.307943 49.01 0 47.9535C0.000130208 45.9717 0.000130137 43.9899 0.000130137 42.0082ZM7.47031 48.3403C9.06185 48.3403 10.6534 48.3438 12.2449 48.3388C12.9881 48.3364 13.2993 48.0476 13.3052 47.3179C13.3176 45.7589 13.312 44.1998 13.3074 42.6408C13.3049 41.8 13.0241 41.0709 12.337 40.5591C11.8365 40.1862 11.2975 39.8953 10.6279 40.1648C8.52799 41.01 6.42825 40.992 4.31953 40.1727C4.06992 40.0757 3.73997 40.0683 3.47891 40.1379C2.36302 40.4355 1.67344 41.3852 1.66354 42.6099C1.65104 44.1526 1.65768 45.6954 1.66133 47.2382C1.66328 48.0519 1.95898 48.3382 2.7931 48.3395C4.35221 48.3423 5.9112 48.3403 7.47031 48.3403Z" fill="black"/>
<path d="M36.9398 50.0003C36.313 49.7629 35.6825 49.49 35.3669 48.8676C35.1465 48.4327 34.9564 47.9268 34.9488 47.4495C34.9198 45.618 34.9134 43.7824 35.0058 41.9538C35.1053 39.9858 37.2056 38.2282 39.1707 38.3694C39.3268 38.3806 39.4841 38.4471 39.6303 38.5117C41.4829 39.3297 43.331 39.3279 45.1892 38.5197C45.987 38.1728 46.7639 38.4211 47.4815 38.763C49.0657 39.518 49.856 40.8293 49.8945 42.565C49.9306 44.1867 49.9152 45.8099 49.8984 47.4323C49.8841 48.8053 49.1054 49.5963 47.856 50.0001C44.2173 50.0003 40.5785 50.0003 36.9398 50.0003ZM42.4148 48.34C44.0064 48.34 45.5979 48.3436 47.1894 48.3383C47.8849 48.3359 48.2319 48.0406 48.2368 47.4021C48.2497 45.7457 48.2626 44.0887 48.2275 42.4329C48.2074 41.487 47.735 40.7598 46.8931 40.3141C46.4928 40.1022 46.0761 39.9523 45.5933 40.1496C43.482 41.0122 41.3649 40.9988 39.2405 40.168C39.0035 40.0753 38.6929 40.062 38.4452 40.1249C37.2871 40.4189 36.6084 41.3786 36.5965 42.7202C36.5832 44.2142 36.5896 45.7083 36.5946 47.2025C36.5976 48.0586 36.8825 48.3381 37.7376 48.3393C39.2967 48.3417 40.8557 48.3401 42.4148 48.34Z" fill="black"/>
<path d="M24.9545 22.5484C23.3799 22.5486 21.8053 22.5539 20.2307 22.5471C18.4619 22.5395 17.4519 21.5314 17.461 19.7591C17.4701 17.9911 17.4386 16.2189 17.5518 14.4566C17.677 12.5051 19.7058 10.8152 21.6628 10.9255C21.9244 10.9402 22.1816 11.0875 22.4348 11.1883C24.0934 11.8482 25.7749 11.9086 27.4074 11.1879C28.364 10.7655 29.221 10.9324 30.0626 11.3421C31.6631 12.1211 32.4114 13.4729 32.4396 15.2233C32.4648 16.7813 32.4562 18.3401 32.4419 19.8983C32.4271 21.4906 31.4153 22.5023 29.8245 22.5474C29.7921 22.5483 29.7596 22.5482 29.7271 22.5482C28.1363 22.5483 26.5454 22.5483 24.9545 22.5484ZM24.933 20.8831C26.5391 20.8831 28.1452 20.8882 29.7512 20.8807C30.4592 20.8775 30.7709 20.58 30.776 19.8809C30.7874 18.3073 30.7872 16.7336 30.7757 15.16C30.7697 14.3408 30.489 13.6195 29.8166 13.1232C29.3221 12.7581 28.7909 12.437 28.1167 12.7111C26.0041 13.5699 23.8899 13.5604 21.7705 12.7165C21.5619 12.6335 21.2942 12.6134 21.0738 12.6592C19.8907 12.9051 19.1393 13.8923 19.1262 15.2208C19.1114 16.7457 19.1184 18.2708 19.1241 19.7957C19.1271 20.5938 19.4143 20.8792 20.212 20.8818C21.7856 20.8867 23.3593 20.8832 24.933 20.8831Z" fill="black"/>
<path d="M15.4948 7.45962C14.9232 7.19569 14.4193 6.9729 13.9245 6.73163C13.4199 6.48566 13.2286 6.05728 13.4087 5.62512C13.5984 5.16952 14.0686 4.99244 14.5934 5.22303C15.6474 5.68606 16.697 6.16014 17.7374 6.65324C18.2742 6.90767 18.4257 7.32069 18.1757 7.86314C17.653 8.99712 17.1117 10.1229 16.5565 11.2414C16.3305 11.6967 15.8576 11.8463 15.4448 11.6495C15.0402 11.4565 14.8831 11.0016 15.0793 10.5217C15.2302 10.1529 15.4102 9.79595 15.6242 9.33137C14.132 10.2048 12.8797 11.1962 11.7744 12.3635C8.61302 15.7021 6.90664 19.6706 6.6806 24.2686C6.66862 24.512 6.66354 24.7558 6.6444 24.9986C6.60065 25.5551 6.27969 25.8766 5.79232 25.8612C5.31927 25.8463 4.98451 25.4914 4.99232 24.941C5.00131 24.3083 5.02982 23.6732 5.09948 23.0445C5.68164 17.7975 7.93672 13.4068 11.9345 9.95455C12.8988 9.12186 14.0138 8.46379 15.0611 7.72746C15.1785 7.64491 15.3055 7.5759 15.4948 7.45962Z" fill="black"/>
<path d="M44.8521 23.1305C45.2404 22.7329 45.5596 22.3896 45.8969 22.0651C46.3234 21.6551 46.7985 21.6268 47.1501 21.9698C47.493 22.3044 47.4786 22.8135 47.0774 23.2249C46.3062 24.0155 45.5265 24.7982 44.7344 25.568C44.3182 25.9727 43.8538 25.9754 43.4405 25.5742C42.6364 24.7936 41.8435 24.0009 41.0624 23.1973C40.6797 22.8036 40.6816 22.3104 41.021 21.9794C41.3658 21.6434 41.8282 21.6551 42.2387 22.0389C42.4967 22.2802 42.7244 22.5539 42.9655 22.8131C43.0135 22.7894 43.0613 22.7657 43.1092 22.7421C42.9584 21.9792 42.8566 21.2026 42.6493 20.4555C41.1107 14.9086 37.7494 10.8799 32.5433 8.40312C32.3822 8.32643 32.215 8.25937 32.0633 8.16718C31.645 7.91314 31.5058 7.48489 31.6986 7.08385C31.8891 6.68775 32.3351 6.49296 32.7736 6.69622C33.5968 7.07786 34.4318 7.45221 35.2021 7.92656C39.9801 10.8684 43.0532 15.0678 44.3731 20.5288C44.5704 21.3445 44.6799 22.1814 44.8521 23.1305Z" fill="black"/>
<path d="M24.9325 10.0672C22.1841 10.0542 19.9662 7.81971 19.9717 5.06906C19.9772 2.3369 22.2343 0.0919767 24.9686 0.0991382C27.6977 0.1063 29.9378 2.3658 29.9305 5.10396C29.9234 7.84614 27.6736 10.0803 24.9325 10.0672ZM24.8809 8.39836C26.7078 8.44028 28.2204 6.99797 28.2664 5.17049C28.3124 3.33612 26.8416 1.80265 24.9971 1.76203C23.202 1.72258 21.6674 3.21411 21.635 5.03C21.6024 6.85669 23.0476 8.35643 24.8809 8.39836Z" fill="black"/>
<path d="M7.50449 27.5552C10.2415 27.5671 12.4774 29.8163 12.4743 32.5544C12.4712 35.266 10.1876 37.5324 7.46725 37.5236C4.73808 37.5147 2.49238 35.2487 2.50592 32.5171C2.51946 29.7688 4.76139 27.5434 7.50449 27.5552ZM7.47545 29.2218C5.64303 29.2279 4.17376 30.7007 4.17272 32.5324C4.17167 34.3527 5.65319 35.8481 7.47063 35.8608C9.28886 35.8736 10.8313 34.3275 10.8118 32.512C10.7922 30.6922 9.29498 29.2156 7.47545 29.2218Z" fill="black"/>
<path d="M42.4337 27.5547C45.1796 27.5671 47.4089 29.8133 47.3961 32.5546C47.3834 35.292 45.1306 37.5313 42.3974 37.5232C39.6796 37.5153 37.4192 35.2381 37.4278 32.5166C37.4364 29.7874 39.7015 27.5424 42.4337 27.5547ZM45.7297 32.5277C45.7257 30.6946 44.2554 29.2248 42.4224 29.2215C40.6022 29.2183 39.1063 30.6977 39.0906 32.5162C39.075 34.3333 40.6196 35.8773 42.4362 35.8606C44.255 35.8439 45.7336 34.3474 45.7297 32.5277Z" fill="black"/>
<path d="M20.4616 42.6725C24.1848 43.6518 27.8357 43.4853 31.4229 42.1478C31.6656 42.0574 31.9083 41.9637 32.1572 41.8933C32.6249 41.7609 33.0407 41.9519 33.201 42.3559C33.369 42.7792 33.1823 43.2376 32.7137 43.4337C32.1613 43.6648 31.5993 43.8796 31.0277 44.0572C27.2954 45.2163 23.5363 45.3199 19.7535 44.3118C19.6443 44.2826 19.5329 44.2607 19.4215 44.2413C19.3934 44.2364 19.3612 44.2538 19.2635 44.2769C19.4415 44.6275 19.6157 44.9622 19.782 45.3008C20.0547 45.856 19.9501 46.336 19.5122 46.5672C19.0633 46.8044 18.6129 46.6313 18.3176 46.0792C17.8053 45.1215 17.2984 44.1606 16.8073 43.1919C16.4638 42.5145 16.6775 42.035 17.4146 41.8105C18.4066 41.5084 19.4021 41.2171 20.4001 40.9356C21.0012 40.7661 21.4279 40.9672 21.5793 41.459C21.7254 41.9338 21.4629 42.3193 20.854 42.5273C20.7219 42.5723 20.5922 42.6239 20.4616 42.6725Z" fill="black"/>
</g>
<defs>
<clipPath id="clip0_296_1106">
<rect width="50" height="50" fill="white"/>
</clipPath>
</defs>
</svg>
