<svg width="50" height="50" viewBox="0 0 50 50" fill="none" xmlns="http://www.w3.org/2000/svg">
<g clip-path="url(#clip0_296_1095)">
<path d="M30.4731 37.8088C29.9517 38.9573 29.1876 39.771 27.9335 39.96C27.0238 40.0971 26.1503 39.8866 25.329 39.5044C24.7198 39.2209 24.1201 38.9054 23.5543 38.5444C23.2385 38.343 23.0599 38.3588 22.7814 38.6024C21.6378 39.6023 20.3516 39.7913 19.1516 39.064C18.6978 38.7888 18.3318 38.3304 18.0076 37.8945C17.8199 37.6423 17.6858 37.5388 17.3698 37.5829C16.5655 37.6948 15.7416 37.6451 15.0975 37.1324C14.6437 36.7712 14.3482 36.2133 13.9702 35.7527C13.8677 35.6279 13.7307 35.4581 13.5958 35.4444C11.9012 35.2733 10.8206 34.4171 10.4668 32.7159C10.4607 32.6863 10.4288 32.6621 10.4086 32.6356C7.2774 32.3597 6.40094 30.7663 7.6646 27.5352C6.64943 28.3089 5.7193 28.1389 4.76361 27.4833C3.66611 26.7304 2.52304 26.0441 1.40202 25.3252C0.19244 24.5494 -0.0590207 23.4554 0.703878 22.2582C3.34881 18.1068 5.99617 13.9568 8.64516 9.80802C9.41347 8.6048 10.5092 8.3651 11.7151 9.13003C12.8823 9.87035 14.0356 10.6332 15.2164 11.3511C16.1994 11.9487 16.6377 12.7558 16.3401 13.9646C17.0416 14.1525 17.7433 14.1379 18.4321 14.0084C19.5239 13.803 20.6024 13.5275 21.6927 13.3136C22.6497 13.1259 23.6928 12.9768 24.4605 13.6523C25.1012 14.2159 25.5388 14.0582 26.1586 13.7487C27.3684 13.1443 28.641 12.7481 30.0081 13.1758C30.4714 13.3208 30.9105 13.5461 31.3547 13.748C32.0533 14.0654 32.7708 14.2667 33.572 14.1801C33.572 14.0661 33.5815 13.9696 33.5706 13.8756C33.4731 13.0423 33.7652 12.3767 34.4645 11.921C35.7918 11.0557 37.1243 10.1979 38.4704 9.36243C39.4507 8.75405 40.5933 9.00024 41.2167 9.97229C43.9559 14.2435 46.6846 18.5215 49.4017 22.8068C50.0058 23.7593 49.7554 24.8982 48.816 25.5198C47.4806 26.4035 46.1275 27.2606 44.7681 28.1069C44.0236 28.5705 43.4446 28.5248 42.4462 28.0085C43.4196 30.9591 41.4395 33.1248 38.3875 32.8993C38.3532 32.9994 38.3133 33.1066 38.2794 33.2157C37.82 34.6925 36.8685 35.3998 35.3238 35.3972C35.0623 35.3968 34.873 35.3902 34.7397 35.7094C33.9138 37.6863 32.7862 38.2704 30.7049 37.8461C30.641 37.8336 30.5762 37.8254 30.4731 37.8088ZM23.93 14.9999C23.535 14.6112 23.0725 14.5425 22.6003 14.6173C21.886 14.7304 21.1756 14.8767 20.4711 15.0408C18.9219 15.4018 17.3771 15.746 15.7796 15.311C15.6724 15.2817 15.4604 15.3954 15.3912 15.5032C13.3957 18.6089 11.4097 21.7206 9.43658 24.8405C9.36033 24.9611 9.42685 25.1718 9.42685 25.3407C10.2375 24.6581 11.0451 24.2973 12.0186 24.3999C12.9766 24.5009 13.7045 25.0184 14.2671 25.753C16.9558 24.401 18.7759 25.003 19.7023 27.5357C19.8746 27.5357 20.0588 27.5315 20.2426 27.5364C22.262 27.5892 23.4817 29.0597 23.1225 31.0541C23.0494 31.4602 23.1186 31.6301 23.5111 31.8007C25.1884 32.5296 25.7023 33.8053 25.0105 35.5043C24.7709 36.0928 24.4355 36.6424 24.1298 37.2372C24.9436 37.79 25.8172 38.2871 26.8187 38.518C27.8204 38.749 28.5487 38.413 29.0301 37.5411C29.1884 37.2544 29.1769 37.0819 28.8831 36.8822C27.9631 36.2567 27.0604 35.6053 26.16 34.9516C25.7122 34.6264 25.6556 34.106 26.0185 33.7942C26.3626 33.4987 26.6957 33.5947 27.0296 33.8341C28.0845 34.5907 29.1113 35.3934 30.2106 36.0797C31.5585 36.9211 32.8198 36.7996 33.4045 35.296C33.527 34.981 33.4746 34.8275 33.1935 34.6473C31.5617 33.601 29.9424 32.5356 28.3199 31.4747C28.1854 31.3867 28.0599 31.285 27.9165 31.1796C28.1792 30.7806 28.4182 30.4174 28.6738 30.0288C28.8566 30.1431 29.0124 30.2372 29.1646 30.3364C30.9016 31.4684 32.6346 32.6064 34.376 33.7316C35.345 34.3577 36.6143 33.9079 36.9207 32.856C37.0175 32.5237 36.9535 32.321 36.6411 32.1131C34.3675 30.6003 32.1098 29.0638 29.8476 27.5337C29.7082 27.4395 29.5577 27.3532 29.4415 27.2346C29.1697 26.9575 29.1369 26.6292 29.3628 26.3179C29.5723 26.029 29.8711 25.9323 30.2109 26.0966C30.3615 26.1694 30.5013 26.2664 30.6406 26.3605C32.918 27.8979 35.2065 29.4194 37.465 30.9842C38.3036 31.5653 39.1606 31.5876 40.0534 31.2638C41.2516 30.8292 41.6838 29.3676 40.9056 28.352C40.6142 27.9716 40.221 27.6564 39.8344 27.3644C39.2836 26.9486 38.6951 26.5825 38.124 26.1932C36.1882 24.8737 34.2832 23.5057 32.3046 22.2538C31.3182 21.6298 30.2034 21.2055 29.135 20.7167C28.7537 20.5423 28.4135 20.6531 28.0739 20.9391C26.653 22.1357 25.1631 23.2407 23.4843 24.0576C22.6018 24.4871 21.6889 24.8348 20.679 24.7987C19.5491 24.7584 18.8089 24.1063 18.666 22.987C18.5574 22.1373 18.8166 21.3494 19.1669 20.5935C19.9311 18.9443 21.0938 17.5932 22.4004 16.3573C22.8869 15.8971 23.4016 15.4671 23.93 14.9999ZM48.3512 23.9009C48.246 23.6842 48.188 23.5268 48.1 23.3885C45.448 19.2244 42.7943 15.0615 40.1373 10.9007C39.8072 10.3837 39.5718 10.3365 39.0521 10.6666C37.8574 11.4253 36.6653 12.1878 35.4733 12.9507C34.8531 13.3477 34.8142 13.539 35.2217 14.1783C36.1995 15.7129 37.179 17.2467 38.1577 18.7808C39.8069 21.3661 41.4549 23.9523 43.106 26.5364C43.4281 27.0404 43.6617 27.1268 44.093 26.8565C45.392 26.0424 46.6848 25.2175 47.9684 24.3793C48.1311 24.2729 48.2257 24.0622 48.3512 23.9009ZM6.3201 26.7063C6.49788 26.5507 6.72351 26.4262 6.84587 26.2354C9.51838 22.0651 12.1805 17.8881 14.8408 13.7101C15.1527 13.2203 15.0961 12.9695 14.6109 12.658C13.3776 11.8662 12.1414 11.079 10.9019 10.2967C10.4154 9.98972 10.1761 10.0453 9.86069 10.5394C7.20467 14.7003 4.55122 18.8626 1.89967 23.0263C1.56763 23.5476 1.61725 23.7764 2.13288 24.1077C3.35165 24.8912 4.57407 25.6686 5.79771 26.4443C5.93628 26.5322 6.09175 26.593 6.3201 26.7063ZM40.9694 25.8267C38.8405 22.4868 36.7241 19.1588 34.5886 15.8431C34.501 15.7071 34.231 15.6126 34.0532 15.6231C32.8136 15.6961 31.6209 15.5301 30.5329 14.9133C29.4033 14.2732 28.2946 14.3349 27.1437 14.8413C24.271 16.1053 22.1668 18.1987 20.6241 20.8843C20.3535 21.3553 20.1981 21.9116 20.0838 22.4486C19.9421 23.1139 20.2383 23.4677 20.8989 23.3638C21.5533 23.2607 22.2132 23.0619 22.8158 22.7855C24.4366 22.0421 25.8557 20.9745 27.1998 19.8183C27.8711 19.2409 28.5908 19.0876 29.4055 19.323C29.9372 19.4765 30.4881 19.625 30.9662 19.8913C32.2893 20.6284 33.6104 21.3782 34.8741 22.2114C36.7034 23.4174 38.4836 24.6979 40.2789 25.9552C40.548 26.1433 40.761 26.1838 40.9694 25.8267ZM16.5121 26.4759C15.8285 26.5569 14.9659 26.6684 14.6276 27.4918C13.9992 29.0212 13.1341 30.3874 12.0983 31.6556C11.8576 31.9503 11.8006 32.2215 11.8943 32.5788C12.1355 33.4992 12.7095 33.982 13.7136 34.0057C13.9053 34.0101 14.1744 33.8933 14.2837 33.7426C15.5669 31.972 16.8322 30.1882 18.0829 28.3945C18.2012 28.2248 18.2537 27.9562 18.2267 27.7474C18.1198 26.913 17.5477 26.4761 16.5121 26.4759ZM20.0402 28.8438C19.7628 28.9885 19.3894 29.0626 19.2234 29.2889C17.9276 31.0557 16.6653 32.8475 15.4144 34.6466C15.3039 34.8058 15.2764 35.094 15.334 35.285C15.481 35.7732 15.8417 36.0751 16.3577 36.1425C16.9375 36.2183 17.6084 36.379 18.0294 35.903C19.1903 34.5901 20.3102 33.2367 21.373 31.8434C21.8489 31.2196 21.9256 30.4212 21.5977 29.6775C21.3196 29.0473 20.7009 28.9799 20.0402 28.8438ZM10.0249 31.2633C10.2971 31.1659 10.6621 31.1485 10.8262 30.958C11.7742 29.8575 12.6131 28.6761 13.1541 27.3129C13.2169 27.1547 13.2551 26.9395 13.1998 26.7894C12.8336 25.7969 11.4777 25.4768 10.7359 26.2182C10.2002 26.7536 9.67588 27.3097 9.21973 27.9121C8.92231 28.3048 8.66652 28.7749 8.54931 29.2492C8.26337 30.4052 8.89216 31.1995 10.0249 31.2633ZM20.7618 38.1484C21.0753 37.9908 21.4142 37.8801 21.6808 37.6752C22.5936 36.9744 23.2531 36.066 23.6938 35.0061C24.1108 34.0035 23.8803 33.5002 22.8817 33.0455C22.5373 32.8887 22.3269 32.9153 22.0791 33.2289C21.234 34.2982 20.3548 35.3406 19.4899 36.3943C19.0367 36.9463 19.0714 37.3352 19.6841 37.7296C19.983 37.922 20.3577 37.9966 20.7618 38.1484Z" fill="black"/>
<path d="M26.9353 46.1214C26.9353 47.1321 26.9401 48.1428 26.9333 49.1534C26.9296 49.6931 26.6501 50.0116 26.2165 49.9997C25.8047 49.9884 25.5244 49.6763 25.5225 49.1691C25.5147 47.1309 25.5144 45.0927 25.5228 43.0545C25.5248 42.5503 25.8138 42.2362 26.226 42.2296C26.6501 42.2228 26.9305 42.5527 26.9336 43.0894C26.9397 44.1 26.9353 45.1107 26.9353 46.1214Z" fill="black"/>
<path d="M34.9894 7.99102C34.2607 8.004 33.9327 7.442 34.2127 6.91515C34.5284 6.32097 34.8792 5.74531 35.2155 5.16209C35.8967 3.98103 36.576 2.79904 37.2608 1.62001C37.5583 1.10763 37.9369 0.957427 38.3299 1.18009C38.7179 1.39992 38.7807 1.81428 38.4875 2.32451C37.4978 4.04647 36.5111 5.77032 35.5019 7.4808C35.3626 7.71711 35.1023 7.88178 34.9894 7.99102Z" fill="black"/>
<path d="M27.0723 3.88876C27.0726 4.8823 27.0784 5.87598 27.0703 6.86952C27.0656 7.44842 26.7847 7.78464 26.3454 7.77234C25.9217 7.76044 25.6608 7.44166 25.659 6.88479C25.6528 4.88082 25.6525 2.8767 25.6593 0.872726C25.6612 0.315592 25.9248 0.00464652 26.3554 4.99299e-05C26.7876 -0.00454666 27.0633 0.308427 27.069 0.857584C27.0796 1.86789 27.0721 2.87832 27.0723 3.88876Z" fill="black"/>
<path d="M34.9258 41.2979C35.029 41.374 35.2919 41.4752 35.4041 41.6654C36.4743 43.4791 37.5233 45.3053 38.5677 47.134C38.7794 47.5047 38.7183 47.8584 38.3504 48.1082C38.0222 48.331 37.58 48.2226 37.3528 47.8333C36.2916 46.0144 35.2358 44.1921 34.2001 42.3586C33.9201 41.8631 34.2526 41.3097 34.9258 41.2979Z" fill="black"/>
<path d="M14.7589 48.9028C14.0439 48.892 13.7516 48.35 14.0464 47.8022C14.4048 47.1362 14.7965 46.4879 15.1742 45.8324C15.8208 44.7106 16.4623 43.5857 17.1172 42.4688C17.4187 41.9546 17.9664 41.8209 18.2666 42.2233C18.4152 42.4224 18.5012 42.8376 18.3936 43.0324C17.3692 44.8866 16.3044 46.7187 15.228 48.5434C15.1168 48.7322 14.855 48.8321 14.7589 48.9028Z" fill="black"/>
<path d="M17.6385 8.70017C17.5375 8.61446 17.2817 8.48657 17.1598 8.27972C16.1081 6.49638 15.0758 4.70168 14.0494 2.9036C13.8155 2.49383 13.9203 2.09231 14.2651 1.88884C14.6104 1.68524 15.0278 1.78866 15.2598 2.1864C16.3116 3.98921 17.3576 5.79553 18.3871 7.61105C18.6819 8.13101 18.3508 8.70288 17.6385 8.70017Z" fill="black"/>
</g>
<defs>
<clipPath id="clip0_296_1095">
<rect width="50" height="50" fill="white"/>
</clipPath>
</defs>
</svg>
