<svg width="34" height="34" viewBox="0 0 34 34" fill="none" xmlns="http://www.w3.org/2000/svg">
<g clip-path="url(#clip0_650_315)">
<path d="M15.9307 26.3463V19.7123C15.9307 17.8505 14.744 16.2041 12.9778 15.6155C12.9705 15.6131 11.7583 15.241 11.7583 15.241C11.2655 15.0898 10.742 15.3509 10.5657 15.8345L9.2273 19.5067C9.2273 19.5067 8.76424 17.4675 8.7481 17.4307L9.54967 16.0425C9.66152 15.8489 9.66163 15.6102 9.54967 15.4165C9.43783 15.2228 9.23131 15.1035 9.00762 15.1035H7.34505C7.12148 15.1035 6.91485 15.2228 6.803 15.4165C6.69104 15.6102 6.69116 15.8489 6.803 16.0425L7.60458 17.4307C7.58832 17.4675 7.12526 19.5067 7.12526 19.5067L5.78689 15.8345C5.61048 15.3509 5.0864 15.0893 4.59426 15.241C4.59426 15.241 3.38216 15.6129 3.37484 15.6155C1.60856 16.2042 0.421875 17.8505 0.421875 19.7123V26.3463C0.421875 26.8806 0.854946 27.3136 1.38922 27.3136H14.9633C15.4975 27.3136 15.9307 26.8806 15.9307 26.3463ZM2.35667 25.379V19.7124C2.35667 18.6884 3.00713 17.7822 3.97654 17.4543L4.28368 17.3601L7.20631 25.379H2.35667ZM13.9959 25.379H9.14625L12.0689 17.3601L12.376 17.4543C13.3454 17.7821 13.9959 18.6882 13.9959 19.7124V25.379Z" fill="white"/>
<path d="M8.17722 14.3052C10.5818 14.3052 12.5382 12.3489 12.5382 9.94431C12.5382 7.53981 10.5818 5.5835 8.17722 5.5835C5.77272 5.5835 3.81641 7.53981 3.81641 9.94431C3.81641 12.3489 5.77272 14.3052 8.17722 14.3052ZM8.17722 7.51829C9.51501 7.51829 10.6034 8.60652 10.6034 9.94443C10.6034 11.2823 9.51501 12.3706 8.17722 12.3706C6.83943 12.3706 5.75109 11.2822 5.75109 9.94443C5.75109 8.60663 6.83943 7.51829 8.17722 7.51829Z" fill="white"/>
<path d="M30.6224 15.6155C30.615 15.6131 29.4028 15.241 29.4028 15.241C28.9101 15.0898 28.3865 15.3509 28.2102 15.8345L26.8718 19.5067C26.8718 19.5067 26.4088 17.4675 26.3925 17.4307L27.1941 16.0425C27.3059 15.8489 27.3061 15.6102 27.1941 15.4165C27.0822 15.2228 26.8757 15.1035 26.652 15.1035H24.9896C24.766 15.1035 24.5594 15.2228 24.4475 15.4165C24.3356 15.6102 24.3357 15.8489 24.4475 16.0425L25.2491 17.4307C25.2329 17.4675 24.7698 19.5067 24.7698 19.5067L23.4314 15.8345C23.2551 15.3509 22.7307 15.0893 22.2388 15.241C22.2388 15.241 21.0267 15.6129 21.0194 15.6155C19.2531 16.2042 18.0664 17.8505 18.0664 19.7123V26.3463C18.0664 26.8806 18.4995 27.3136 19.0337 27.3136H32.6078C33.142 27.3136 33.5751 26.8806 33.5751 26.3463V19.7123C33.5753 17.8506 32.3886 16.2042 30.6224 15.6155ZM20.0013 25.379V19.7124C20.0013 18.6884 20.6518 17.7822 21.6212 17.4543L21.9283 17.3601L24.851 25.379H20.0013ZM31.6405 25.379H26.7908L29.7134 17.3601L30.0206 17.4543C30.99 17.7821 31.6404 18.6882 31.6404 19.7124V25.379H31.6405Z" fill="white"/>
<path d="M21.4609 9.94431C21.4609 12.3489 23.4173 14.3052 25.8218 14.3052C28.2264 14.3052 30.1827 12.3489 30.1827 9.94431C30.1827 7.53981 28.2264 5.5835 25.8218 5.5835C23.4173 5.5835 21.4609 7.53981 21.4609 9.94431ZM25.8218 7.51829C27.1595 7.51829 28.2479 8.60652 28.2479 9.94443C28.2479 11.2823 27.1595 12.3706 25.8218 12.3706C24.484 12.3706 23.3956 11.2822 23.3956 9.94443C23.3956 8.60663 24.484 7.51829 25.8218 7.51829Z" fill="white"/>
<path d="M10.6521 4.49109C11.0271 4.77706 11.5624 4.70516 11.8485 4.33048C13.1209 2.66322 15.0509 1.7071 17.1433 1.7071C18.6365 1.7071 20.0454 2.19615 21.1931 3.08084C20.8419 3.18661 20.586 3.51219 20.586 3.89787C20.586 4.36929 20.9682 4.75141 21.4396 4.75141H23.3174C23.7888 4.75141 24.1709 4.36929 24.1709 3.89787V2.02008C24.1709 1.54866 23.7888 1.16653 23.3174 1.16653C22.8821 1.16653 22.5238 1.49245 22.4712 1.91339C20.9885 0.681832 19.1242 0 17.1433 0C14.5141 0 12.0896 1.20088 10.4915 3.29468C10.2055 3.66937 10.2774 4.20501 10.6521 4.49109Z" fill="white"/>
<path d="M23.8352 29.5089C23.4602 29.2228 22.9249 29.2948 22.6388 29.6695C21.3664 31.3367 19.4364 32.2929 17.344 32.2929C15.8509 32.2929 14.442 31.8038 13.2942 30.9191C13.6454 30.8133 13.9013 30.4878 13.9013 30.1021C13.9013 29.6307 13.5192 29.2485 13.0477 29.2485H11.17C10.6985 29.2485 10.3164 29.6307 10.3164 30.1021V31.9799C10.3164 32.4513 10.6985 32.8334 11.17 32.8334C11.6052 32.8334 11.9635 32.5075 12.0162 32.0866C13.4987 33.3181 15.3632 33.9999 17.344 33.9999C19.9732 33.9999 22.3977 32.7991 23.9959 30.7053C24.2818 30.3306 24.2099 29.7949 23.8352 29.5089Z" fill="white"/>
</g>
<defs>
<clipPath id="clip0_650_315">
<rect width="34" height="34" fill="white"/>
</clipPath>
</defs>
</svg>
