<svg width="18" height="22" viewBox="0 0 18 22" fill="none">
    <path d="M9.00224 0C6.71084 0.00270323 4.51406 0.914156 2.8938 2.53442C1.27354 4.15468 0.362084 6.35146 0.35938 8.64286C0.357274 10.5153 0.968865 12.3368 2.10052 13.8286C2.10052 13.8286 2.33624 14.1389 2.37474 14.1837L9.00224 22L15.6329 14.1798C15.6675 14.1381 15.904 13.8286 15.904 13.8286L15.9047 13.8262C17.0356 12.335 17.6469 10.5144 17.6451 8.64286C17.6424 6.35146 16.7309 4.15468 15.1107 2.53442C13.4904 0.914156 11.2936 0.00270323 9.00224 0ZM9.00224 11.7857C8.38064 11.7857 7.773 11.6014 7.25616 11.256C6.73932 10.9107 6.33649 10.4199 6.09862 9.84558C5.86074 9.27129 5.7985 8.63937 5.91977 8.02972C6.04104 7.42006 6.34036 6.86006 6.7799 6.42052C7.21944 5.98098 7.77944 5.68166 8.3891 5.56039C8.99875 5.43912 9.63067 5.50136 10.205 5.73924C10.7792 5.97711 11.2701 6.37994 11.6154 6.89678C11.9608 7.41362 12.1451 8.02126 12.1451 8.64286C12.1441 9.47608 11.8126 10.2749 11.2234 10.864C10.6342 11.4532 9.83546 11.7847 9.00224 11.7857Z" fill="currentColor"></path>
</svg>