<svg width="46" height="46" viewBox="0 0 46 46" fill="none" xmlns="http://www.w3.org/2000/svg">
<path d="M3.85346 45.955C3.07729 45.5971 2.85335 44.9811 2.85548 44.1488C2.87613 36.3692 2.8676 28.5896 2.86771 20.81C2.86771 19.5391 3.32592 19.0766 4.58475 19.0765C7.03397 19.0762 9.4833 19.0883 11.9325 19.0724C13.7221 19.0607 15.0803 19.7624 15.9022 21.3849C16.0288 21.6347 16.1688 21.5901 16.3711 21.5244C17.7313 21.0834 18.8278 20.2437 19.7856 19.2201C21.9051 16.9547 23.2416 14.2755 23.9188 11.2567C24.059 10.6314 24.2162 10.0095 24.3803 9.38997C24.5851 8.61684 25.0664 8.24996 25.8719 8.23593C27.0685 8.21495 28.265 8.19386 29.3729 8.76527C31.3054 9.7619 32.3516 11.3456 32.4293 13.5157C32.5251 16.1892 32.1698 18.8147 31.4462 21.3901C31.422 21.4762 31.395 21.5616 31.3757 21.6486C31.37 21.6746 31.386 21.7053 31.3987 21.7644C32.2122 21.7644 33.0323 21.7644 33.8522 21.7644C35.5846 21.7644 37.3171 21.7532 39.0494 21.7676C41.0082 21.7838 42.4985 22.898 43.0303 24.755C43.3758 25.9611 43.1593 27.0944 42.4294 28.1102C42.2362 28.379 42.1919 28.5464 42.4107 28.8351C43.4444 30.1993 43.438 32.1376 42.4178 33.51C42.254 33.7304 42.1689 33.8837 42.3725 34.1603C43.9863 36.3523 43.0842 39.3627 40.5445 40.318C40.4488 40.354 40.3548 40.3943 40.3528 40.3951C40.3845 41.1268 40.4962 41.8107 40.4273 42.4757C40.2467 44.218 38.8699 45.5959 37.1269 45.8845C37.0559 45.8962 36.9886 45.931 36.9196 45.955C32.6482 45.955 28.3768 45.955 24.1054 45.955C23.9759 45.9262 23.8471 45.8943 23.7169 45.869C22.8567 45.7015 21.9768 45.6014 21.14 45.3549C19.5146 44.8759 17.9102 44.3237 16.3044 43.7801C16.004 43.6785 15.8645 43.7259 15.7087 44.0042C15.3521 44.641 14.8362 45.14 14.1783 45.4603C13.7701 45.659 13.3299 45.7924 12.904 45.9552C9.8872 45.955 6.87027 45.955 3.85346 45.955ZM26.7682 10.9527C26.7122 11.1653 26.6559 11.35 26.6154 11.5381C25.9163 14.7882 24.5724 17.7335 22.4289 20.2887C20.8556 22.1643 19.0199 23.6758 16.5676 24.2571C16.2887 24.3231 16.3085 24.4853 16.3085 24.6817C16.3092 29.9826 16.3117 35.2836 16.3021 40.5845C16.3015 40.8788 16.4023 40.9949 16.6706 41.0822C18.2161 41.5846 19.7534 42.1119 21.2977 42.6184C22.5242 43.0206 23.783 43.2603 25.0773 43.2625C28.8408 43.2687 32.6044 43.2689 36.3678 43.2648C37.1909 43.2639 37.7778 42.7285 37.811 41.981C37.8442 41.2349 37.2969 40.6574 36.4833 40.5801C35.6575 40.5016 35.1115 39.9452 35.1307 39.2017C35.1504 38.4367 35.7455 37.8999 36.5958 37.893C37.4023 37.8865 38.2087 37.8956 39.0152 37.8902C39.892 37.8844 40.4949 37.3387 40.5004 36.5566C40.5059 35.7728 39.9029 35.212 39.0332 35.2051C38.2268 35.1987 37.4203 35.2078 36.6139 35.2023C35.7379 35.1963 35.1349 34.6489 35.1307 33.8666C35.1264 33.0832 35.7298 32.5239 36.5998 32.5171C37.4063 32.5108 38.2128 32.5199 39.0192 32.5143C39.8943 32.5082 40.4974 31.959 40.5004 31.1766C40.5035 30.3935 39.9001 29.8357 39.0292 29.8291C38.2078 29.8228 37.3863 29.8343 36.5651 29.8255C35.7276 29.8167 35.1325 29.2537 35.1307 28.4867C35.1289 27.7191 35.7236 27.152 36.5591 27.1419C37.3058 27.1328 38.0525 27.14 38.7993 27.1397C39.8763 27.1392 40.4999 26.6468 40.5005 25.7967C40.5012 24.9483 39.8747 24.4519 38.8013 24.4519C34.4853 24.4517 30.1693 24.4537 25.8532 24.4501C24.9807 24.4495 24.3773 23.8901 24.3776 23.1073C24.378 22.3246 24.9814 21.7719 25.8545 21.7653C26.6011 21.7596 27.3482 21.7514 28.0944 21.7705C28.3772 21.7777 28.5131 21.6917 28.6058 21.4162C29.4876 18.7978 29.8695 16.1044 29.7152 13.3535C29.631 11.8523 28.3048 10.826 26.7682 10.9527ZM5.58643 21.7642C5.58643 28.962 5.58643 36.1014 5.58643 43.2672C7.71937 43.2672 9.82201 43.2675 11.9246 43.2671C13.1522 43.2668 13.6207 42.7952 13.6207 41.5592C13.6209 35.5301 13.6208 29.5009 13.6208 23.4718C13.6208 23.3674 13.6228 23.2628 13.6197 23.1584C13.5949 22.3354 13.0567 21.788 12.2376 21.7673C11.7751 21.7557 11.3122 21.7643 10.8495 21.7643C9.1052 21.7642 7.3609 21.7642 5.58643 21.7642Z" fill="black"/>
<path d="M27.0636 2.81191C27.0636 2.3491 27.0507 1.88596 27.0665 1.42372C27.0928 0.654955 27.675 0.0838817 28.4087 0.0854525C29.1423 0.0870232 29.7292 0.658882 29.7441 1.42933C29.762 2.35449 29.7625 3.28054 29.7438 4.20571C29.7283 4.97447 29.1368 5.54554 28.4032 5.54397C27.6695 5.5424 27.0916 4.97043 27.0662 4.2001C27.0511 3.73785 27.0636 3.27471 27.0636 2.81191Z" fill="black"/>
<path d="M18.4512 5.03301C18.545 4.47944 18.7961 4.08777 19.2605 3.86293C19.7387 3.63147 20.2517 3.6336 20.6476 3.9988C21.3925 4.68588 22.1179 5.39854 22.7997 6.14767C23.2606 6.65401 23.1792 7.41716 22.708 7.89702C22.2259 8.38787 21.445 8.46719 20.9249 7.99216C20.1877 7.3191 19.4859 6.60386 18.8106 5.86853C18.617 5.65783 18.567 5.31518 18.4512 5.03301Z" fill="black"/>
<path d="M36.9913 3.65771C37.5448 3.75342 37.934 4.00687 38.1589 4.47102C38.3829 4.93304 38.392 5.44106 38.0439 5.82129C37.3399 6.5905 36.605 7.33659 35.8307 8.03422C35.3437 8.47291 34.5825 8.36935 34.1183 7.91013C33.6424 7.43925 33.5479 6.66511 34.0023 6.16247C34.6817 5.41121 35.4093 4.70046 36.1546 4.01405C36.3646 3.82062 36.7087 3.77249 36.9913 3.65771Z" fill="black"/>
<path d="M9.6522 37.8962C10.3833 37.9329 10.963 38.5718 10.9263 39.3004C10.8895 40.0314 10.2505 40.611 9.52183 40.5744C8.79077 40.5376 8.21106 39.8987 8.24774 39.1701C8.28454 38.4391 8.92349 37.8596 9.6522 37.8962Z" fill="black"/>
</svg>
