<svg width="40" height="40" viewBox="0 0 40 40" fill="none" xmlns="http://www.w3.org/2000/svg">
<g clip-path="url(#clip0_399_1429)">
<path d="M35.0302 10.3449H31.6076L23.2104 18.7384C23.4996 19.4755 23.5262 20.2897 23.2857 21.0441C23.0452 21.7985 22.5523 22.4471 21.8899 22.8808C21.2274 23.3145 20.4358 23.5068 19.6482 23.4255C18.8606 23.3442 18.125 22.9942 17.5651 22.4343C17.0052 21.8744 16.6552 21.1388 16.5739 20.3512C16.4926 19.5636 16.6849 18.772 17.1186 18.1096C17.5523 17.4471 18.2009 16.9542 18.9553 16.7137C19.7097 16.4732 20.5239 16.4998 21.261 16.789L29.6564 8.39361V4.97108C29.6566 4.51311 29.8384 4.07392 30.1621 3.74993L33.3437 0.568325C33.4026 0.509066 33.4765 0.466969 33.5575 0.446555C33.6385 0.426142 33.7236 0.428184 33.8035 0.452463C33.9672 0.500279 34.0886 0.636371 34.1217 0.803727L34.9676 5.03545L39.1975 5.88143C39.363 5.91453 39.4991 6.03591 39.547 6.19959C39.5711 6.2791 39.5733 6.36367 39.5532 6.4443C39.5331 6.52493 39.4915 6.59862 39.4329 6.65752L36.2495 9.83913C35.9259 10.1624 35.4875 10.3442 35.0302 10.3449Z" fill="black"/>
<path d="M2.75862 20C2.75862 24.5727 4.57512 28.9581 7.8085 32.1915C11.0419 35.4249 15.4273 37.2414 20 37.2414C22.2642 37.2414 24.5062 36.7954 26.598 35.929C28.6898 35.0625 30.5905 33.7925 32.1915 32.1915C33.7925 30.5905 35.0625 28.6898 35.929 26.598C36.7954 24.5062 37.2414 22.2642 37.2414 20C37.2414 18.3485 37.0097 16.7522 36.5775 15.2423C36.4916 14.8956 36.5435 14.5291 36.7223 14.22C36.9011 13.9108 37.1929 13.683 37.5363 13.5846C37.8796 13.4862 38.2477 13.5248 38.5632 13.6923C38.8786 13.8599 39.1168 14.1432 39.2276 14.4828C39.7315 16.2372 40 18.0874 40 20C40 31.0455 31.0455 40 20 40C8.95448 40 0 31.0455 0 20C0 8.95449 8.95448 9.71377e-06 20 9.71377e-06C21.8667 -0.00182937 23.7223 0.257481 25.5172 0.770584C25.6923 0.819677 25.8558 0.902878 25.9986 1.0154C26.1413 1.12793 26.2604 1.26756 26.349 1.42627C26.4376 1.58497 26.494 1.75963 26.5149 1.94019C26.5358 2.12076 26.5208 2.30367 26.4707 2.47841C26.4207 2.65315 26.3366 2.81628 26.2233 2.95841C26.11 3.10054 25.9697 3.21888 25.8105 3.30662C25.6513 3.39436 25.4763 3.44976 25.2957 3.46966C25.115 3.48955 24.9322 3.47354 24.7577 3.42254C23.2104 2.9809 21.6091 2.75744 20 2.75863C15.4273 2.75863 11.0419 4.57513 7.8085 7.80851C4.57512 11.0419 2.75862 15.4273 2.75862 20Z" fill="black"/>
<path d="M11.0347 20.0006C11.0398 21.2187 11.2931 22.4229 11.7792 23.5398C12.2653 24.6567 12.9739 25.6628 13.8618 26.4967C14.7497 27.3306 15.7982 27.9747 16.9434 28.3899C18.0885 28.805 19.3063 28.9824 20.5223 28.9112C21.7383 28.84 22.927 28.5217 24.0159 27.9757C25.1047 27.4298 26.0709 26.6676 26.8554 25.7358C27.6399 24.804 28.2262 23.7221 28.5786 22.5561C28.931 21.3901 29.0421 20.1645 28.905 18.9542C28.8664 18.709 28.8948 18.458 28.9872 18.2277C29.0796 17.9974 29.2326 17.7964 29.43 17.646C29.6274 17.4956 29.8617 17.4014 30.1083 17.3733C30.3549 17.3452 30.6044 17.3844 30.8305 17.4866C31.2921 17.6926 31.6029 18.1321 31.6434 18.636C31.929 21.0549 31.4538 23.5026 30.2841 25.6389C29.1144 27.7753 27.3081 29.4942 25.1165 30.5567C22.9248 31.6191 20.4565 31.9724 18.0548 31.5674C15.6531 31.1624 13.4372 30.0192 11.7151 28.2967C9.99356 26.5761 8.85008 24.3624 8.44327 21.9627C8.03646 19.5629 8.3865 17.0961 9.44483 14.9042C10.5032 12.7124 12.2173 10.9042 14.3496 9.73042C16.4818 8.55666 18.9265 8.07551 21.3446 8.35371C21.5273 8.37067 21.7049 8.42395 21.8669 8.51043C22.0288 8.59691 22.1718 8.71484 22.2876 8.85732C22.4034 8.9998 22.4895 9.16395 22.541 9.34016C22.5925 9.51637 22.6084 9.70108 22.5875 9.88348C22.5667 10.0659 22.5097 10.2423 22.4198 10.4024C22.33 10.5624 22.2091 10.703 22.0642 10.8157C21.9193 10.9284 21.7533 11.0111 21.5761 11.0589C21.3988 11.1067 21.2138 11.1186 21.0319 11.0939C19.7759 10.9487 18.5033 11.0708 17.2978 11.4521C16.0922 11.8334 14.981 12.4653 14.0369 13.3064C13.0928 14.1475 12.3373 15.1787 11.8198 16.3324C11.3024 17.4861 11.0349 18.7362 11.0347 20.0006Z" fill="black"/>
</g>
<defs>
<clipPath id="clip0_399_1429">
<rect width="40" height="40" fill="white"/>
</clipPath>
</defs>
</svg>
