<svg width="46" height="46" viewBox="0 0 46 46" fill="none" xmlns="http://www.w3.org/2000/svg">
<mask id="path-1-outside-1_219_241" maskUnits="userSpaceOnUse" x="0" y="1.05566" width="46" height="41" fill="black">
<rect fill="white" y="1.05566" width="46" height="41"/>
<path d="M22.325 39.333C22.6122 39.333 22.9067 39.2685 23.2086 39.1396C23.5104 39.0106 23.7544 38.8531 23.9404 38.667L41.0747 21.5306C41.6271 20.9782 42.0534 20.4141 42.3538 19.8383C42.6527 19.2595 42.8022 18.6251 42.8022 17.9349C42.8022 17.236 42.6527 16.5576 42.3538 15.8998C42.0534 15.2404 41.6271 14.6397 41.0747 14.0975L32.8328 5.8557C32.2892 5.30332 31.7303 4.89818 31.1559 4.64031C30.583 4.38243 29.9471 4.25349 29.2482 4.25349C28.5581 4.25349 27.917 4.38243 27.3251 4.64031C26.7331 4.89818 26.1756 5.30258 25.6525 5.85351L23.736 7.77001L27.802 11.847C28.2386 12.2763 28.5647 12.7642 28.78 13.3107C28.994 13.8573 29.1009 14.4118 29.1009 14.9745C29.1009 16.1188 28.7266 17.0653 27.9778 17.8141C27.2291 18.5628 26.2833 18.9364 25.1404 18.935C24.5763 18.935 24.0262 18.8492 23.4899 18.6778C22.9536 18.5064 22.4708 18.206 22.0415 17.7767L17.8371 13.5877L8.34687 23.0757C8.12562 23.2984 7.95932 23.5511 7.84796 23.8339C7.73661 24.1167 7.68093 24.4024 7.68093 24.6911C7.68093 25.2097 7.84723 25.6369 8.17983 25.9724C8.51097 26.3094 8.93589 26.4779 9.45457 26.4779C9.74176 26.4779 10.0363 26.4134 10.3381 26.2845C10.6399 26.1541 10.8839 25.9958 11.07 25.8098L18.0349 18.8448L19.5909 20.4009L12.637 27.368C12.4143 27.5893 12.2473 27.8413 12.1359 28.1241C12.026 28.4083 11.9711 28.694 11.9711 28.9812C11.9711 29.4721 12.144 29.8904 12.4898 30.2362C12.8356 30.582 13.2539 30.7556 13.7447 30.7571C14.0319 30.7571 14.3264 30.6919 14.6283 30.5615C14.9301 30.431 15.174 30.2735 15.3601 30.0889L22.8327 22.6295L24.3888 24.1834L16.9272 31.656C16.7323 31.8421 16.5726 32.086 16.4481 32.3878C16.322 32.6897 16.259 32.9842 16.259 33.2714C16.259 33.7608 16.4327 34.1783 16.7799 34.5241C17.1257 34.8729 17.544 35.0472 18.0349 35.0472C18.3221 35.0472 18.6078 34.9915 18.892 34.8802C19.1763 34.7688 19.4283 34.6018 19.6481 34.3791L27.1207 26.9175L28.6768 28.4735L21.2041 35.9461C20.9829 36.1688 20.8166 36.4362 20.7052 36.7483C20.5939 37.0604 20.5382 37.3454 20.5382 37.6033C20.5382 38.122 20.7206 38.5403 21.0855 38.8582C21.4503 39.1762 21.8635 39.3352 22.325 39.3352M22.3118 41.533C21.1822 41.533 20.2151 41.1198 19.4107 40.2934C18.6063 39.4656 18.2532 38.4443 18.3514 37.2297C17.1059 37.2443 16.0693 36.8729 15.2414 36.1154C14.4136 35.3564 14.0202 34.2985 14.0612 32.9417C12.7044 32.9564 11.6348 32.5681 10.8524 31.7768C10.07 30.9856 9.71392 29.9439 9.78425 28.6515C8.56226 28.6662 7.53953 28.3219 6.71608 27.6186C5.8941 26.9182 5.4831 25.9424 5.4831 24.6911C5.4831 24.127 5.59226 23.5628 5.81058 22.9987C6.0289 22.4332 6.35124 21.9365 6.77762 21.5086L17.8371 10.4623L23.5119 16.1371C23.6979 16.332 23.928 16.4924 24.202 16.6185C24.476 16.7445 24.7844 16.8067 25.1273 16.8053C25.5976 16.8053 26.013 16.6412 26.3734 16.313C26.7339 15.9847 26.9148 15.5569 26.9163 15.0294C26.9163 14.6866 26.8533 14.3789 26.7273 14.1063C26.6013 13.8323 26.4416 13.6023 26.2482 13.4162L18.6876 5.8557C18.1426 5.30332 17.5763 4.89818 16.9887 4.64031C16.4012 4.38243 15.7579 4.25349 15.059 4.25349C14.3689 4.25349 13.7418 4.38243 13.1777 4.64031C12.615 4.89818 12.0575 5.30332 11.5051 5.8557L4.81496 12.5591C4.34316 13.0279 3.96221 13.5884 3.6721 14.2404C3.38198 14.891 3.22814 15.5628 3.21055 16.2558C3.1959 16.7525 3.23839 17.2294 3.33803 17.6866C3.43766 18.1437 3.59883 18.5745 3.82155 18.9789L2.1556 20.6449C1.78636 20.0559 1.49771 19.3775 1.28965 18.6097C1.08159 17.8419 0.985621 17.058 1.00174 16.258C1.01932 15.2587 1.21932 14.3027 1.60174 13.3898C1.98417 12.477 2.53216 11.6631 3.24572 10.9481L9.89414 4.29964C10.6604 3.54066 11.4714 2.97655 12.3271 2.60732C13.1828 2.23955 14.1081 2.05566 15.103 2.05566C16.0979 2.05566 17.0151 2.24028 17.8547 2.60952C18.6957 2.97729 19.4957 3.54066 20.2547 4.29964L22.1668 6.21395L24.0833 4.29964C24.8496 3.54066 25.6533 2.97655 26.4943 2.60732C27.3353 2.23955 28.2533 2.05566 29.2482 2.05566C30.2431 2.05566 31.1684 2.24028 32.024 2.60952C32.8783 2.97729 33.6841 3.54066 34.4416 4.29964L42.6307 12.4865C43.3883 13.2441 43.9729 14.0946 44.3846 15.0382C44.7963 15.9818 45.0015 16.9511 45 17.9459C45 18.9423 44.7949 19.8602 44.3846 20.6998C43.9743 21.5394 43.3897 22.3394 42.6307 23.0998L25.4943 40.2209C25.0386 40.678 24.5419 41.0106 24.0042 41.2187C23.4679 41.4268 22.9038 41.5308 22.3118 41.5308"/>
</mask>
<path d="M22.325 39.333C22.6122 39.333 22.9067 39.2685 23.2086 39.1396C23.5104 39.0106 23.7544 38.8531 23.9404 38.667L41.0747 21.5306C41.6271 20.9782 42.0534 20.4141 42.3538 19.8383C42.6527 19.2595 42.8022 18.6251 42.8022 17.9349C42.8022 17.236 42.6527 16.5576 42.3538 15.8998C42.0534 15.2404 41.6271 14.6397 41.0747 14.0975L32.8328 5.8557C32.2892 5.30332 31.7303 4.89818 31.1559 4.64031C30.583 4.38243 29.9471 4.25349 29.2482 4.25349C28.5581 4.25349 27.917 4.38243 27.3251 4.64031C26.7331 4.89818 26.1756 5.30258 25.6525 5.85351L23.736 7.77001L27.802 11.847C28.2386 12.2763 28.5647 12.7642 28.78 13.3107C28.994 13.8573 29.1009 14.4118 29.1009 14.9745C29.1009 16.1188 28.7266 17.0653 27.9778 17.8141C27.2291 18.5628 26.2833 18.9364 25.1404 18.935C24.5763 18.935 24.0262 18.8492 23.4899 18.6778C22.9536 18.5064 22.4708 18.206 22.0415 17.7767L17.8371 13.5877L8.34687 23.0757C8.12562 23.2984 7.95932 23.5511 7.84796 23.8339C7.73661 24.1167 7.68093 24.4024 7.68093 24.6911C7.68093 25.2097 7.84723 25.6369 8.17983 25.9724C8.51097 26.3094 8.93589 26.4779 9.45457 26.4779C9.74176 26.4779 10.0363 26.4134 10.3381 26.2845C10.6399 26.1541 10.8839 25.9958 11.07 25.8098L18.0349 18.8448L19.5909 20.4009L12.637 27.368C12.4143 27.5893 12.2473 27.8413 12.1359 28.1241C12.026 28.4083 11.9711 28.694 11.9711 28.9812C11.9711 29.4721 12.144 29.8904 12.4898 30.2362C12.8356 30.582 13.2539 30.7556 13.7447 30.7571C14.0319 30.7571 14.3264 30.6919 14.6283 30.5615C14.9301 30.431 15.174 30.2735 15.3601 30.0889L22.8327 22.6295L24.3888 24.1834L16.9272 31.656C16.7323 31.8421 16.5726 32.086 16.4481 32.3878C16.322 32.6897 16.259 32.9842 16.259 33.2714C16.259 33.7608 16.4327 34.1783 16.7799 34.5241C17.1257 34.8729 17.544 35.0472 18.0349 35.0472C18.3221 35.0472 18.6078 34.9915 18.892 34.8802C19.1763 34.7688 19.4283 34.6018 19.6481 34.3791L27.1207 26.9175L28.6768 28.4735L21.2041 35.9461C20.9829 36.1688 20.8166 36.4362 20.7052 36.7483C20.5939 37.0604 20.5382 37.3454 20.5382 37.6033C20.5382 38.122 20.7206 38.5403 21.0855 38.8582C21.4503 39.1762 21.8635 39.3352 22.325 39.3352M22.3118 41.533C21.1822 41.533 20.2151 41.1198 19.4107 40.2934C18.6063 39.4656 18.2532 38.4443 18.3514 37.2297C17.1059 37.2443 16.0693 36.8729 15.2414 36.1154C14.4136 35.3564 14.0202 34.2985 14.0612 32.9417C12.7044 32.9564 11.6348 32.5681 10.8524 31.7768C10.07 30.9856 9.71392 29.9439 9.78425 28.6515C8.56226 28.6662 7.53953 28.3219 6.71608 27.6186C5.8941 26.9182 5.4831 25.9424 5.4831 24.6911C5.4831 24.127 5.59226 23.5628 5.81058 22.9987C6.0289 22.4332 6.35124 21.9365 6.77762 21.5086L17.8371 10.4623L23.5119 16.1371C23.6979 16.332 23.928 16.4924 24.202 16.6185C24.476 16.7445 24.7844 16.8067 25.1273 16.8053C25.5976 16.8053 26.013 16.6412 26.3734 16.313C26.7339 15.9847 26.9148 15.5569 26.9163 15.0294C26.9163 14.6866 26.8533 14.3789 26.7273 14.1063C26.6013 13.8323 26.4416 13.6023 26.2482 13.4162L18.6876 5.8557C18.1426 5.30332 17.5763 4.89818 16.9887 4.64031C16.4012 4.38243 15.7579 4.25349 15.059 4.25349C14.3689 4.25349 13.7418 4.38243 13.1777 4.64031C12.615 4.89818 12.0575 5.30332 11.5051 5.8557L4.81496 12.5591C4.34316 13.0279 3.96221 13.5884 3.6721 14.2404C3.38198 14.891 3.22814 15.5628 3.21055 16.2558C3.1959 16.7525 3.23839 17.2294 3.33803 17.6866C3.43766 18.1437 3.59883 18.5745 3.82155 18.9789L2.1556 20.6449C1.78636 20.0559 1.49771 19.3775 1.28965 18.6097C1.08159 17.8419 0.985621 17.058 1.00174 16.258C1.01932 15.2587 1.21932 14.3027 1.60174 13.3898C1.98417 12.477 2.53216 11.6631 3.24572 10.9481L9.89414 4.29964C10.6604 3.54066 11.4714 2.97655 12.3271 2.60732C13.1828 2.23955 14.1081 2.05566 15.103 2.05566C16.0979 2.05566 17.0151 2.24028 17.8547 2.60952C18.6957 2.97729 19.4957 3.54066 20.2547 4.29964L22.1668 6.21395L24.0833 4.29964C24.8496 3.54066 25.6533 2.97655 26.4943 2.60732C27.3353 2.23955 28.2533 2.05566 29.2482 2.05566C30.2431 2.05566 31.1684 2.24028 32.024 2.60952C32.8783 2.97729 33.6841 3.54066 34.4416 4.29964L42.6307 12.4865C43.3883 13.2441 43.9729 14.0946 44.3846 15.0382C44.7963 15.9818 45.0015 16.9511 45 17.9459C45 18.9423 44.7949 19.8602 44.3846 20.6998C43.9743 21.5394 43.3897 22.3394 42.6307 23.0998L25.4943 40.2209C25.0386 40.678 24.5419 41.0106 24.0042 41.2187C23.4679 41.4268 22.9038 41.5308 22.3118 41.5308" fill="black"/>
<path d="M23.9404 38.667L24.2233 38.9499L24.2233 38.9499L23.9404 38.667ZM41.0747 21.5306L40.7918 21.2477L40.7918 21.2478L41.0747 21.5306ZM42.3538 19.8383L42.7085 20.0233L42.7092 20.0218L42.3538 19.8383ZM42.3538 15.8998L42.718 15.7343L42.7178 15.7339L42.3538 15.8998ZM41.0747 14.0975L40.7918 14.3804L40.7945 14.383L41.0747 14.0975ZM32.8328 5.8557L32.5477 6.13628L32.55 6.13855L32.8328 5.8557ZM31.1559 4.64031L30.9917 5.00506L30.9921 5.00521L31.1559 4.64031ZM25.6525 5.85351L25.9355 6.13644L25.9426 6.12892L25.6525 5.85351ZM23.736 7.77001L23.4532 7.48717L23.1707 7.76963L23.4528 8.05247L23.736 7.77001ZM27.802 11.847L27.5188 12.1294L27.5216 12.1322L27.802 11.847ZM28.78 13.3107L29.1525 13.1649L29.1522 13.1641L28.78 13.3107ZM25.1404 18.935L25.141 18.535H25.1404V18.935ZM22.0415 17.7767L22.3244 17.4939L22.3238 17.4933L22.0415 17.7767ZM17.8371 13.5877L18.1194 13.3043L17.8366 13.0225L17.5543 13.3048L17.8371 13.5877ZM8.34687 23.0757L8.06406 22.7928L8.06309 22.7938L8.34687 23.0757ZM7.68093 24.6911H8.08093H7.68093ZM8.17983 25.9724L8.46515 25.692L8.46391 25.6908L8.17983 25.9724ZM10.3381 26.2845L10.4952 26.6523L10.4967 26.6517L10.3381 26.2845ZM11.07 25.8098L10.7871 25.5269L11.07 25.8098ZM18.0349 18.8448L18.3177 18.562L18.0349 18.2792L17.752 18.562L18.0349 18.8448ZM19.5909 20.4009L19.8741 20.6835L20.1564 20.4006L19.8738 20.1181L19.5909 20.4009ZM12.637 27.368L12.9189 27.6518L12.9201 27.6506L12.637 27.368ZM12.1359 28.1241L11.7637 27.9775L11.7628 27.9798L12.1359 28.1241ZM13.7447 30.7571L13.7435 31.1571H13.7447V30.7571ZM15.3601 30.0889L15.6419 30.3729L15.6427 30.372L15.3601 30.0889ZM22.8327 22.6295L23.1154 22.3465L22.8328 22.0643L22.5501 22.3464L22.8327 22.6295ZM24.3888 24.1834L24.6718 24.466L24.9545 24.183L24.6714 23.9003L24.3888 24.1834ZM16.9272 31.656L17.2035 31.9453L17.2102 31.9386L16.9272 31.656ZM16.4481 32.3878L16.8172 32.5419L16.8178 32.5404L16.4481 32.3878ZM16.7799 34.5241L17.064 34.2425L17.0622 34.2407L16.7799 34.5241ZM19.6481 34.3791L19.3654 34.096L19.3634 34.0981L19.6481 34.3791ZM27.1207 26.9175L27.4035 26.6346L27.1209 26.352L26.8381 26.6344L27.1207 26.9175ZM28.6768 28.4735L28.9596 28.7564L29.2424 28.4735L28.9596 28.1907L28.6768 28.4735ZM21.2041 35.9461L20.9213 35.6633L20.9204 35.6642L21.2041 35.9461ZM19.4107 40.2934L19.1238 40.5722L19.1241 40.5724L19.4107 40.2934ZM18.3514 37.2297L18.7501 37.2619L18.7854 36.8245L18.3467 36.8297L18.3514 37.2297ZM15.2414 36.1154L14.9711 36.4102L14.9714 36.4105L15.2414 36.1154ZM14.0612 32.9417L14.461 32.9538L14.4736 32.5372L14.0569 32.5417L14.0612 32.9417ZM9.78425 28.6515L10.1837 28.6733L10.2069 28.2464L9.77945 28.2516L9.78425 28.6515ZM6.71608 27.6186L6.97586 27.3144L6.9755 27.3141L6.71608 27.6186ZM5.81058 22.9987L6.18362 23.1431L6.18374 23.1428L5.81058 22.9987ZM6.77762 21.5086L6.49495 21.2256L6.49429 21.2263L6.77762 21.5086ZM17.8371 10.4623L18.1199 10.1795L17.8372 9.89683L17.5544 10.1793L17.8371 10.4623ZM23.5119 16.1371L23.8012 15.8608L23.7947 15.8543L23.5119 16.1371ZM25.1273 16.8053V16.4053L25.1256 16.4053L25.1273 16.8053ZM26.9163 15.0294L27.3163 15.0305V15.0294H26.9163ZM26.7273 14.1063L26.3639 14.2735L26.3642 14.2742L26.7273 14.1063ZM26.2482 13.4162L25.9653 13.6991L25.9708 13.7045L26.2482 13.4162ZM18.6876 5.8557L18.4029 6.13666L18.4048 6.13855L18.6876 5.8557ZM13.1777 4.64031L13.0114 4.27652L13.011 4.27668L13.1777 4.64031ZM11.5051 5.8557L11.2223 5.57286L11.222 5.57314L11.5051 5.8557ZM4.81496 12.5591L5.09693 12.8428L5.09809 12.8416L4.81496 12.5591ZM3.6721 14.2404L4.03742 14.4033L4.03755 14.403L3.6721 14.2404ZM3.21055 16.2558L3.61038 16.2676L3.61042 16.266L3.21055 16.2558ZM3.82155 18.9789L4.10439 19.2618L4.31692 19.0492L4.17193 18.786L3.82155 18.9789ZM2.1556 20.6449L1.81668 20.8573L2.08338 21.2828L2.43844 20.9277L2.1556 20.6449ZM1.00174 16.258L1.40166 16.2661L1.40168 16.265L1.00174 16.258ZM3.24572 10.9481L2.96287 10.6652L2.96258 10.6655L3.24572 10.9481ZM9.89414 4.29964L9.61265 4.01544L9.6113 4.0168L9.89414 4.29964ZM12.3271 2.60732L12.1692 2.23982L12.1687 2.24005L12.3271 2.60732ZM17.8547 2.60952L17.6936 2.97567L17.6944 2.97601L17.8547 2.60952ZM20.2547 4.29964L20.5377 4.01696L20.5375 4.0168L20.2547 4.29964ZM22.1668 6.21395L21.8838 6.49663L22.1665 6.77963L22.4495 6.49695L22.1668 6.21395ZM24.0833 4.29964L23.8018 4.01544L23.8006 4.01664L24.0833 4.29964ZM26.4943 2.60732L26.334 2.24083L26.3335 2.24106L26.4943 2.60732ZM32.024 2.60952L31.8656 2.97678L31.8659 2.97691L32.024 2.60952ZM34.4416 4.29964L34.1585 4.58221L34.1588 4.58252L34.4416 4.29964ZM42.6307 12.4865L42.9136 12.2037L42.9135 12.2037L42.6307 12.4865ZM45 17.9459L44.6 17.9454V17.9459H45ZM42.6307 23.0998L42.9135 23.3828L42.9139 23.3824L42.6307 23.0998ZM25.4943 40.2209L25.2116 39.9379L25.211 39.9385L25.4943 40.2209ZM24.0042 41.2187L23.8598 40.8457L23.8595 40.8458L24.0042 41.2187ZM22.325 39.733C22.6734 39.733 23.0212 39.6546 23.3657 39.5074L23.0514 38.7717C22.7922 38.8825 22.551 38.933 22.325 38.933V39.733ZM23.3657 39.5074C23.7033 39.3632 23.9934 39.1798 24.2233 38.9499L23.6576 38.3842C23.5153 38.5265 23.3175 38.6581 23.0514 38.7717L23.3657 39.5074ZM24.2233 38.9499L41.3575 21.8134L40.7918 21.2478L23.6576 38.3842L24.2233 38.9499ZM41.3575 21.8134C41.933 21.2379 42.3859 20.6416 42.7085 20.0233L41.9992 19.6533C41.721 20.1866 41.3211 20.7185 40.7918 21.2477L41.3575 21.8134ZM42.7092 20.0218C43.0392 19.3829 43.2022 18.685 43.2022 17.9349H42.4022C42.4022 18.5651 42.2663 19.1361 41.9984 19.6547L42.7092 20.0218ZM43.2022 17.9349C43.2022 17.177 43.0397 16.4423 42.718 15.7343L41.9896 16.0652C42.2658 16.6729 42.4022 17.2951 42.4022 17.9349H43.2022ZM42.7178 15.7339C42.3957 15.0269 41.9399 14.3862 41.3549 13.8121L40.7945 14.383C41.3142 14.8931 41.7112 15.4539 41.9898 16.0656L42.7178 15.7339ZM41.3575 13.8147L33.1157 5.57286L32.55 6.13855L40.7918 14.3804L41.3575 13.8147ZM33.1179 5.57514C32.5473 4.99526 31.9485 4.55772 31.3197 4.2754L30.9921 5.00521C31.512 5.23865 32.0312 5.61137 32.5477 6.13627L33.1179 5.57514ZM31.3201 4.27556C30.69 3.99195 29.9973 3.85349 29.2482 3.85349V4.65349C29.8969 4.65349 30.476 4.7729 30.9917 5.00506L31.3201 4.27556ZM29.2482 3.85349C28.5069 3.85349 27.8111 3.99228 27.1653 4.27359L27.4848 5.00702C28.023 4.77258 28.6092 4.65349 29.2482 4.65349V3.85349ZM27.1653 4.27359C26.5164 4.5563 25.916 4.99507 25.3625 5.57809L25.9426 6.12892C26.4352 5.61009 26.9499 5.24007 27.4848 5.00702L27.1653 4.27359ZM25.3697 5.57066L23.4532 7.48717L24.0189 8.05285L25.9354 6.13635L25.3697 5.57066ZM23.4528 8.05247L27.5188 12.1294L28.0852 11.5645L24.0193 7.48755L23.4528 8.05247ZM27.5216 12.1322C27.92 12.5239 28.2139 12.9652 28.4079 13.4574L29.1522 13.1641C28.9154 12.5632 28.5573 12.0286 28.0825 11.5617L27.5216 12.1322ZM28.4076 13.4565C28.6041 13.9586 28.7009 14.4639 28.7009 14.9745H29.5009C29.5009 14.3598 29.3838 13.7559 29.1525 13.1649L28.4076 13.4565ZM28.7009 14.9745C28.7009 16.0222 28.3623 16.8639 27.695 17.5312L28.2607 18.0969C29.0909 17.2667 29.5009 16.2154 29.5009 14.9745H28.7009ZM27.695 17.5312C27.0278 18.1985 26.1869 18.5363 25.141 18.535L25.1399 19.335C26.3798 19.3365 27.4305 18.9271 28.2607 18.0969L27.695 17.5312ZM25.1404 18.535C24.6176 18.535 24.1085 18.4556 23.6117 18.2968L23.3681 19.0588C23.9438 19.2429 24.5351 19.335 25.1404 19.335V18.535ZM23.6117 18.2968C23.1408 18.1463 22.7122 17.8817 22.3244 17.4939L21.7587 18.0595C22.2295 18.5303 22.7664 18.8665 23.3681 19.0588L23.6117 18.2968ZM22.3238 17.4933L18.1194 13.3043L17.5548 13.871L21.7592 18.0601L22.3238 17.4933ZM17.5543 13.3048L8.06406 22.7928L8.62968 23.3585L18.1199 13.8705L17.5543 13.3048ZM8.06309 22.7938C7.80477 23.0538 7.60775 23.3522 7.47578 23.6874L8.22015 23.9805C8.31089 23.75 8.44648 23.543 8.63064 23.3576L8.06309 22.7938ZM7.47578 23.6874C7.34703 24.0143 7.28093 24.3496 7.28093 24.6911H8.08093C8.08093 24.4552 8.12618 24.2191 8.22015 23.9805L7.47578 23.6874ZM7.28093 24.6911C7.28093 25.3039 7.48128 25.8359 7.89575 26.254L8.46391 25.6908C8.21318 25.4379 8.08093 25.1156 8.08093 24.6911H7.28093ZM7.89452 26.2527C8.30861 26.6742 8.84016 26.8779 9.45457 26.8779V26.0779C9.03162 26.0779 8.71334 25.9446 8.46515 25.692L7.89452 26.2527ZM9.45457 26.8779C9.80295 26.8779 10.1508 26.7995 10.4952 26.6523L10.181 25.9166C9.92174 26.0274 9.68056 26.0779 9.45457 26.0779V26.8779ZM10.4967 26.6517C10.8338 26.5061 11.1233 26.3221 11.3528 26.0926L10.7871 25.5269C10.6444 25.6696 10.4461 25.8021 10.1795 25.9173L10.4967 26.6517ZM11.3528 26.0926L18.3177 19.1277L17.752 18.562L10.7871 25.5269L11.3528 26.0926ZM17.752 19.1277L19.3081 20.6838L19.8738 20.1181L18.3177 18.562L17.752 19.1277ZM19.3078 20.1183L12.3539 27.0854L12.9201 27.6506L19.8741 20.6835L19.3078 20.1183ZM12.3551 27.0842C12.0945 27.3432 11.896 27.6415 11.7637 27.9775L12.5081 28.2706C12.5985 28.041 12.7342 27.8354 12.9189 27.6518L12.3551 27.0842ZM11.7628 27.9798C11.6363 28.3072 11.5711 28.6418 11.5711 28.9812H12.3711C12.3711 28.7463 12.4158 28.5094 12.509 28.2683L11.7628 27.9798ZM11.5711 28.9812C11.5711 29.5777 11.7858 30.0979 12.2069 30.519L12.7726 29.9533C12.5022 29.6829 12.3711 29.3664 12.3711 28.9812H11.5711ZM12.2069 30.519C12.6278 30.9398 13.1475 31.1553 13.7435 31.1571L13.7459 30.3571C13.3603 30.3559 13.0434 30.2241 12.7726 29.9533L12.2069 30.519ZM13.7447 31.1571C14.0938 31.1571 14.4422 31.0776 14.7869 30.9286L14.4696 30.1943C14.2106 30.3061 13.97 30.3571 13.7447 30.3571V31.1571ZM14.7869 30.9286C15.1234 30.7833 15.4125 30.6004 15.6419 30.3729L15.0784 29.805C14.9355 29.9467 14.7368 30.0788 14.4696 30.1943L14.7869 30.9286ZM15.6427 30.372L23.1153 22.9126L22.5501 22.3464L15.0775 29.8058L15.6427 30.372ZM22.5501 22.9125L24.1061 24.4664L24.6714 23.9003L23.1154 22.3465L22.5501 22.9125ZM24.1057 23.9007L16.6441 31.3733L17.2102 31.9386L24.6718 24.466L24.1057 23.9007ZM16.6509 31.3667C16.4081 31.5986 16.2197 31.8925 16.0783 32.2353L16.8178 32.5404C16.9255 32.2795 17.0565 32.0855 17.2034 31.9453L16.6509 31.3667ZM16.0789 32.2337C15.9354 32.5777 15.859 32.9244 15.859 33.2714H16.659C16.659 33.0439 16.7087 32.8017 16.8172 32.5419L16.0789 32.2337ZM15.859 33.2714C15.859 33.8673 16.0752 34.3868 16.4977 34.8076L17.0622 34.2407C16.7902 33.9698 16.659 33.6542 16.659 33.2714H15.859ZM16.4959 34.8058C16.9167 35.2302 17.4373 35.4472 18.0349 35.4472V34.6472C17.6508 34.6472 17.3347 34.5155 17.064 34.2425L16.4959 34.8058ZM18.0349 35.4472C18.3751 35.4472 18.7102 35.381 19.0379 35.2526L18.7461 34.5077C18.5054 34.602 18.2691 34.6472 18.0349 34.6472V35.4472ZM19.0379 35.2526C19.3757 35.1203 19.6747 34.9216 19.9328 34.66L19.3634 34.0981C19.1819 34.282 18.9769 34.4173 18.7461 34.5077L19.0379 35.2526ZM19.9307 34.6621L27.4033 27.2005L26.8381 26.6344L19.3654 34.096L19.9307 34.6621ZM26.8378 27.2003L28.3939 28.7564L28.9596 28.1907L27.4035 26.6346L26.8378 27.2003ZM28.3939 28.1907L20.9213 35.6633L21.487 36.229L28.9596 28.7564L28.3939 28.1907ZM20.9204 35.6642C20.6554 35.931 20.4585 36.2496 20.3285 36.6139L21.082 36.8828C21.1747 36.6229 21.3104 36.4067 21.4879 36.228L20.9204 35.6642ZM20.3285 36.6139C20.2059 36.9575 20.1382 37.2886 20.1382 37.6033H20.9382C20.9382 37.4022 20.9818 37.1634 21.082 36.8828L20.3285 36.6139ZM20.1382 37.6033C20.1382 38.2282 20.3638 38.7599 20.8227 39.1598L21.3483 38.5567C21.0774 38.3207 20.9382 38.0157 20.9382 37.6033H20.1382ZM20.8227 39.1598C21.2565 39.5379 21.7619 39.7352 22.325 39.7352V38.9352C21.9651 38.9352 21.6441 38.8145 21.3483 38.5567L20.8227 39.1598ZM22.3118 41.133C21.2926 41.133 20.4282 40.7653 19.6973 40.0144L19.1241 40.5724C20.002 41.4743 21.0717 41.933 22.3118 41.933V41.133ZM19.6976 40.0147C18.9785 39.2746 18.6606 38.3689 18.7501 37.2619L17.9527 37.1974C17.8458 38.5198 18.2341 39.6565 19.1238 40.5722L19.6976 40.0147ZM18.3467 36.8297C17.1907 36.8433 16.2559 36.5014 15.5115 35.8203L14.9714 36.4105C15.8827 37.2443 17.0212 37.6453 18.3561 37.6296L18.3467 36.8297ZM15.5118 35.8205C14.7875 35.1565 14.4227 34.2208 14.461 32.9538L13.6614 32.9296C13.6177 34.3761 14.0397 35.5563 14.9711 36.4102L15.5118 35.8205ZM14.0569 32.5417C12.783 32.5555 11.8268 32.1934 11.1368 31.4956L10.568 32.0581C11.4428 32.9428 12.6258 33.3572 14.0655 33.3417L14.0569 32.5417ZM11.1368 31.4956C10.4469 30.798 10.1184 29.8731 10.1837 28.6733L9.38484 28.6298C9.30947 30.0146 9.69301 31.1733 10.568 32.0581L11.1368 31.4956ZM9.77945 28.2516C8.64103 28.2652 7.71611 27.9466 6.97586 27.3144L6.4563 27.9227C7.36296 28.6971 8.48348 29.0672 9.78904 29.0515L9.77945 28.2516ZM6.9755 27.3141C6.25733 26.7022 5.8831 25.8458 5.8831 24.6911H5.0831C5.0831 26.0389 5.53087 27.1342 6.45666 27.923L6.9755 27.3141ZM5.8831 24.6911C5.8831 24.1798 5.98182 23.6645 6.18362 23.1431L5.43754 22.8544C5.2027 23.4612 5.0831 24.0741 5.0831 24.6911H5.8831ZM6.18374 23.1428C6.38212 22.6289 6.67395 22.1793 7.06095 21.791L6.49429 21.2263C6.02854 21.6936 5.67567 22.2375 5.43742 22.8547L6.18374 23.1428ZM7.0603 21.7916L18.1198 10.7454L17.5544 10.1793L6.49495 21.2256L7.0603 21.7916ZM17.5542 10.7452L23.229 16.42L23.7947 15.8543L18.1199 10.1795L17.5542 10.7452ZM23.2226 16.4134C23.4474 16.6488 23.7204 16.8373 24.0348 16.9819L24.3691 16.255C24.1355 16.1476 23.9485 16.0152 23.8012 15.8609L23.2226 16.4134ZM24.0348 16.9819C24.3686 17.1354 24.7358 17.2069 25.129 17.2053L25.1256 16.4053C24.833 16.4065 24.5834 16.3536 24.3691 16.255L24.0348 16.9819ZM25.1273 17.2053C25.7011 17.2053 26.2116 17.0013 26.6427 16.6087L26.1041 16.0172C25.8144 16.281 25.4941 16.4053 25.1273 16.4053V17.2053ZM26.6427 16.6087C27.0935 16.1983 27.3145 15.6599 27.3163 15.0305L26.5163 15.0283C26.5151 15.4539 26.3743 15.7712 26.1041 16.0172L26.6427 16.6087ZM27.3163 15.0294C27.3163 14.6368 27.2439 14.2706 27.0903 13.9385L26.3642 14.2742C26.4627 14.4871 26.5163 14.7363 26.5163 15.0294H27.3163ZM27.0907 13.9392C26.9464 13.6254 26.7591 13.3527 26.5255 13.128L25.9708 13.7045C26.124 13.8519 26.2562 14.0393 26.3639 14.2735L27.0907 13.9392ZM26.531 13.1334L18.9705 5.57286L18.4048 6.13855L25.9653 13.6991L26.531 13.1334ZM18.9724 5.57476C18.399 4.99369 17.792 4.55603 17.1495 4.27403L16.828 5.00658C17.3606 5.24034 17.8861 5.61295 18.4029 6.13665L18.9724 5.57476ZM17.1495 4.27403C16.5069 3.99199 15.8083 3.85349 15.059 3.85349V4.65349C15.7076 4.65349 16.2955 4.77286 16.828 5.00658L17.1495 4.27403ZM15.059 3.85349C14.318 3.85349 13.6333 3.99221 13.0114 4.27652L13.344 5.0041C13.8503 4.77264 14.4198 4.65349 15.059 4.65349V3.85349ZM13.011 4.27668C12.3955 4.5588 11.7999 4.9953 11.2223 5.57286L11.788 6.13855C12.3152 5.61134 12.8346 5.23757 13.3444 5.00393L13.011 4.27668ZM11.222 5.57314L4.53184 12.2765L5.09809 12.8416L11.7883 6.13827L11.222 5.57314ZM4.533 12.2753C4.02364 12.7816 3.61538 13.3839 3.30664 14.0778L4.03755 14.403C4.30904 13.7929 4.66269 13.2743 5.09692 12.8428L4.533 12.2753ZM3.30677 14.0775C2.99579 14.7748 2.82964 15.4985 2.81068 16.2457L3.61042 16.266C3.62663 15.6271 3.76817 15.0071 4.03742 14.4033L3.30677 14.0775ZM2.81073 16.244C2.79517 16.7713 2.84021 17.2809 2.9472 17.7718L3.72885 17.6014C3.63657 17.178 3.59663 16.7338 3.61038 16.2676L2.81073 16.244ZM2.9472 17.7718C3.05494 18.2661 3.2296 18.7332 3.47117 19.1719L4.17193 18.786C3.96807 18.4158 3.82038 18.0214 3.72885 17.6014L2.9472 17.7718ZM3.5387 18.6961L1.87275 20.362L2.43844 20.9277L4.10439 19.2618L3.5387 18.6961ZM2.49451 20.4324C2.149 19.8812 1.87493 19.2401 1.67573 18.5051L0.903578 18.7143C1.1205 19.5148 1.42373 20.2305 1.81668 20.8573L2.49451 20.4324ZM1.67573 18.5051C1.47768 17.7742 1.3863 17.0283 1.40166 16.2661L0.601819 16.25C0.58494 17.0878 0.68551 17.9096 0.903578 18.7143L1.67573 18.5051ZM1.40168 16.265C1.41838 15.316 1.60804 14.41 1.97068 13.5444L1.23281 13.2353C0.830602 14.1953 0.620266 15.2015 0.6018 16.251L1.40168 16.265ZM1.97068 13.5444C2.33264 12.6804 2.85114 11.9097 3.52885 11.2306L2.96258 10.6655C2.21317 11.4165 1.63569 12.2736 1.23281 13.2353L1.97068 13.5444ZM3.52856 11.2309L10.177 4.58249L9.6113 4.0168L2.96287 10.6652L3.52856 11.2309ZM10.1756 4.58384C10.912 3.85453 11.6824 3.32119 12.4856 2.97459L12.1687 2.24005C11.2605 2.63191 10.4089 3.22679 9.61266 4.01545L10.1756 4.58384ZM12.4851 2.97481C13.2875 2.62992 14.1587 2.45566 15.103 2.45566V1.65566C14.0575 1.65566 13.0781 1.84917 12.1692 2.23982L12.4851 2.97481ZM15.103 2.45566C16.0472 2.45566 16.909 2.63059 17.6936 2.97567L18.0157 2.24336C17.1212 1.84997 16.1486 1.65566 15.103 1.65566V2.45566ZM17.6944 2.97601C18.4827 3.32071 19.2423 3.85291 19.9718 4.58249L20.5375 4.0168C19.7491 3.22841 18.9087 2.63387 18.0149 2.24302L17.6944 2.97601ZM19.9717 4.58232L21.8838 6.49663L22.4498 5.93127L20.5377 4.01696L19.9717 4.58232ZM22.4495 6.49695L24.366 4.58265L23.8006 4.01664L21.8841 5.93094L22.4495 6.49695ZM24.3648 4.58384C25.1022 3.85348 25.8661 3.31998 26.6551 2.97358L26.3335 2.24106C25.4405 2.63313 24.597 3.22784 23.8018 4.01545L24.3648 4.58384ZM26.6546 2.97381C27.441 2.62994 28.3038 2.45566 29.2482 2.45566V1.65566C28.2028 1.65566 27.2297 1.84916 26.334 2.24083L26.6546 2.97381ZM29.2482 2.45566C30.1923 2.45566 31.0632 2.63057 31.8656 2.97678L32.1825 2.24225C31.2735 1.84999 30.2938 1.65566 29.2482 1.65566V2.45566ZM31.8659 2.97691C32.6669 3.32177 33.4315 3.85375 34.1585 4.58221L34.7248 4.01707C33.9368 3.22758 33.0897 2.6328 32.1822 2.24212L31.8659 2.97691ZM34.1588 4.58252L42.3479 12.7694L42.9135 12.2037L34.7244 4.01676L34.1588 4.58252ZM42.3479 12.7694C43.0715 13.493 43.6271 14.3023 44.018 15.1982L44.7512 14.8782C44.3187 13.887 43.705 12.9951 42.9136 12.2037L42.3479 12.7694ZM44.018 15.1982C44.4084 16.0929 44.6014 17.0077 44.6 17.9454L45.4 17.9465C45.4015 16.8945 45.1843 15.8707 44.7512 14.8782L44.018 15.1982ZM44.6 17.9459C44.6 18.8855 44.407 19.7429 44.0252 20.5242L44.744 20.8754C45.1827 19.9776 45.4 18.999 45.4 17.9459H44.6ZM44.0252 20.5242C43.637 21.3187 43.08 22.0834 42.3476 22.8173L42.9139 23.3824C43.6994 22.5953 44.3117 21.76 44.744 20.8754L44.0252 20.5242ZM42.348 22.8169L25.2116 39.9379L25.777 40.5039L42.9135 23.3828L42.348 22.8169ZM25.211 39.9385C24.7901 40.3608 24.3395 40.6601 23.8598 40.8457L24.1485 41.5918C24.7443 41.3612 25.2872 40.9953 25.7776 40.5033L25.211 39.9385ZM23.8595 40.8458C23.3707 41.0354 22.8558 41.1308 22.3118 41.1308V41.9308C22.9518 41.9308 23.5651 41.8181 24.1489 41.5916L23.8595 40.8458Z" fill="black" mask="url(#path-1-outside-1_219_241)"/>
</svg>
