<svg width="46" height="46" viewBox="0 0 46 46" fill="none" xmlns="http://www.w3.org/2000/svg">
<g clip-path="url(#clip0_219_211)">
<path d="M8.36832 27.2447C6.76746 24.6231 5.92344 21.6095 5.92972 18.5378C5.92972 9.20586 13.5719 1.64258 22.9978 1.64258C32.4236 1.64258 40.0658 9.20586 40.0658 18.5378C40.0721 21.6095 39.2281 24.6231 37.6272 27.2447M29.3983 37.9122L29.1209 39.2926C28.8222 40.801 28.6708 41.5541 28.3315 42.1515C27.8088 43.0722 26.9625 43.7657 25.9569 44.0972C25.3062 44.3127 24.5339 44.3127 22.9978 44.3127C21.4616 44.3127 20.6893 44.3127 20.0386 44.0994C19.0327 43.7673 18.1863 43.073 17.664 42.1515C17.3248 41.5541 17.1733 40.801 16.8746 39.2926L16.5973 37.9122M13.1474 33.8543C12.9511 33.2654 12.853 32.9688 12.8636 32.7299C12.8757 32.4828 12.9591 32.2445 13.1037 32.0439C13.2484 31.8432 13.448 31.6887 13.6786 31.5991C13.9005 31.5117 14.212 31.5117 14.8307 31.5117H31.1648C31.7857 31.5117 32.095 31.5117 32.3169 31.597C32.5478 31.6867 32.7477 31.8415 32.8924 32.0426C33.0371 32.2437 33.1203 32.4825 33.1319 32.7299C33.1426 32.9688 33.0445 33.2633 32.8482 33.8543C32.4855 34.9445 32.3041 35.4907 32.0246 35.9323C31.4401 36.8553 30.5237 37.5189 29.4644 37.7863C28.9567 37.9122 28.3849 37.9122 27.2392 37.9122H18.7564C17.6107 37.9122 17.0368 37.9122 16.5311 37.7842C15.4722 37.5172 14.5559 36.8545 13.9709 35.9323C13.6914 35.4907 13.5101 34.9445 13.1474 33.8543Z" stroke="black" stroke-width="3" stroke-linecap="round" stroke-linejoin="round"/>
<path d="M14.9966 18.1787L19.797 22.9791V31.5132M30.9979 18.1787L26.1975 22.9791V31.5132M14.9966 19.7789C15.421 19.7789 15.828 19.6103 16.1281 19.3102C16.4282 19.0101 16.5967 18.6031 16.5967 18.1787C16.5967 17.7544 16.4282 17.3474 16.1281 17.0473C15.828 16.7472 15.421 16.5786 14.9966 16.5786C14.5722 16.5786 14.1652 16.7472 13.8652 17.0473C13.5651 17.3474 13.3965 17.7544 13.3965 18.1787C13.3965 18.6031 13.5651 19.0101 13.8652 19.3102C14.1652 19.6103 14.5722 19.7789 14.9966 19.7789ZM30.9979 19.7789C30.5735 19.7789 30.1665 19.6103 29.8665 19.3102C29.5664 19.0101 29.3978 18.6031 29.3978 18.1787C29.3978 17.7544 29.5664 17.3474 29.8665 17.0473C30.1665 16.7472 30.5735 16.5786 30.9979 16.5786C31.4223 16.5786 31.8293 16.7472 32.1294 17.0473C32.4295 17.3474 32.598 17.7544 32.598 18.1787C32.598 18.6031 32.4295 19.0101 32.1294 19.3102C31.8293 19.6103 31.4223 19.7789 30.9979 19.7789Z" stroke="black" stroke-width="3" stroke-linecap="round" stroke-linejoin="round"/>
</g>
<defs>
<clipPath id="clip0_219_211">
<rect width="45.9951" height="45.9951" fill="white"/>
</clipPath>
</defs>
</svg>
