<svg width="40" height="40" viewBox="0 0 40 40" fill="none" xmlns="http://www.w3.org/2000/svg">
<path d="M20 36.0685C22.7778 36.0685 25.1393 35.0966 27.0844 33.1529C29.0296 31.2092 30.0015 28.8478 30 26.0685C29.9985 23.2892 29.0267 20.9285 27.0844 18.9863C25.1422 17.0441 22.7807 16.0715 20 16.0685C17.2193 16.0655 14.8585 17.0381 12.9178 18.9863C10.977 20.9344 10.0044 23.2952 10 26.0685C9.99556 28.8418 10.9681 31.2033 12.9178 33.1529C14.8674 35.1026 17.2281 36.0744 20 36.0685ZM13.5867 15.7018C14.2978 15.2366 15.0556 14.8626 15.86 14.5796C16.6659 14.2966 17.4948 14.0892 18.3467 13.9574L13.2889 3.93072H7.73333L13.5867 15.7018ZM26.4133 15.7018L32.32 3.93072H26.7111L21.86 13.5463L22.1044 14.0352C22.8793 14.1833 23.6289 14.3907 24.3533 14.6574C25.0763 14.9241 25.7637 15.2722 26.4156 15.7018M9.39556 33.7018C9.42074 33.4529 9.47852 33.1789 9.56889 32.8796C9.65778 32.5774 9.78815 32.2589 9.96 31.9241C9.27556 30.8174 8.78148 29.6226 8.47778 28.3396C8.17407 27.0566 8.09556 25.7359 8.24222 24.3774C8.24222 23.2663 8.43481 22.2115 8.82 21.2129C9.2037 20.2159 9.73704 19.3189 10.42 18.5218C9.89111 18.6122 9.42519 18.8018 9.02222 19.0907C8.62222 19.3811 8.3363 19.727 8.16444 20.1285C6.51259 20.53 5.22444 21.4596 4.3 22.9174C3.37704 24.3737 3.09556 25.9885 3.45556 27.7618C3.45556 29.4137 4.03259 30.8166 5.18667 31.9707C6.33926 33.1233 7.74222 33.7018 9.39556 33.7018ZM30.6089 33.6996C32.6207 33.5811 34.3185 32.7929 35.7022 31.3352C37.0874 29.8789 37.78 28.1233 37.78 26.0685C37.78 24.0137 37.0874 22.2581 35.7022 20.8018C34.317 19.3455 32.6193 18.5566 30.6089 18.4352C30.4385 18.4352 30.2682 18.4426 30.0978 18.4574C29.9259 18.4722 29.7541 18.4937 29.5822 18.5218C30.4119 19.5678 31.0593 20.7322 31.5244 22.0152C31.9911 23.2981 32.2244 24.6492 32.2244 26.0685C32.2244 27.4878 31.9919 28.8389 31.5267 30.1218C31.06 31.4048 30.4126 32.5692 29.5844 33.6152C29.7548 33.6448 29.9252 33.6663 30.0956 33.6796C30.2674 33.6944 30.4385 33.6996 30.6089 33.6996ZM20 38.2907C18.5763 38.2907 17.2311 38.0707 15.9644 37.6307C14.6978 37.1907 13.5474 36.5574 12.5133 35.7307C12.1222 35.8626 11.7104 35.9515 11.2778 35.9974C10.8452 36.0433 10.4007 36.067 9.94444 36.0685C7.20074 36.0685 4.85778 35.0974 2.91556 33.1552C0.973333 31.2129 0.00148148 28.8692 0 26.1241C0 23.4144 0.945926 21.0966 2.83778 19.1707C4.72963 17.2448 7.02148 16.2522 9.71333 16.1929C10.0274 16.1929 10.3267 16.2144 10.6111 16.2574C10.8956 16.2989 11.18 16.3485 11.4644 16.4063L4.10222 1.71072H14.7022L20 12.3085L25.3 1.7085H35.8978L28.6311 16.2529C28.8889 16.1952 29.1533 16.1522 29.4244 16.1241C29.6941 16.0944 29.9719 16.0796 30.2578 16.0796C32.9778 16.1492 35.2815 17.147 37.1689 19.0729C39.0563 20.9989 40 23.3307 40 26.0685C40 28.8492 39.0289 31.2115 37.0867 33.1552C35.1444 35.0989 32.7822 36.07 30 36.0685C29.5526 36.0685 29.1178 36.0448 28.6956 35.9974C28.2733 35.95 27.8659 35.8611 27.4733 35.7307C26.4407 36.5292 25.2926 37.1552 24.0289 37.6085C22.7652 38.0618 21.4222 38.2892 20 38.2907ZM16.5311 31.1529L17.8289 26.8663L14.36 24.3929H18.6467L20 19.8729L21.3556 24.3929H25.6422L22.1711 26.8685L23.4711 31.1552L20 28.5129L16.5311 31.1529Z" fill="black"/>
</svg>
