<svg width="34" height="34" viewBox="0 0 34 34" fill="none" xmlns="http://www.w3.org/2000/svg">
<path d="M9.90369 20.5443C9.52797 20.5443 9.16763 20.6936 8.90196 20.9593C8.63628 21.225 8.48702 21.5853 8.48702 21.961V24.4855C6.66082 22.4207 5.65305 19.7592 5.65369 17.0027C5.65203 16.586 5.67663 16.1696 5.72736 15.756C5.75439 15.5691 5.74379 15.3787 5.69618 15.196C5.64857 15.0133 5.56491 14.842 5.45013 14.692C5.33535 14.5421 5.19175 14.4166 5.02778 14.323C4.86381 14.2294 4.68278 14.1695 4.49533 14.1468C4.30787 14.1241 4.11778 14.1392 3.93622 14.191C3.75466 14.2429 3.5853 14.3305 3.43809 14.4488C3.29088 14.567 3.1688 14.7135 3.07902 14.8796C2.98923 15.0457 2.93356 15.2281 2.91527 15.416C2.85067 15.9424 2.81896 16.4723 2.82036 17.0027C2.82179 20.3832 4.03685 23.6509 6.24444 26.211H4.23702C3.8613 26.211 3.50097 26.3603 3.23529 26.6259C2.96961 26.8916 2.82036 27.252 2.82036 27.6277C2.82036 28.0034 2.96961 28.3637 3.23529 28.6294C3.50097 28.8951 3.8613 29.0443 4.23702 29.0443H9.90369C10.1253 29.0417 10.343 28.9861 10.5387 28.8821C10.7344 28.778 10.9024 28.6287 11.0285 28.4465L11.0809 28.3856C11.0909 28.3714 11.0909 28.3544 11.0994 28.3403C11.1662 28.226 11.2168 28.103 11.2495 27.9748C11.2705 27.9024 11.2856 27.8285 11.2949 27.7538C11.2991 27.7113 11.3204 27.673 11.3204 27.6277V21.961C11.3204 21.5853 11.1711 21.225 10.9054 20.9593C10.6397 20.6936 10.2794 20.5443 9.90369 20.5443ZM12.0287 8.50268H9.50277C11.5679 6.67616 14.23 5.66836 16.987 5.66935C17.4037 5.66816 17.8201 5.69324 18.2337 5.74443C18.607 5.78952 18.9829 5.68447 19.2787 5.45241C19.5745 5.22034 19.7661 4.88026 19.8111 4.50697C19.8562 4.13369 19.7512 3.75779 19.5191 3.46196C19.2871 3.16613 18.947 2.9746 18.5737 2.92952C18.0473 2.86538 17.5173 2.83415 16.987 2.83602C13.6065 2.83745 10.3389 4.05251 7.77869 6.2601V4.25268C7.77869 3.87696 7.62943 3.51662 7.36376 3.25095C7.09808 2.98527 6.73775 2.83602 6.36202 2.83602C5.9863 2.83602 5.62597 2.98527 5.36029 3.25095C5.09461 3.51662 4.94536 3.87696 4.94536 4.25268V9.91935C4.95455 10.013 4.97306 10.1056 5.00061 10.1956C5.0358 10.3701 5.10357 10.5364 5.20036 10.6858L5.21736 10.7098C5.31142 10.8452 5.4284 10.9632 5.56302 11.0583C5.57861 11.0697 5.58711 11.0867 5.60269 11.098C5.62252 11.1122 5.64519 11.1164 5.66644 11.1278C5.74728 11.1758 5.8327 11.2157 5.92144 11.2468C6.04079 11.2882 6.16514 11.3134 6.29119 11.3218C6.31669 11.3218 6.33652 11.336 6.36202 11.336H12.0287C12.4044 11.336 12.7647 11.1868 13.0304 10.9211C13.2961 10.6554 13.4454 10.2951 13.4454 9.91935C13.4454 9.54363 13.2961 9.18329 13.0304 8.91761C12.7647 8.65194 12.4044 8.50268 12.0287 8.50268ZM28.972 23.8083C28.9367 23.6344 28.8689 23.4686 28.7723 23.3196L28.7567 23.2955C28.6622 23.16 28.5447 23.0421 28.4096 22.947C28.394 22.9357 28.3869 22.9187 28.3699 22.9073C28.3558 22.8974 28.3374 22.8974 28.3218 22.8875C28.1414 22.7887 27.9446 22.7234 27.7409 22.6948C27.6956 22.6906 27.6574 22.6693 27.612 22.6693H21.9454C21.5696 22.6693 21.2093 22.8186 20.9436 23.0843C20.6779 23.35 20.5287 23.7103 20.5287 24.086C20.5287 24.4617 20.6779 24.8221 20.9436 25.0877C21.2093 25.3534 21.5696 25.5027 21.9454 25.5027H24.4699C22.4051 27.3289 19.7435 28.3367 16.987 28.336C16.5703 28.3367 16.1539 28.3112 15.7404 28.2595C15.3671 28.2144 14.9912 28.3195 14.6953 28.5515C14.3995 28.7836 14.208 29.1237 14.1629 29.497C14.1178 29.8703 14.2229 30.2462 14.4549 30.542C14.687 30.8378 15.0271 31.0293 15.4004 31.0744C15.9268 31.139 16.4567 31.1707 16.987 31.1693C20.3675 31.1679 23.6352 29.9529 26.1954 27.7453V29.7527C26.1954 30.1284 26.3446 30.4887 26.6103 30.7544C26.876 31.0201 27.2363 31.1693 27.612 31.1693C27.9877 31.1693 28.3481 31.0201 28.6138 30.7544C28.8794 30.4887 29.0287 30.1284 29.0287 29.7527V24.086C29.019 23.9923 29.0001 23.8983 28.972 23.8083ZM29.737 7.79435C30.1127 7.79435 30.4731 7.64509 30.7388 7.37942C31.0044 7.11374 31.1537 6.75341 31.1537 6.37768C31.1537 6.00196 31.0044 5.64162 30.7388 5.37595C30.4731 5.11027 30.1127 4.96102 29.737 4.96102H24.0704C23.9781 4.97048 23.887 4.98899 23.7984 5.01627L23.7884 5.01768C23.617 5.05345 23.4537 5.1207 23.3068 5.21602L23.2784 5.23443C23.1436 5.32863 23.0261 5.4456 22.9314 5.5801C22.92 5.59427 22.903 5.60277 22.8917 5.61835C22.8818 5.63252 22.8818 5.65093 22.8719 5.66652C22.7725 5.84818 22.7072 6.04647 22.6792 6.2516C22.6749 6.2941 22.6537 6.33235 22.6537 6.37768V12.0443C22.6537 12.4201 22.8029 12.7804 23.0686 13.0461C23.3343 13.3118 23.6946 13.461 24.0704 13.461C24.4461 13.461 24.8064 13.3118 25.0721 13.0461C25.3378 12.7804 25.487 12.4201 25.487 12.0443V9.51843C27.3124 11.5843 28.32 14.2459 28.3204 17.0027C28.3216 17.4194 28.2965 17.8358 28.2453 18.2493C28.2001 18.6222 28.3048 18.9978 28.5365 19.2935C28.7681 19.5892 29.1077 19.7807 29.4806 19.8261C29.538 19.8329 29.5957 19.8362 29.6534 19.836C29.9993 19.8354 30.333 19.7083 30.5916 19.4787C30.8502 19.249 31.0159 18.9327 31.0574 18.5893C31.1224 18.063 31.1546 17.5331 31.1537 17.0027C31.1523 13.6222 29.9372 10.3545 27.7296 7.79435H29.737Z" fill="white"/>
</svg>
