<svg width="34" height="34" viewBox="0 0 34 34" fill="none" xmlns="http://www.w3.org/2000/svg">
<path d="M17 2L30 6.54152V17C30 22.3551 26.7071 26.0986 23.6352 28.4226C21.7822 29.8129 19.7486 30.9456 17.5902 31.7898L17.4771 31.8326L17.4446 31.8443L17.4355 31.8469L17.4316 31.8482C17.4303 31.8482 17.429 31.8482 17 30.6246L16.5697 31.8495L16.5645 31.8469L16.5554 31.8443L16.5229 31.8313L16.4098 31.7898C15.7967 31.5531 15.1938 31.2908 14.6028 31.0035C13.1109 30.2801 11.6918 29.4158 10.3648 28.4226C7.2942 26.0986 4 22.3551 4 17V6.54152L17 2ZM17 30.6246L16.5697 31.8495L17 32L17.4303 31.8495L17 30.6246ZM17 29.2336L17.0117 29.2284C18.8105 28.4863 20.5082 27.5206 22.0648 26.3542C24.8442 24.2535 27.4 21.1821 27.4 17V8.38408L17 4.75086L6.6 8.38408V17C6.6 21.1821 9.1558 24.2509 11.9352 26.3555C13.4952 27.5241 15.197 28.4911 17 29.2336ZM24.8936 12.2548L15.7013 21.4299L10.1854 15.9256L12.0249 14.0895L15.7 17.7604L23.0541 10.42L24.8936 12.2548Z" fill="white"/>
</svg>
