<svg width="20" height="20" viewBox="0 0 20 20" fill="none" xmlns="http://www.w3.org/2000/svg">
<path d="M13.35 14.675C11.843 15.8447 9.9468 16.3962 8.04746 16.2172C6.14812 16.0382 4.3884 15.1421 3.12648 13.7113C1.86456 12.2805 1.19531 10.4226 1.25495 8.51582C1.31459 6.60899 2.09865 4.79656 3.44752 3.44746C4.79663 2.09859 6.60906 1.31453 8.51588 1.25489C10.4227 1.19525 12.2806 1.8645 13.7114 3.12642C15.1421 4.38833 16.0382 6.14806 16.2173 8.0474C16.3963 9.94674 15.8448 11.8429 14.675 13.35L18.475 17.15C18.5984 17.2645 18.6886 17.4103 18.7362 17.5719C18.7837 17.7334 18.7867 17.9048 18.745 18.068C18.7033 18.2311 18.6184 18.38 18.4991 18.4989C18.3799 18.6179 18.2308 18.7024 18.0675 18.7437C17.9045 18.7853 17.7334 18.7824 17.5719 18.7351C17.4105 18.6878 17.2648 18.5979 17.15 18.475L13.35 14.675ZM14.375 8.74996C14.3861 8.00447 14.2489 7.2642 13.9713 6.57223C13.6937 5.88026 13.2813 5.2504 12.758 4.71928C12.2348 4.18816 11.6111 3.76639 10.9234 3.47851C10.2356 3.19062 9.49747 3.04237 8.75189 3.04237C8.00632 3.04237 7.26818 3.19062 6.58043 3.47851C5.89267 3.76639 5.26903 4.18816 4.74577 4.71928C4.22251 5.2504 3.81009 5.88026 3.53249 6.57223C3.25489 7.2642 3.11765 8.00447 3.12877 8.74996C3.15079 10.2268 3.75291 11.6357 4.80506 12.6722C5.8572 13.7088 7.27491 14.2899 8.75189 14.2899C10.2289 14.2899 11.6466 13.7088 12.6987 12.6722C13.7509 11.6357 14.353 10.2268 14.375 8.74996Z" fill="#374151" fill-opacity="0.6"/>
</svg>
