<svg width="34" height="34" viewBox="0 0 34 34" fill="none" xmlns="http://www.w3.org/2000/svg">
<path fill-rule="evenodd" clip-rule="evenodd" d="M27.0541 2.46375C26.1974 1.98258 25.2847 1.93601 24.3208 2.05553C23.405 2.17039 22.289 2.45909 20.9495 2.80832L17.8157 3.62165C16.4762 3.97089 15.3618 4.25959 14.5096 4.60572C13.6109 4.96892 12.8349 5.4563 12.332 6.30222C11.826 7.1528 11.7763 8.06236 11.902 9.01228C12.0215 9.90787 12.3211 10.9944 12.6781 12.2889L13.5209 15.3373C13.8779 16.6334 14.179 17.7183 14.5376 18.5503C14.9179 19.435 15.4254 20.1878 16.2884 20.6721C17.1452 21.1517 18.0579 21.1998 19.0233 21.0787C19.9391 20.9654 21.0551 20.6752 22.3946 20.3259L25.5284 19.5126C26.8679 19.1649 27.9823 18.8747 28.8345 18.5285C29.7332 18.1653 30.5092 17.6779 31.0121 16.832C31.5181 15.9814 31.5678 15.0719 31.4421 14.1235C31.3226 13.2279 31.023 12.1399 30.666 10.8454L29.8232 7.79694C29.4662 6.50245 29.1651 5.41594 28.8065 4.58399C28.4263 3.69926 27.9156 2.94646 27.0541 2.46375ZM21.4602 5.08068C22.8959 4.70816 23.8629 4.45981 24.6111 4.36669C25.3266 4.27666 25.6696 4.35582 25.9195 4.49551C26.1632 4.6321 26.3976 4.86958 26.6692 5.50441C26.9564 6.17184 27.2171 7.10158 27.6021 8.49541L28.3999 11.3871C28.7864 12.7809 29.0409 13.7122 29.1356 14.4293C29.2256 15.1107 29.1449 15.4196 29.0114 15.6415C28.8764 15.8697 28.6311 16.101 27.9637 16.371C27.2683 16.652 26.3029 16.9065 24.8672 17.279L21.887 18.0536C20.4513 18.4261 19.4843 18.6744 18.7362 18.7676C18.0191 18.8591 17.6776 18.78 17.4277 18.6403C17.184 18.5037 16.9496 18.2647 16.678 17.6314C16.3909 16.964 16.1301 16.0327 15.7452 14.6388L14.9474 11.7487C14.5609 10.3518 14.3063 9.42205 14.2116 8.70651C14.1216 8.02356 14.2023 7.71623 14.3358 7.49272C14.4708 7.26455 14.7161 7.03328 15.3835 6.76321C16.0789 6.48227 17.0443 6.22927 18.4801 5.8552L21.4602 5.08068Z" fill="#F8F8F8"/>
<path fill-rule="evenodd" clip-rule="evenodd" d="M3.94131 5.84159C3.64725 5.7695 3.33667 5.81481 3.07546 5.96791C2.81425 6.12101 2.62297 6.36986 2.54219 6.66166C2.46142 6.95345 2.49751 7.26524 2.6428 7.53087C2.7881 7.7965 3.03117 7.99507 3.32045 8.08445L5.96376 8.81862C6.62498 9.00178 7.11701 9.50157 7.28465 10.1085L10.3145 21.0713C10.1975 21.0941 10.0811 21.121 9.96522 21.152C6.89661 21.9483 5.02161 25.0355 5.86287 28.0855C6.70104 31.12 9.88916 32.8692 12.9454 32.0745C15.6213 31.3807 17.3892 28.9454 17.2402 26.3129L30.3093 22.9168C30.4573 22.8784 30.5962 22.8112 30.7182 22.7191C30.8403 22.627 30.9429 22.5117 31.0204 22.3799C31.0979 22.2481 31.1486 22.1023 31.1698 21.9509C31.1909 21.7995 31.182 21.6454 31.1436 21.4974C31.1052 21.3494 31.038 21.2104 30.9458 21.0884C30.8537 20.9664 30.7384 20.8637 30.6066 20.7863C30.4748 20.7088 30.3291 20.658 30.1776 20.6369C30.0262 20.6158 29.8721 20.6247 29.7241 20.6631L16.6271 24.067C16.2352 23.3183 15.6837 22.6648 15.0116 22.1525C14.3395 21.6403 13.5632 21.2818 12.7374 21.1024L9.52906 9.4876C9.33171 8.78911 8.95698 8.15357 8.44129 7.64278C7.92561 7.13199 7.28652 6.76333 6.58618 6.57266L3.94131 5.84159ZM10.5519 23.4042C12.4331 22.9168 14.3206 24.008 14.8048 25.7619C15.286 27.5003 14.2305 29.3365 12.3617 29.8224C10.4805 30.3113 8.59311 29.2186 8.10884 27.4646C7.62767 25.7262 8.68314 23.89 10.5519 23.4042Z" fill="#F8F8F8"/>
</svg>
