<svg width="46" height="46" viewBox="0 0 46 46" fill="none" xmlns="http://www.w3.org/2000/svg">
<path d="M1 13.8904C1.19723 13.1304 1.41585 12.3841 1.89117 11.7338C3.09326 10.0895 5.16607 9.37692 7.1104 9.9588C9.03823 10.5358 10.4083 12.2943 10.4607 14.3275C10.4968 15.7301 10.4729 17.1342 10.4757 18.5377C10.4761 18.6942 10.4757 18.8508 10.4757 19.0224C10.7532 19.1079 11.0141 19.179 11.2686 19.2684C12.013 19.53 12.6302 19.9857 13.1826 20.5391C14.8422 22.2011 16.4963 23.8685 18.1686 25.5177C18.5756 25.9192 18.7547 26.3642 18.7521 26.9315C18.7394 29.6238 18.7495 32.3163 18.7425 35.0087C18.7418 35.3203 18.7536 35.5144 19.1592 35.5814C19.6755 35.6667 20.0717 36.0478 20.0793 36.5821C20.101 38.1112 20.1988 39.6604 19.999 41.1661C19.7353 43.1534 18.1553 44.561 16.1526 44.9282C16.0841 44.9407 16.0194 44.9754 15.953 44.9997C14.0051 44.9997 12.0572 44.9997 10.1093 44.9997C10.0459 44.9732 9.98492 44.9343 9.91892 44.9218C7.84113 44.527 6.29804 42.9624 6.06807 40.8689C5.94844 39.78 6.02115 38.6706 5.99124 37.5709C5.96847 36.7333 5.97508 35.9201 6.97024 35.5399C5.45499 34.0277 3.99113 32.56 2.51894 31.1008C1.91876 30.5059 1.46544 29.8248 1.21175 29.0169C1.13157 28.7617 1.07004 28.5005 1 28.242C1 23.4581 1 18.6743 1 13.8904ZM16.1281 35.4975C16.1429 35.3776 16.1653 35.2808 16.1654 35.1842C16.1673 32.6068 16.1725 30.0295 16.1555 27.4523C16.1543 27.2691 16.0267 27.0477 15.891 26.9102C14.382 25.3819 12.8602 23.8662 11.3406 22.3485C11.2294 22.2374 11.1128 22.1305 10.9906 22.0319C9.95562 21.1965 8.42112 21.4927 7.77186 22.6511C7.27042 23.5457 7.43198 24.5446 8.22982 25.3514C9.28702 26.4204 10.3526 27.4809 11.4197 28.54C11.7767 28.8943 11.9878 29.2989 11.8834 29.8099C11.7842 30.2959 11.4911 30.6445 11.0155 30.7873C10.5123 30.9383 10.0552 30.8218 9.67477 30.4407C8.58242 29.3462 7.4826 28.259 6.39472 27.16C3.9712 24.7117 4.56992 21.0037 7.63359 19.4141C7.74746 19.3551 7.88478 19.1978 7.88539 19.0856C7.89492 17.4679 7.91641 15.849 7.86356 14.2328C7.83107 13.2383 6.91378 12.4185 5.898 12.3487C4.58659 12.2587 3.58164 13.2444 3.58001 14.6456C3.57511 18.8838 3.58551 23.1221 3.57167 27.3603C3.5691 28.1589 3.84599 28.7937 4.40776 29.3491C6.04718 30.9697 7.6671 32.6101 9.30292 34.2343C9.65629 34.5852 9.97693 34.9391 9.96412 35.4976C12.0323 35.4975 14.0718 35.4975 16.1281 35.4975ZM8.61405 38.1263C8.61405 38.9608 8.54985 39.7779 8.63003 40.5807C8.73376 41.6181 9.59683 42.3862 10.6411 42.4069C12.2581 42.4391 13.8767 42.4367 15.4938 42.4068C16.4374 42.3894 17.2947 41.736 17.4433 40.823C17.5862 39.9456 17.5461 39.0384 17.5873 38.1262C14.5372 38.1263 11.5797 38.1263 8.61405 38.1263Z" fill="black"/>
<path d="M30.0465 44.9994C29.3476 44.7242 28.5824 44.5519 27.9632 44.1528C26.5672 43.2531 25.9017 41.8894 25.8743 40.2309C25.8561 39.1285 25.8582 38.0253 25.8734 36.9228C25.8843 36.1279 26.2314 35.7031 27.009 35.5465C27.3265 35.4826 27.2497 35.275 27.2501 35.0941C27.2545 32.7025 27.2494 30.3109 27.2542 27.9192C27.2583 25.8349 27.1003 26.2735 28.5356 24.8245C29.6241 23.7257 30.7213 22.6355 31.8149 21.5418C32.8863 20.4703 33.8753 19.2789 35.5242 19.0624C35.5242 17.5472 35.5303 16.0874 35.5225 14.6276C35.5147 13.1712 36.0167 11.9294 37.1147 10.9706C38.4868 9.77245 40.0773 9.43738 41.7985 10.0307C43.5194 10.6238 44.5461 11.871 44.9194 13.6538C44.9363 13.7347 44.9725 13.8115 44.9997 13.8902C44.9997 18.6741 44.9997 23.4579 44.9997 28.2418C44.7412 29.7268 43.8451 30.8029 42.7882 31.8039C41.6154 32.9148 40.4958 34.0816 39.354 35.2251C39.2573 35.322 39.169 35.4272 39.0732 35.5326C39.7864 35.9738 39.995 36.266 40.0014 36.927C40.0125 38.0852 40.0474 39.2459 39.9887 40.4013C39.8891 42.3571 38.9233 43.7717 37.1404 44.5955C36.7457 44.7779 36.308 44.8673 35.8902 44.9994C33.9423 44.9994 31.9944 44.9994 30.0465 44.9994ZM36.0355 35.4972C36.0227 34.9386 36.3434 34.5848 36.6967 34.2338C38.3326 32.6095 39.9519 30.9685 41.5923 29.3488C42.1677 28.7808 42.4393 28.1298 42.4289 27.3167C42.4053 25.4699 42.4215 23.6226 42.4215 21.7755C42.4215 19.3985 42.4178 17.0217 42.4237 14.6448C42.4253 13.9647 42.2257 13.3689 41.7142 12.9144C41.0451 12.3198 40.2686 12.1665 39.4389 12.5143C38.6141 12.86 38.1377 13.5043 38.1193 14.4048C38.0891 15.8933 38.115 17.3829 38.0949 18.8717C38.0907 19.1879 38.1878 19.3405 38.4771 19.4841C41.2234 20.8474 41.9839 24.5077 39.9456 26.7759C38.7796 28.0734 37.5015 29.2713 36.2549 30.4948C35.7463 30.9941 34.9601 30.9618 34.4735 30.4784C33.9771 29.9852 33.9559 29.2421 34.4391 28.6983C34.6764 28.4311 34.9389 28.1861 35.1918 27.9328C36.062 27.0616 36.9399 26.1977 37.8016 25.3183C38.5358 24.569 38.7088 23.6056 38.2885 22.7612C37.5982 21.3742 35.8844 21.1389 34.7215 22.2889C33.1638 23.8293 31.6164 25.3802 30.0799 26.9418C29.94 27.084 29.8438 27.3361 29.8426 27.5378C29.8267 30.0578 29.8319 32.5779 29.8333 35.098C29.8334 35.2233 29.8488 35.3486 29.8587 35.4973C31.9278 35.4972 33.9674 35.4972 36.0355 35.4972ZM28.4841 38.1263C28.47 38.2311 28.4487 38.3143 28.4495 38.3972C28.4564 39.084 28.4303 39.7736 28.4856 40.4565C28.5747 41.5584 29.4204 42.3841 30.5173 42.4068C32.1343 42.4402 33.753 42.4365 35.3702 42.4062C36.3107 42.3886 37.1769 41.7229 37.3188 40.8207C37.4569 39.9425 37.4214 39.0369 37.463 38.1263C34.4128 38.1263 31.4553 38.1263 28.4841 38.1263Z" fill="black"/>
<path d="M23.3437 1C23.8745 1.25386 24.1623 1.70434 24.4078 2.22074C25.0402 3.55045 25.7131 4.86099 26.3528 6.18735C26.4744 6.43949 26.6399 6.5409 26.9032 6.57785C28.4897 6.80094 30.0737 7.04114 31.6603 7.26294C32.2366 7.34346 32.6723 7.60996 32.8468 8.17078C33.0139 8.70789 32.844 9.17823 32.4359 9.57285C31.2933 10.6777 30.1647 11.7971 29.0146 12.894C28.7815 13.1162 28.7026 13.3217 28.7606 13.6403C29.0425 15.1879 29.294 16.7411 29.5738 18.289C29.6798 18.8757 29.5805 19.3767 29.0834 19.7399C28.5998 20.0934 28.0992 20.0389 27.5899 19.7689C26.1875 19.0254 24.7764 18.2982 23.3782 17.5469C23.109 17.4023 22.9023 17.3947 22.6296 17.5416C21.2196 18.3009 19.8017 19.0461 18.3791 19.7818C17.5174 20.2274 16.6062 19.8475 16.422 18.9689C16.3767 18.7528 16.3992 18.5124 16.4361 18.2908C16.6949 16.7392 16.9578 15.188 17.239 13.6403C17.297 13.3217 17.2181 13.1162 16.9851 12.894C15.835 11.7971 14.6986 10.6857 13.5674 9.56916C12.971 8.98048 12.9174 8.17259 13.4699 7.67329C13.6885 7.47572 14.0065 7.32946 14.2989 7.28219C15.8803 7.02661 17.467 6.80318 19.054 6.58447C19.3523 6.54339 19.529 6.4315 19.6646 6.14808C20.2943 4.83281 20.9646 3.53687 21.5907 2.21988C21.8366 1.70314 22.1259 1.2542 22.6562 1C22.8854 1 23.1145 1 23.3437 1ZM17.3255 9.43501C18.0352 10.1948 18.7382 10.9668 19.4641 11.7167C19.8627 12.1284 20.0387 12.5729 19.9288 13.1525C19.7322 14.1889 19.5726 15.2323 19.3857 16.3423C20.3042 15.8596 21.1787 15.4366 22.0153 14.9487C22.6956 14.5521 23.3104 14.5575 23.9887 14.9517C24.8245 15.4374 25.6969 15.8602 26.614 16.342C26.4251 15.2134 26.2609 14.1561 26.0669 13.1044C25.966 12.5569 26.1264 12.1218 26.5125 11.7462C27.19 11.0874 27.8666 10.4278 28.5416 9.76655C28.6279 9.68199 28.7023 9.5854 28.815 9.45709C27.7535 9.29948 26.755 9.12855 25.7503 9.01013C25.1019 8.93365 24.6633 8.63278 24.3963 8.0442C24.2074 7.62783 23.9946 7.22229 23.792 6.81211C23.5419 6.3056 23.2914 5.79934 23.0094 5.22863C22.8976 5.43334 22.8203 5.56422 22.7529 5.69991C22.3523 6.50652 21.9462 7.31064 21.5576 8.123C21.3061 8.64851 20.9036 8.92196 20.3292 8.99819C19.2986 9.13491 18.2714 9.29613 17.3255 9.43501Z" fill="black"/>
</svg>
