<svg width="30" height="30" viewBox="0 0 30 30" fill="none" xmlns="http://www.w3.org/2000/svg">
<g clip-path="url(#clip0_650_291)">
<path d="M18.0123 17.0786C17.1852 18.0215 16.178 18.7929 15.0445 19.3522V22.5665C15.0445 22.8506 14.9316 23.1231 14.7306 23.3241C14.5297 23.525 14.2572 23.6379 13.973 23.6379H7.54446C7.2603 23.6379 6.98777 23.525 6.78684 23.3241C6.58591 23.1231 6.47303 22.8506 6.47303 22.5665V19.3522C4.2152 18.2252 2.48912 16.258 1.66519 13.8728C0.84127 11.4877 0.985162 8.87455 2.06599 6.59426C3.14682 4.31397 5.07846 2.54823 7.44638 1.67595C9.81429 0.803675 12.4298 0.894377 14.7316 1.92859M6.47303 28.9286H15.0445" stroke="white" stroke-width="2" stroke-linecap="round" stroke-linejoin="round"/>
<path d="M15.8454 8.42988C15.0932 8.29917 15.0932 7.21917 15.8454 7.08846C17.1767 6.85559 18.4086 6.23211 19.3847 5.29727C20.3607 4.36244 21.0367 3.15848 21.3268 1.83846L21.3718 1.62846C21.5346 0.884884 22.5932 0.880599 22.7625 1.62203L22.8182 1.86417C23.1175 3.17908 23.7991 4.37609 24.7771 5.30455C25.7551 6.23302 26.986 6.85145 28.3146 7.08203C29.0711 7.21488 29.0711 8.29917 28.3146 8.43203C26.9863 8.66299 25.756 9.2816 24.7784 10.21C23.8008 11.1385 23.1195 12.3353 22.8204 13.6499L22.7646 13.892C22.5954 14.6335 21.5368 14.6292 21.3739 13.8856L21.3311 13.6777C21.0407 12.3571 20.3641 11.1528 19.3872 10.2179C18.4104 9.28297 17.1774 8.66197 15.8454 8.42988Z" stroke="white" stroke-width="2" stroke-linecap="round" stroke-linejoin="round"/>
</g>
<defs>
<clipPath id="clip0_650_291">
<rect width="30" height="30" fill="white"/>
</clipPath>
</defs>
</svg>
