<svg width="34" height="34" viewBox="0 0 34 34" fill="none" xmlns="http://www.w3.org/2000/svg">
<path d="M22.6693 7.66667C22.6693 4.99483 22.6693 3.66033 21.8391 2.83017C21.0089 2 19.6744 2 17.0026 2C14.3308 2 12.9963 2 12.1661 2.83017C11.3359 3.66033 11.3359 4.99483 11.3359 7.66667M2.83594 19C2.83594 13.6578 2.83594 10.9859 4.49627 9.327C6.1566 7.66808 8.82702 7.66667 14.1693 7.66667H19.8359C25.1782 7.66667 27.85 7.66667 29.5089 9.327C31.1679 10.9873 31.1693 13.6578 31.1693 19C31.1693 24.3423 31.1693 27.0141 29.5089 28.673C27.8486 30.3319 25.1782 30.3333 19.8359 30.3333H14.1693C8.82702 30.3333 6.15519 30.3333 4.49627 28.673C2.83735 27.0127 2.83594 24.3423 2.83594 19Z" stroke="white" stroke-width="2"/>
<path d="M17.0052 23.7219C18.5706 23.7219 19.8385 22.6651 19.8385 21.3617C19.8385 20.0584 18.5706 19.0002 17.0052 19.0002C15.4398 19.0002 14.1719 17.9433 14.1719 16.6386C14.1719 15.3352 15.4398 14.2784 17.0052 14.2784M17.0052 23.7219C15.4398 23.7219 14.1719 22.6651 14.1719 21.3617M17.0052 23.7219V24.6668M17.0052 14.2784V13.3335M17.0052 14.2784C18.5706 14.2784 19.8385 15.3352 19.8385 16.6386" stroke="white" stroke-width="2" stroke-linecap="round"/>
</svg>
