<svg width="50" height="50" viewBox="0 0 50 50" fill="none" xmlns="http://www.w3.org/2000/svg">
<g clip-path="url(#clip0_296_1021)">
<path d="M15.8871 24.4407C13.9711 26.0417 13.0003 26.202 10.8649 25.2802C10.8527 25.4205 10.8304 25.5474 10.8327 25.6732C10.8694 27.4734 10.7024 29.2826 11.1266 31.0661C11.6109 33.1024 12.5338 34.897 13.95 36.4379C14.0201 36.5147 14.0947 36.5882 14.1637 36.6661C14.5556 37.1126 14.5801 37.569 14.2339 37.9142C13.882 38.2649 13.3599 38.2337 12.9502 37.8051C10.5443 35.289 9.25621 32.2785 9.18273 28.8061C9.11259 25.4917 9.15601 22.174 9.16603 18.8585C9.17494 15.8526 12.1119 14.108 14.7883 15.5041C14.8618 15.5431 14.9386 15.5765 15.0199 15.6143C15.7402 12.7731 18.5291 11.7266 20.8759 13.1127C21.2411 11.5952 22.1195 10.522 23.647 10.1223C25.1622 9.72597 26.4448 10.2147 27.5091 11.3848C28.1281 10.7179 28.8295 10.2459 29.7168 10.0711C31.9256 9.63467 34.0654 11.2946 34.1601 13.5513C34.1901 14.2794 34.1768 15.0098 34.1668 15.739C34.159 16.3024 33.8094 16.6686 33.3218 16.6597C32.8364 16.6508 32.5135 16.2845 32.5057 15.7101C32.4968 15.0677 32.5113 14.4253 32.5012 13.7829C32.4823 12.5705 31.5627 11.6509 30.3948 11.6631C29.2448 11.6754 28.3563 12.5839 28.3385 13.7785C28.3285 14.4375 28.3441 15.0977 28.333 15.7579C28.323 16.3346 27.9956 16.6798 27.4924 16.6742C26.9936 16.6686 26.6797 16.3202 26.6719 15.7379C26.663 15.0788 26.6786 14.4186 26.6663 13.7584C26.6441 12.5738 25.7356 11.6654 24.5889 11.6631C23.4154 11.6609 22.5092 12.5861 22.5069 13.803C22.5036 16.5117 22.5058 19.2204 22.5069 21.928C22.5069 23.5735 21.6263 24.9462 20.1801 25.5496C18.7328 26.1541 17.2131 25.819 16.0352 24.6344C15.984 24.5843 15.9484 24.522 15.8871 24.4407ZM20.8325 19.1658C20.8325 18.2117 20.8403 17.2587 20.8303 16.3046C20.8169 15.0799 19.9207 14.1637 18.7517 14.1626C17.5805 14.1614 16.6743 15.0766 16.6676 16.2979C16.6576 18.205 16.6576 20.1121 16.6676 22.0204C16.6743 23.2428 17.5772 24.1624 18.745 24.1635C19.9151 24.1657 20.8158 23.2495 20.8303 22.0271C20.8414 21.074 20.8325 20.1199 20.8325 19.1658ZM14.9965 20.4016C14.9965 19.8293 15.0121 19.2571 14.9931 18.686C14.9542 17.5415 14.0312 16.6586 12.9034 16.6642C11.7757 16.6697 10.8583 17.5604 10.8382 18.7094C10.8182 19.836 10.8204 20.9627 10.8371 22.0894C10.8549 23.2662 11.7801 24.1702 12.9279 24.1646C14.0758 24.1591 14.9742 23.2539 14.9976 22.0671C15.0065 21.5116 14.9976 20.956 14.9965 20.4016Z" fill="black"/>
<path d="M31.2795 25.8258C30.1383 25.8258 28.9972 25.848 27.8571 25.8213C25.7463 25.7712 24.1264 24.0645 24.1698 21.9681C24.2099 20.0521 25.8409 18.3888 27.8437 18.3487C30.342 18.2986 32.8437 18.2875 35.342 18.3543C38.132 18.43 40.5 20.6087 40.765 23.5201C40.9676 25.7579 41.021 28.0335 40.5768 30.2668C39.9556 33.3952 38.3825 35.9692 35.9498 38.0222C34.6395 39.1277 33.819 40.5216 33.4961 42.1983C33.3948 42.7226 33.3514 43.2659 33.3458 43.8003C33.3269 45.5193 33.3402 47.2383 33.338 48.9573C33.3369 49.6197 33.0341 49.9982 32.5153 50.0038C31.9998 50.0082 31.668 49.6197 31.6747 48.9706C31.6947 46.8364 31.6268 44.6955 31.7783 42.5701C31.943 40.26 33.0152 38.3239 34.7876 36.822C36.8973 35.034 38.3435 32.8386 38.889 30.1187C39.095 29.09 39.1362 28.019 39.1595 26.9658C39.1874 25.7545 39.2319 24.5232 39.0549 23.3319C38.7732 21.4281 37.0632 20.032 35.1382 20.0075C32.778 19.9775 30.4166 19.9875 28.0564 20.0031C26.7917 20.012 25.8286 20.9405 25.8398 22.0861C25.8509 23.2885 26.7906 24.1569 28.1043 24.1602C30.0314 24.1658 31.9575 24.1613 33.8847 24.1625C34.5493 24.1625 34.8989 24.3573 34.9824 24.806C35.0815 25.3448 34.7586 25.6109 34.3244 25.8525C31.3507 27.5102 29.7242 30.0787 29.2766 33.4231C29.212 33.904 29.1998 34.3917 29.1742 34.876C29.1441 35.4538 28.8357 35.8178 28.3537 35.8267C27.8549 35.8356 27.4997 35.4426 27.5086 34.8503C27.561 31.5004 28.6175 28.5578 31.0568 26.1842C31.1437 26.0996 31.245 26.0317 31.3385 25.956C31.3207 25.9115 31.3006 25.8681 31.2795 25.8258Z" fill="black"/>
<path d="M18.3324 46.5278C18.3324 47.3595 18.338 48.1922 18.3313 49.0239C18.3269 49.6395 18.0096 50.0058 17.5008 50.0069C16.992 50.0081 16.6702 49.6406 16.668 49.0272C16.6624 47.5888 16.6613 46.1493 16.6669 44.7098C16.6736 43.1255 16.2761 41.6637 15.3988 40.3366C15.0426 39.7978 15.1083 39.2857 15.5413 39.0185C15.9711 38.7546 16.4209 38.8949 16.7704 39.4092C17.7524 40.8499 18.2512 42.4519 18.3191 44.1865C18.3502 44.9658 18.3246 45.7462 18.3246 46.5267C18.328 46.5278 18.3302 46.5278 18.3324 46.5278Z" fill="black"/>
<path d="M11.2069 40.5196C11.04 40.8079 10.9565 41.0473 10.7973 41.2121C10.0747 41.9613 9.33546 42.6961 8.59176 43.4253C8.17537 43.8328 7.69554 43.8584 7.34262 43.5244C6.97299 43.1737 6.99415 42.6772 7.42166 42.2419C8.152 41.4993 8.89125 40.7656 9.63161 40.032C9.91662 39.7492 10.2807 39.6223 10.6247 39.8349C10.8607 39.983 11.0066 40.2769 11.2069 40.5196Z" fill="black"/>
<path d="M42.9956 43.0111C42.8286 43.2126 42.6838 43.5377 42.4456 43.6334C42.204 43.7303 41.7698 43.7125 41.5939 43.5521C40.7233 42.7583 39.8938 41.9167 39.0856 41.0583C38.7917 40.7466 38.8328 40.3358 39.1279 40.0162C39.4407 39.6778 39.8727 39.6032 40.2022 39.9093C41.0907 40.7354 41.9335 41.6094 42.7829 42.4778C42.8809 42.5769 42.8976 42.7572 42.9956 43.0111Z" fill="black"/>
<path d="M43.0367 8.70986C42.8497 9.00823 42.7484 9.25207 42.578 9.42908C41.88 10.1539 41.1641 10.8619 40.4471 11.5678C40.0096 11.9975 39.5142 12.0354 39.1568 11.6869C38.795 11.3329 38.8228 10.8397 39.2548 10.4021C39.9851 9.65953 40.7221 8.92475 41.4658 8.19552C41.7475 7.9183 42.106 7.7758 42.4545 8.01516C42.6838 8.17436 42.8308 8.45603 43.0367 8.70986Z" fill="black"/>
<path d="M11.185 11.1637C11.008 11.3864 10.8732 11.7193 10.6506 11.7961C10.3834 11.8874 9.93916 11.874 9.75101 11.7048C8.90154 10.941 8.1033 10.1172 7.31172 9.2911C6.97884 8.94374 7.01559 8.48505 7.32509 8.16553C7.64573 7.83487 8.12891 7.80259 8.49074 8.15106C9.30346 8.93261 10.0961 9.73309 10.8799 10.5436C11.0135 10.6816 11.0614 10.9043 11.185 11.1637Z" fill="black"/>
<path d="M24.1681 2.4859C24.1681 1.94817 24.157 1.40932 24.1715 0.871587C24.186 0.341646 24.5333 -0.00905204 25.0042 -0.0068254C25.4741 -0.00459875 25.8225 0.34833 25.8292 0.879385C25.8426 1.95485 25.8426 3.03143 25.8292 4.10801C25.8225 4.63795 25.4674 4.98976 24.9965 4.98642C24.5266 4.9842 24.186 4.63016 24.1715 4.09911C24.157 3.56249 24.1681 3.02363 24.1681 2.4859Z" fill="black"/>
<path d="M2.54727 24.9997C3.06831 24.9997 3.58934 24.9886 4.10926 25.003C4.64032 25.0175 4.99213 25.3615 4.99213 25.8325C4.99213 26.3034 4.64032 26.6541 4.10926 26.6608C3.0338 26.6741 1.95721 26.6741 0.881742 26.6608C0.350688 26.6541 0 26.3034 0 25.8314C0 25.3604 0.350688 25.0164 0.881742 25.003C1.43729 24.9886 1.99284 24.9997 2.54727 24.9997Z" fill="black"/>
<path d="M47.5562 24.9997C48.0772 24.9997 48.5983 24.9886 49.1182 25.003C49.6492 25.0175 50.001 25.3615 49.9999 25.8325C49.9999 26.3034 49.6481 26.6541 49.1171 26.6608C48.0416 26.6741 46.965 26.6741 45.8896 26.6608C45.3585 26.6541 45.0078 26.3023 45.0078 25.8314C45.0078 25.3604 45.3585 25.0175 45.8896 25.003C46.4451 24.9886 47.0018 24.9997 47.5562 24.9997Z" fill="black"/>
</g>
<defs>
<clipPath id="clip0_296_1021">
<rect width="50" height="50" fill="white"/>
</clipPath>
</defs>
</svg>
