<svg width="46" height="46" viewBox="0 0 46 46" fill="none" xmlns="http://www.w3.org/2000/svg">
<g clip-path="url(#clip0_219_28)">
<path d="M18.802 22.213L8.46034 34.3815C8.13262 34.7676 7.72834 35.0816 7.27306 35.3034C6.81778 35.5252 6.32141 35.6502 5.81536 35.6703C5.30931 35.6904 4.80459 35.6053 4.33313 35.4203C3.86167 35.2354 3.43372 34.9546 3.07637 34.5957C2.7176 34.2369 2.437 33.8078 2.25226 33.3352C2.06752 32.8627 1.98263 32.357 2.00295 31.8501C2.02327 31.3431 2.14835 30.8458 2.37031 30.3896C2.59228 29.9334 2.90632 29.528 3.29265 29.1991L15.4318 18.8365M35.6007 18.9372L25.2023 29.3587M18.7012 2L8.30285 12.4236M39.8003 22.2802L44 18.8365M39.8003 29.1676L44 31.4627M20.906 43.9924H41.9002M23.4783 43.9924C24.6353 41.9178 25.5005 37.9491 29.5994 37.7286C30.8173 37.6615 32.0562 37.6615 33.2741 37.7286C37.3708 37.9491 38.2402 41.9178 39.3993 43.9924M17.4014 3.304L9.60475 11.1196C9.60475 11.1196 13.5041 16.3314 17.4035 20.2391C21.305 24.1469 26.5042 28.0568 26.5042 28.0568L34.303 20.2391C34.303 20.2391 30.4036 15.0295 26.5042 11.1196C22.6048 7.21388 17.4014 3.304 17.4014 3.304Z" stroke="black" stroke-width="3.30581" stroke-linecap="round" stroke-linejoin="round"/>
</g>
<defs>
<clipPath id="clip0_219_28">
<rect width="46" height="46" fill="white"/>
</clipPath>
</defs>
</svg>
