<svg width="192" height="40" viewBox="0 0 192 40" fill="none" xmlns="http://www.w3.org/2000/svg">
<path d="M57.92 18.16C60.768 18.864 63.52 20.56 63.52 23.984C63.52 27.952 59.808 30 55.52 30H45.344V29.872C45.44 29.328 46.112 27.216 46.112 25.168V11.792C46.112 9.744 45.44 7.632 45.344 7.088V6.96H55.296C59.488 6.96 62.464 9.584 62.464 12.848C62.464 15.728 60.288 17.36 57.92 18.16ZM53.92 8.24H50.336V17.648H53.76C56.544 17.648 57.984 15.376 57.984 12.848C57.984 10.544 56.672 8.24 53.92 8.24ZM54.112 28.72C57.536 28.72 59.104 26.96 59.104 23.952C59.104 20.944 57.248 18.928 54.112 18.928H51.168L50.336 18.96V28.72H54.112ZM65.5323 30V29.872C65.6283 29.328 66.3003 27.216 66.3003 25.168V18.8C66.3003 16.752 65.6603 14.64 65.5323 14.096V13.968H70.2683V25.168C70.2683 27.216 70.9083 29.328 71.0363 29.872V30H65.5323ZM83.3235 27.056C86.3955 27.056 88.2835 28.688 88.2835 31.472C88.2835 35.632 83.5475 36.4 80.2195 36.4C77.8195 36.4 73.1155 35.888 73.1155 32.688C73.1155 31.664 73.5955 30.736 74.3955 30.032C73.5635 29.392 73.3075 28.464 73.3075 27.6C73.3075 25.776 74.4595 24.688 76.2195 24.208C74.5235 23.28 73.2115 21.68 73.2115 19.408C73.2115 15.696 76.7955 13.776 79.9635 13.776C81.2115 13.776 82.4915 14.064 83.6115 14.64C84.5075 12.848 86.1075 11.696 88.4755 12.048L87.8675 15.216L87.8035 15.248C86.8115 14.704 85.5955 14.48 84.2515 14.992C85.6915 15.92 86.7475 17.392 86.7475 19.408C86.7475 23.184 83.0995 25.104 79.9635 25.104C79.0355 25.104 78.0755 24.944 77.1795 24.624C76.4435 24.88 75.8035 25.36 75.8035 26C75.8035 26.928 76.9235 27.056 78.1075 27.056H83.3235ZM79.9635 14.928C78.1715 14.928 77.1475 16.912 77.1475 19.44C77.1475 21.968 78.1715 23.952 79.9635 23.952C81.7555 23.952 82.8115 21.968 82.8115 19.44C82.8115 16.912 81.7555 14.928 79.9635 14.928ZM80.6035 35.152C83.3555 35.152 85.6595 34.16 85.6595 32.656C85.6595 31.696 84.9555 30.928 83.1955 30.928H77.8195C76.8915 30.928 76.1235 30.8 75.5155 30.608C75.4835 30.864 75.4835 31.12 75.4835 31.44C75.4515 33.52 76.9875 35.152 80.6035 35.152ZM113.811 7.088C113.715 7.632 113.043 9.744 113.043 11.792V25.168C113.043 27.216 113.715 29.328 113.811 29.872V30H108.083V29.872C108.211 29.328 108.851 27.216 108.851 25.168V10.8L101.619 30H100.147V29.968L99.8593 30L92.3393 10.896C92.3073 11.184 92.3073 11.504 92.3073 11.824V23.184C92.3073 26.064 93.5553 29.072 93.7793 29.84V30H89.4593V29.84C89.6833 29.072 90.9313 26.064 90.9313 23.184V11.824C90.9313 9.776 89.9393 7.632 89.7793 7.088V6.96H95.1233L102.131 24.72L108.851 6.96H113.811V7.088ZM125.367 27.632C127.095 27.632 128.663 27.024 130.487 25.52L130.615 25.616C129.655 27.952 127.223 30.288 123.607 30.288C119.639 30.288 115.799 27.44 115.799 22C115.799 16.912 119.095 13.776 123.639 13.776C128.503 13.776 130.743 17.424 130.743 21.584H120.183C120.439 25.072 122.039 27.632 125.367 27.632ZM123.575 14.96C121.079 14.96 120.119 17.808 120.151 20.72V20.784L126.711 20.016C126.647 17.328 125.783 14.96 123.575 14.96ZM147.883 25.168C147.883 27.216 148.523 29.328 148.651 29.872V30H143.147V29.872C143.243 29.328 143.915 27.216 143.915 25.168V19.696C143.915 17.296 142.443 16.336 140.843 16.304C139.659 16.304 138.539 16.816 137.483 17.712V25.168C137.483 27.216 138.123 29.328 138.219 29.872V30H132.715V29.872C132.843 29.328 133.483 27.216 133.483 25.168V18.8C133.483 16.752 132.843 14.64 132.715 14.096V13.968H137.483V16.72C138.667 14.96 140.363 13.776 142.635 13.776C145.387 13.776 147.883 15.408 147.883 19.184V25.168ZM158.209 27.6C158.913 27.6 159.873 27.408 160.865 26.8C160.097 28.688 158.529 30.288 156.065 30.288C153.473 30.288 151.969 28.464 151.969 25.488V15.28H149.633V14.16C152.705 12.976 154.369 11.12 155.713 8.912H155.969V13.968H160.353V15.28H155.969V25.072C155.969 26.8 156.833 27.6 158.209 27.6ZM169.865 30.288C165.449 30.288 161.737 27.344 161.737 21.936C161.737 16.592 165.449 13.776 169.865 13.776C174.249 13.776 178.025 16.592 178.025 21.936C178.025 27.344 174.249 30.288 169.865 30.288ZM169.865 29.072C172.361 29.072 173.577 25.584 173.577 21.936C173.577 18.352 172.361 14.96 169.865 14.96C167.337 14.96 166.185 18.384 166.185 21.936C166.185 25.552 167.305 29.072 169.865 29.072ZM184.483 16.848C185.699 14.544 187.97 12.944 191.043 13.936L190.435 18.288H190.307C188.899 16.912 186.562 16.016 184.483 17.712V25.168C184.483 27.216 185.123 29.328 185.219 29.872V30H179.715V29.872C179.843 29.328 180.483 27.216 180.483 25.168V18.8C180.483 16.752 179.843 14.64 179.715 14.096V13.968H184.483V16.848Z" fill="black"/>
<path d="M14.45 2H19.55V36H14.45V2Z" fill="#2251FF"/>
<path d="M34 16.45V21.55L0 21.55L2.22929e-07 16.45L34 16.45Z" fill="#2251FF"/>
<path d="M27.2174 5.17588L30.8237 8.78212L6.78205 32.8238L3.1758 29.2175L27.2174 5.17588Z" fill="#2251FF"/>
<path d="M30.8233 29.2174L27.217 32.8237L3.17542 8.78205L6.78166 5.1758L30.8233 29.2174Z" fill="#2251FF"/>
</svg>
