<svg width="45" height="46" viewBox="0 0 45 46" fill="none" xmlns="http://www.w3.org/2000/svg">
<path d="M28.7188 19.8312C28.714 19.8381 28.7106 19.8439 28.7087 19.8472C28.7034 19.8564 28.6992 19.8651 28.6967 19.8705C28.6912 19.8823 28.6852 19.8964 28.6793 19.911C28.6555 19.9696 28.6141 20.0803 28.5563 20.2396L28.5175 20.3464L28.5893 20.4344C29.1967 21.1782 29.6658 21.9788 29.998 22.8366L29.9981 22.8367C30.3288 23.6894 30.4947 24.597 30.4947 25.561C30.4947 27.7612 29.7136 29.6397 28.1459 31.2074C26.5783 32.775 24.6998 33.5561 22.4996 33.5561C20.2994 33.5561 18.4209 32.775 16.8532 31.2074C15.2855 29.6397 14.5044 27.7612 14.5044 25.561C14.5044 24.6227 14.6643 23.7136 14.9841 22.8327L14.9843 22.8323C15.3026 21.9504 15.7639 21.1523 16.3687 20.437L16.4434 20.3487L16.404 20.2399C16.246 19.8027 16.1114 19.4165 16.0001 19.0812L15.9999 19.0805C15.886 18.7417 15.7694 18.4076 15.65 18.0783L15.5473 17.795L15.3262 17.9997C14.2786 18.9692 13.4715 20.1087 12.9059 21.4168C12.339 22.7236 12.0557 24.1056 12.0557 25.561V25.5611C12.0571 28.452 13.0763 30.9198 15.1096 32.953C17.1428 34.9862 19.6099 36.0049 22.4995 36.0049L28.7188 19.8312ZM28.7188 19.8312C28.7409 19.7648 28.7742 19.663 28.8188 19.5255C28.9201 19.2134 29.079 18.7198 29.2954 18.0444L29.3901 17.749L29.6201 17.9572C30.6929 18.9283 31.5156 20.0751 32.087 21.3963C32.658 22.7165 32.9435 24.1053 32.9435 25.561C32.9435 28.4506 31.9249 30.9184 29.8917 32.953C27.8584 34.9876 25.3905 36.0062 22.4996 36.0049L28.7188 19.8312ZM15.2371 42.7289L15.2372 42.7289C17.506 43.71 19.9275 44.2 22.4996 44.2C25.0716 44.2 27.4931 43.7093 29.762 42.7269C32.0269 41.7475 34 40.4182 35.6794 38.7388C37.3575 37.0607 38.6868 35.0883 39.6675 32.8235L39.6675 32.8234C40.6486 30.5545 41.1386 28.1331 41.1386 25.561C41.1386 22.2309 40.3246 19.1452 38.6965 16.3075L38.6965 16.3074C37.0672 13.4727 34.8227 11.2147 31.9659 9.53511L31.722 9.39173L31.6682 9.66947L31.4715 10.6836C31.4099 11.0011 31.3258 11.3524 31.219 11.7377L31.1798 11.8792L31.3031 11.959C33.637 13.4695 35.4507 15.4225 36.747 17.8195C38.0422 20.217 38.6898 22.7964 38.6898 25.561C38.6898 30.0847 37.1223 33.9091 33.985 37.0464C30.8476 40.1837 27.0232 41.7512 22.4996 41.7512C17.9759 41.7512 14.1515 40.1837 11.0142 37.0464C7.87684 33.9091 6.30933 30.0847 6.30933 25.561L6.30933 25.5608C6.30663 22.7988 6.9475 20.2289 8.23169 17.848C9.51598 15.467 11.3069 13.5206 13.6071 12.0074L13.7273 11.9283L13.6906 11.7892C13.5828 11.3809 13.5053 11.0129 13.4575 10.6846C13.408 10.3451 13.353 10.0075 13.2925 9.67203L13.2416 9.38962L12.9942 9.53515C10.1373 11.2162 7.89941 13.4772 6.28379 16.3163C4.66827 19.1552 3.86055 22.238 3.86055 25.561C3.86055 28.1331 4.35126 30.5546 5.3337 32.8235C6.31305 35.0884 7.64235 37.0614 9.32176 38.7408C10.9998 40.4189 12.9722 41.7482 15.2371 42.7289ZM15.5357 18.3513C15.6289 18.6126 15.7205 18.8769 15.8103 19.1442L15.5357 18.3513ZM21.3034 17.3016L21.3041 17.3021C21.5454 17.4779 21.8204 17.5659 22.1226 17.5659H22.8786C23.1799 17.5659 23.4543 17.4769 23.6953 17.2998C23.9367 17.1239 24.1057 16.8872 24.2015 16.5967L24.2015 16.5967L24.2026 16.5933L26.2903 9.85688L26.2907 9.85701L26.2938 9.8441C26.4819 9.05619 26.6132 8.38386 26.6868 7.82843L26.6868 7.8283C26.7604 7.27006 26.7971 6.69311 26.7971 6.09757C26.7971 4.89605 26.381 3.8748 25.55 3.04664C24.7194 2.21887 23.6986 1.80287 22.5 1.80001C21.3007 1.79716 20.2794 2.21349 19.4486 3.04713C18.6183 3.88037 18.202 4.90124 18.202 6.09757C18.202 6.69445 18.2387 7.27142 18.3123 7.82836C18.3859 8.38506 18.5165 9.05731 18.7032 9.84386L18.7028 9.84396L18.7068 9.85688L20.7945 16.5933L20.7944 16.5933L20.7959 16.5976C20.8931 16.8877 21.0626 17.1246 21.3034 17.3016ZM22.4996 28.8342L22.4999 28.8341C23.4141 28.8327 24.1933 28.5166 24.8248 27.8866C25.4566 27.2563 25.7727 26.4768 25.7727 25.561C25.7727 24.6454 25.4567 23.8659 24.8251 23.2357C24.1936 22.6027 23.414 22.2864 22.4992 22.2878C21.585 22.2893 20.8058 22.6054 20.1743 23.2354C19.5426 23.8657 19.2264 24.6452 19.2264 25.561C19.2264 26.4767 19.5425 27.2562 20.1741 27.8864C20.8044 28.518 21.5839 28.8342 22.4996 28.8342Z" fill="black" stroke="black" stroke-width="0.4"/>
</svg>
