<svg width="40" height="40" viewBox="0 0 40 40" fill="none" xmlns="http://www.w3.org/2000/svg">
<path d="M20.56 35.208C21.968 35.108 23.3573 34.8833 24.728 34.534C26.4147 35.0395 28.1943 35.1544 29.932 34.87C30.001 34.8611 30.0704 34.8557 30.14 34.854C30.76 34.854 31.574 35.21 32.76 35.96V34.728C32.7603 34.5134 32.8182 34.3027 32.9276 34.118C33.037 33.9334 33.1939 33.7814 33.382 33.678C33.898 33.392 34.378 33.058 34.816 32.694C36.544 31.248 37.52 29.322 37.52 27.282C37.5193 26.6074 37.412 25.9371 37.202 25.296C37.722 24.336 38.146 23.324 38.456 22.276C39.456 23.756 39.996 25.496 40 27.282C40 30.054 38.692 32.642 36.43 34.532C36.0516 34.8468 35.6542 35.138 35.24 35.404V38.288C35.24 39.28 34.08 39.848 33.262 39.26C32.4881 38.6885 31.6872 38.1545 30.862 37.66C30.6247 37.5206 30.3781 37.3976 30.124 37.292C29.444 37.3933 28.752 37.4447 28.048 37.446C25.224 37.446 22.614 36.61 20.56 35.208ZM5.628 29.436C2.06 26.456 0 22.384 0 18.028C0 9.12 8.516 2 18.914 2C29.312 2 37.83 9.12 37.83 18.028C37.83 26.936 29.312 34.054 18.914 34.054C17.7447 34.054 16.5927 33.9653 15.458 33.788C14.968 33.902 13.01 35.05 10.188 37.084C9.168 37.822 7.716 37.11 7.716 35.868V30.948C6.98488 30.4958 6.2871 29.9919 5.628 29.44M15.528 30.756C15.612 30.756 15.6987 30.7627 15.788 30.776C16.8212 30.9473 17.8667 31.033 18.914 31.032C27.698 31.032 34.728 25.154 34.728 18.028C34.728 10.902 27.698 5.026 18.914 5.026C10.134 5.026 3.1 10.904 3.1 18.028C3.1 21.474 4.742 24.718 7.646 27.146C8.37933 27.7567 9.17667 28.304 10.038 28.788C10.52 29.058 10.818 29.558 10.818 30.098V32.936C13.05 31.456 14.518 30.756 15.526 30.756" fill="black"/>
<path d="M11.251 20.7471C11.914 20.7471 12.5499 20.4837 13.0187 20.0148C13.4876 19.546 13.751 18.9101 13.751 18.2471C13.751 17.584 13.4876 16.9481 13.0187 16.4793C12.5499 16.0105 11.914 15.7471 11.251 15.7471C10.5879 15.7471 9.95205 16.0105 9.48321 16.4793C9.01437 16.9481 8.75098 17.584 8.75098 18.2471C8.75098 18.9101 9.01437 19.546 9.48321 20.0148C9.95205 20.4837 10.5879 20.7471 11.251 20.7471ZM19.375 20.7471C20.038 20.7471 20.6739 20.4837 21.1427 20.0148C21.6116 19.546 21.875 18.9101 21.875 18.2471C21.875 17.584 21.6116 16.9481 21.1427 16.4793C20.6739 16.0105 20.038 15.7471 19.375 15.7471C18.7119 15.7471 18.0761 16.0105 17.6072 16.4793C17.1384 16.9481 16.875 17.584 16.875 18.2471C16.875 18.9101 17.1384 19.546 17.6072 20.0148C18.0761 20.4837 18.7119 20.7471 19.375 20.7471ZM27.501 20.7491C28.164 20.7491 28.7999 20.4857 29.2687 20.0168C29.7376 19.548 30.001 18.9121 30.001 18.2491C30.001 17.586 29.7376 16.9501 29.2687 16.4813C28.7999 16.0125 28.164 15.7491 27.501 15.7491C26.8379 15.7491 26.2021 16.0125 25.7332 16.4813C25.2644 16.9501 25.001 17.586 25.001 18.2491C25.001 18.9121 25.2644 19.548 25.7332 20.0168C26.2021 20.4857 26.8379 20.7491 27.501 20.7491Z" fill="black"/>
</svg>
