<svg width="34" height="34" viewBox="0 0 34 34" fill="none" xmlns="http://www.w3.org/2000/svg">
<path d="M21.4618 13.3018C21.4618 13.3018 19.1739 19.749 18.0873 20.8745C17.5628 21.4035 16.851 21.7046 16.1061 21.7126C15.3612 21.7206 14.6431 21.435 14.1072 20.9175C13.5714 20.4 13.2609 19.6923 13.243 18.9475C13.2251 18.2028 13.5012 17.481 14.0116 16.9383C15.0982 15.8121 21.4618 13.3018 21.4618 13.3018Z" stroke="white" stroke-width="2" stroke-linejoin="round"/>
<path d="M27.5188 27.5187C28.9019 26.1388 29.9987 24.4991 30.7463 22.694C31.4939 20.8889 31.8775 18.9538 31.875 17C31.875 8.78475 25.2153 2.125 17 2.125C8.78475 2.125 2.125 8.78475 2.125 17C2.125 21.1076 3.78958 24.8264 6.48125 27.5187M17 2.83333V5.66667M27.5152 7.89225L25.3137 9.67513M30.1198 19.29L27.3594 18.6525M3.87954 19.29L6.64063 18.6525M6.48479 7.89225L8.68629 9.67513" stroke="white" stroke-width="2" stroke-linecap="round" stroke-linejoin="round"/>
</svg>
