<svg width="50" height="50" viewBox="0 0 50 50" fill="none" xmlns="http://www.w3.org/2000/svg">
<circle cx="32.5" cy="17.5" r="2.75" stroke="black" stroke-width="1.5"/>
<path d="M23.5 39.4998V17.9998C25.5 15.6665 29.8 10.7998 31 9.99983C32.2 9.19983 33.5 9.66649 34 9.99983L42 17.9998V38.4998C42 40.0998 41 40.8332 40.5 40.9998H25C24.2 40.9998 23.6667 39.9998 23.5 39.4998Z" stroke="black" stroke-width="1.5" stroke-linecap="round" stroke-linejoin="round"/>
<path d="M25.5005 41L24.0005 43.5C23.6671 44.1667 22.6005 45.2 21.0005 44C19.4005 42.8 12.3338 38.8333 9.00047 37C8.50047 36.6667 7.80047 35.6 9.00047 34C10.2005 32.4 15.8335 21.6667 18.5 16.5L28 13" stroke="black" stroke-width="1.5" stroke-linecap="round" stroke-linejoin="round"/>
<path d="M20.9997 15.5004C19.6663 13.3337 18 8.5005 22.9989 6.00049C25.5 5.00014 28.4994 6.00037 30.4994 10.0004L32.5 17.5001" stroke="black" stroke-width="1.5" stroke-linecap="round" stroke-linejoin="round"/>
</svg>
